<svg width="213" height="36" viewBox="0 0 213 36" fill="none" xmlns="http://www.w3.org/2000/svg">
<g clip-path="url(#clip0_15681_60887)">
<path d="M11.2598 15.1146L18.2451 8.12958L25.234 15.1182L29.2985 11.0537L18.2451 0L7.19531 11.05L11.2598 15.1146Z" fill="white"/>
<path d="M8.39061 17.9844L4.32617 13.9199L0.261535 17.9846L4.32597 22.049L8.39061 17.9844Z" fill="white"/>
<path d="M11.2599 20.855L18.2452 27.8399L25.2339 20.8516L29.3006 24.9138L29.2986 24.9161L18.2452 35.9695L7.19514 24.9198L7.18945 24.9141L11.2599 20.855Z" fill="white"/>
<path d="M32.1658 22.051L36.2305 17.9863L32.166 13.9219L28.1014 17.9865L32.1658 22.051Z" fill="white"/>
<path d="M22.3683 17.9828H22.37L18.2456 13.8584L15.1976 16.9064H15.1973L14.8473 17.2567L14.1248 17.9792L14.1191 17.9848L14.1248 17.9908L18.2456 22.1116L22.37 17.9871L22.372 17.9848L22.3683 17.9828Z" fill="white"/>
<path d="M42.5664 8.71582H51.4065C53.6005 8.71582 55.2596 9.27889 56.3841 10.405C57.2543 11.2772 57.6892 12.3582 57.6892 13.6477V13.7022C57.6892 14.2471 57.6219 14.7286 57.4864 15.1462C57.3511 15.5644 57.1705 15.9409 56.9446 16.2769C56.7193 16.6133 56.4574 16.9085 56.1596 17.1624C55.8616 17.417 55.5415 17.6352 55.1986 17.8164C56.3014 18.2346 57.1696 18.8019 57.8026 19.5196C58.4352 20.2375 58.752 21.2321 58.752 22.5034V22.5576C58.752 23.4298 58.5844 24.1926 58.2489 24.8469C57.9134 25.5006 57.4327 26.0457 56.8068 26.4818C56.181 26.9179 55.4284 27.2446 54.5488 27.4628C53.6693 27.6807 52.6946 27.7895 51.625 27.7895H42.5664V8.71582ZM50.5227 16.4269C51.4494 16.4269 52.1852 16.2684 52.7298 15.9502C53.2747 15.6323 53.5471 15.119 53.5471 14.4107V14.3562C53.5471 13.7207 53.3108 13.2349 52.8386 12.8985C52.3662 12.5624 51.6849 12.3942 50.7951 12.3942H46.6534V16.4269H50.5227ZM51.64 24.1113C52.5665 24.1113 53.2926 23.9437 53.8199 23.6074C54.3466 23.2713 54.6102 22.7488 54.6102 22.0403V21.986C54.6102 21.3503 54.3648 20.8463 53.8744 20.4735C53.3838 20.1017 52.5937 19.9153 51.5037 19.9153H46.6534V24.1116H51.64V24.1113Z" fill="white"/>
<path d="M64.0176 8.71582H68.2142V27.7901H64.0176V8.71582Z" fill="white"/>
<path d="M74.5703 8.71582H78.4391L87.3769 20.4602V8.71582H91.5187V27.7901H87.9494L78.7118 15.6644V27.7901H74.5703V8.71582Z" fill="white"/>
<path d="M104.222 8.5791H108.091L116.266 27.7894H111.879L110.135 23.5116H102.069L100.326 27.7894H96.0469L104.222 8.5791ZM108.636 19.8053L106.102 13.62L103.568 19.8053H108.636Z" fill="white"/>
<path d="M120.797 8.71582H124.666L133.604 20.4602V8.71582H137.746V27.7901H134.176L124.939 15.6644V27.7901H120.797V8.71582Z" fill="white"/>
<path d="M152.847 28.1166C151.447 28.1166 150.149 27.8621 148.95 27.3538C147.751 26.8456 146.716 26.1504 145.844 25.2691C144.972 24.3882 144.29 23.3481 143.8 22.1492C143.31 20.9501 143.064 19.6694 143.064 18.3069V18.2526C143.064 16.8901 143.31 15.6143 143.8 14.4242C144.29 13.2344 144.972 12.1898 145.844 11.2907C146.715 10.3915 147.76 9.68271 148.977 9.1651C150.194 8.64748 151.539 8.38867 153.01 8.38867C153.9 8.38867 154.713 8.46168 155.448 8.60657C156.184 8.75231 156.851 8.95174 157.451 9.206C158.051 9.46055 158.605 9.76936 159.114 10.1324C159.622 10.4961 160.094 10.8955 160.53 11.3316L157.861 14.4106C157.115 13.7387 156.357 13.2114 155.585 12.8302C154.813 12.4489 153.945 12.258 152.983 12.258C152.183 12.258 151.443 12.4126 150.762 12.7214C150.081 13.0302 149.495 13.4569 149.004 14.0018C148.514 14.5467 148.133 15.1782 147.86 15.8955C147.588 16.6134 147.452 17.3808 147.452 18.1981V18.2524C147.452 19.0697 147.588 19.8421 147.86 20.5683C148.133 21.2953 148.509 21.9308 148.991 22.4757C149.472 23.0206 150.053 23.4524 150.734 23.7703C151.416 24.0885 152.165 24.247 152.983 24.247C154.073 24.247 154.994 24.0473 155.748 23.6475C156.502 23.2484 157.252 22.7032 157.996 22.0126L160.667 24.7103C160.176 25.2373 159.667 25.7098 159.141 26.1271C158.614 26.5453 158.037 26.9038 157.41 27.2038C156.784 27.5032 156.097 27.7308 155.353 27.8848C154.608 28.039 153.773 28.1166 152.847 28.1166Z" fill="white"/>
<path d="M165.605 8.71582H179.965V12.4491H169.748V16.3184H178.74V20.0514H169.748V24.0571H180.102V27.7901H165.605V8.71582Z" fill="white"/>
</g>
<path d="M191.647 12.0333H186.379V10.8906H197.99V12.0333H192.722V26.9219H191.647V12.0333Z" fill="white"/>
<path d="M207.665 20.7842L211.621 26.9219H210.352L206.439 20.8543H201.73V26.9219H200.654V10.8906H206.804C209.814 10.8906 212.028 12.9448 212.028 15.8611C212.028 18.497 210.225 20.4355 207.665 20.7842ZM201.73 19.7116H206.589C209.147 19.7116 210.932 18.171 210.932 15.8611C210.932 13.5511 209.147 12.0352 206.589 12.0352H201.73V19.7116Z" fill="white"/>
<defs>
<clipPath id="clip0_15681_60887">
<rect width="179.55" height="35.9692" fill="white" transform="translate(0.416016)"/>
</clipPath>
</defs>
</svg>
