<svg width="190" height="38" viewBox="0 0 190 38" fill="none" xmlns="http://www.w3.org/2000/svg">
<g clip-path="url(#clip0_15176_54523)">
<path d="M11.4247 15.9238L18.784 8.56485L26.1471 15.9277L30.4292 11.6456L18.784 0L7.14258 11.6417L11.4247 15.9238Z" fill="white"/>
<path d="M8.40119 18.9471L4.11914 14.665L-0.163123 18.9473L4.11893 23.2294L8.40119 18.9471Z" fill="white"/>
<path d="M11.4251 21.9714L18.7844 29.3303L26.1472 21.9678L30.4318 26.2475L30.4297 26.2499L18.7844 37.8952L7.1427 26.2538L7.13672 26.2478L11.4251 21.9714Z" fill="white"/>
<path d="M33.4502 23.2315L37.7324 18.9492L33.4504 14.6672L29.1681 18.9494L33.4502 23.2315Z" fill="white"/>
<path d="M23.1284 18.9449H23.1302L18.7849 14.5996L15.5737 17.8108H15.5734L15.2046 18.1799L14.4435 18.941L14.4375 18.947L14.4435 18.9533L18.7849 23.2947L23.1302 18.9494L23.1322 18.947L23.1284 18.9449Z" fill="white"/>
<path d="M44.4082 9.18262H53.7216C56.0331 9.18262 57.7811 9.77584 58.9657 10.9623C59.8825 11.8811 60.3407 13.02 60.3407 14.3785V14.436C60.3407 15.01 60.2698 15.5174 60.127 15.9573C59.9845 16.3979 59.7942 16.7945 59.5562 17.1486C59.3189 17.5029 59.0429 17.8139 58.7292 18.0815C58.4153 18.3497 58.078 18.5795 57.7167 18.7705C58.8786 19.2111 59.7933 19.8088 60.4601 20.5648C61.1267 21.3211 61.4604 22.369 61.4604 23.7084V23.7655C61.4604 24.6844 61.2838 25.488 60.9303 26.1773C60.5768 26.866 60.0704 27.4404 59.4111 27.8998C58.7517 28.3592 57.9588 28.7034 57.0322 28.9333C56.1056 29.1629 55.0786 29.2775 53.9518 29.2775H44.4082V9.18262ZM52.7905 17.3066C53.7668 17.3066 54.542 17.1396 55.1158 16.8044C55.6898 16.4694 55.9769 15.9286 55.9769 15.1824V15.125C55.9769 14.4554 55.7278 13.9436 55.2304 13.5893C54.7327 13.2352 54.0149 13.058 53.0775 13.058H48.714V17.3066H52.7905ZM53.9676 25.4024C54.9437 25.4024 55.7087 25.2258 56.2642 24.8715C56.8191 24.5174 57.0969 23.967 57.0969 23.2205V23.1634C57.0969 22.4935 56.8382 21.9625 56.3217 21.5699C55.8048 21.1781 54.9724 20.9817 53.824 20.9817H48.714V25.4027H53.9676V25.4024Z" fill="white"/>
<path d="M67.0059 9.18262H71.4272V29.2781H67.0059V9.18262Z" fill="white"/>
<path d="M78.125 9.18262H82.2009L91.6173 21.5558V9.18262H95.9808V29.2781H92.2204L82.4882 16.5033V29.2781H78.125V9.18262Z" fill="white"/>
<path d="M109.365 9.03906H113.441L122.054 29.2779H117.432L115.594 24.771H107.097L105.26 29.2779H100.752L109.365 9.03906ZM114.016 20.8663L111.345 14.3499L108.676 20.8663H114.016Z" fill="white"/>
<path d="M126.826 9.18262H130.903L140.319 21.5558V9.18262H144.682V29.2781H140.922L131.19 16.5033V29.2781H126.826V9.18262Z" fill="white"/>
<path d="M160.593 29.6221C159.119 29.6221 157.751 29.3539 156.488 28.8184C155.224 28.283 154.134 27.5506 153.215 26.6222C152.296 25.694 151.578 24.5983 151.062 23.3352C150.545 22.0719 150.287 20.7226 150.287 19.2872V19.23C150.287 17.7945 150.545 16.4504 151.062 15.1966C151.579 13.9431 152.296 12.8426 153.215 11.8953C154.133 10.948 155.234 10.2012 156.516 9.65589C157.798 9.11056 159.215 8.83789 160.765 8.83789C161.703 8.83789 162.559 8.91481 163.334 9.06746C164.109 9.221 164.812 9.43111 165.444 9.69898C166.076 9.96716 166.659 10.2925 167.196 10.675C167.731 11.0581 168.229 11.4789 168.688 11.9384L165.875 15.1822C165.09 14.4744 164.291 13.9189 163.478 13.5172C162.664 13.1155 161.751 12.9144 160.736 12.9144C159.894 12.9144 159.114 13.0772 158.397 13.4026C157.679 13.7279 157.062 14.1775 156.545 14.7515C156.029 15.3256 155.627 15.9909 155.339 16.7467C155.053 17.503 154.909 18.3114 154.909 19.1725V19.2297C154.909 20.0908 155.053 20.9046 155.339 21.6696C155.627 22.4355 156.023 23.1051 156.531 23.6791C157.038 24.2532 157.65 24.7081 158.368 25.043C159.086 25.3783 159.875 25.5453 160.736 25.5453C161.885 25.5453 162.855 25.3349 163.65 24.9137C164.444 24.4932 165.234 23.9189 166.018 23.1913L168.832 26.0334C168.315 26.5886 167.778 27.0864 167.224 27.5261C166.669 27.9666 166.062 28.3444 165.401 28.6604C164.741 28.9759 164.018 29.2156 163.234 29.3778C162.449 29.5404 161.569 29.6221 160.593 29.6221Z" fill="white"/>
<path d="M174.035 9.18262H189.164V13.1158H178.399V17.1923H187.873V21.1251H178.399V25.3453H189.308V29.2781H174.035V9.18262Z" fill="white"/>
</g>
<defs>
<clipPath id="clip0_15176_54523">
<rect width="189.164" height="37.895" fill="white"/>
</clipPath>
</defs>
</svg>
