<svg width="152" height="26" viewBox="0 0 152 26" fill="none" xmlns="http://www.w3.org/2000/svg">
<path d="M6.5413 0.913086L0.716797 24.2674H6.55382L10.1949 9.66549H16.0382L18.2216 0.913086H12.3783H6.5413Z" fill="white"/>
<path d="M29.895 0.913086H24.058L21.8746 9.66549L20.4169 15.5088H14.5799L12.3965 24.2674H18.2335H24.0705L27.7116 9.66549L29.895 0.913086Z" fill="white"/>
<path d="M61.4004 2.32743C61.4049 2.54406 61.3626 2.75911 61.2762 2.95781C61.1898 3.15652 61.0614 3.33417 60.8999 3.47858C60.6062 3.76743 60.2107 3.9293 59.7988 3.9293C59.3868 3.9293 58.9914 3.76743 58.6977 3.47858C58.3977 3.19078 58.2229 2.7965 58.2112 2.38093C58.1995 1.96536 58.3517 1.56187 58.6351 1.25763L58.7102 1.17631C59.0039 0.88746 59.3993 0.725586 59.8112 0.725586C60.2232 0.725586 60.6186 0.88746 60.9123 1.17631C61.074 1.31998 61.2016 1.49781 61.286 1.69691C61.3704 1.89601 61.4095 2.1114 61.4003 2.32745L61.4004 2.32743ZM35.75 0.907275H45.4095C48.0809 0.907275 50.1768 1.67679 51.5281 2.97808C52.0175 3.47094 52.4027 4.0573 52.6607 4.7022C52.9186 5.34711 53.0441 6.03735 53.0296 6.73179V6.80063C53.0296 9.84114 51.1527 11.4114 49.3259 12.206C52.0974 13.0443 54.3309 14.6459 54.3309 17.8365V17.9054C54.3309 21.9093 50.965 24.2804 45.8537 24.2804H35.75V0.907275ZM44.9591 11.3238C48.1247 11.3238 50.3332 9.8849 50.3332 7.13218V7.06957C50.3332 4.76104 48.4938 3.25955 45.1343 3.25955H38.3588V11.3175L44.9591 11.3238ZM45.8913 21.903C49.4323 21.903 51.6345 20.339 51.6345 17.7176V17.655C51.6345 15.115 49.4948 13.6448 45.4221 13.6448H38.3588V21.903L45.8913 21.903ZM58.51 7.01331H61.0875V24.2741H58.51V7.01331ZM67.8943 18.8V9.28431H63.9904V7.03208H67.8943V0.907275H70.4718V7.03208H77.5601V9.28431H70.4968V18.4684C70.4968 20.7894 71.5917 22.2659 73.6812 22.2221C74.9379 22.2468 76.188 22.0345 77.3661 21.5965V23.8425C76.0093 24.4 74.5457 24.65 73.0806 24.5744C69.9651 24.5056 67.9193 22.3097 67.9193 18.7749L67.8943 18.8ZM81.295 0.907275H86.838L92.9816 10.7858L99.1189 0.907275H104.662V24.2741H99.5631V9.02155L92.9878 19.0314H92.8502L86.3438 9.15293V24.2929H81.295V0.907275ZM109.235 0.907275H126.865V5.48055H114.353V10.2227H124.769V14.796H114.346V19.7009H127.028V24.2741H109.235V0.907275ZM136.643 12.3874L128.829 0.907275H134.842L139.747 8.48352L144.689 0.907275H150.532L142.731 12.3248L150.864 24.2741H144.858L139.603 16.2725L134.329 24.2866H128.485L136.643 12.3874Z" fill="white"/>
</svg>
