<svg width="81" height="26" viewBox="0 0 81 26" fill="none" xmlns="http://www.w3.org/2000/svg">
<path d="M75.0086 0.260742L57.6055 25.1174H62.9486L80.4422 0.260742H75.0086Z" fill="white"/>
<path d="M63.5072 0.260742L68.6277 7.58517L65.9562 11.5803L58.0527 0.260742H63.5072Z" fill="white"/>
<path d="M75.5306 25.1182L69.8535 17.017L72.5251 13.1328L80.8738 25.1182H75.5306Z" fill="white"/>
<path fill-rule="evenodd" clip-rule="evenodd" d="M51.3735 0.260742H56.0487V25.1174H51.3735V24.189C50.0232 24.9237 48.473 25.3414 46.8244 25.3414C41.5906 25.3414 37.3477 21.1305 37.3477 15.9361C37.3477 10.7418 41.5906 6.5309 46.8244 6.5309C48.473 6.5309 50.0232 6.94864 51.3735 7.68325V0.260742ZM46.7746 21.2135C49.7389 21.2135 52.142 18.8285 52.142 15.8866C52.142 12.9447 49.7389 10.5597 46.7746 10.5597C43.8102 10.5597 41.4071 12.9447 41.4071 15.8866C41.4071 18.8285 43.8102 21.2135 46.7746 21.2135Z" fill="white"/>
<path d="M37.8109 0.260742L20.4258 25.1174H25.876L43.2444 0.260742H37.8109Z" fill="white"/>
<path d="M25.8802 0.260742L31.3347 7.80713L28.3292 12.0242L20.2031 0.260742H25.8802Z" fill="white"/>
<path fill-rule="evenodd" clip-rule="evenodd" d="M14.1938 0.260742H18.869V25.1174H14.1938V24.189C12.8435 24.9237 11.2933 25.3414 9.64481 25.3414C4.41089 25.3414 0.167969 21.1305 0.167969 15.9361C0.167969 10.7418 4.41089 6.5309 9.64481 6.5309C11.2933 6.5309 12.8435 6.94864 14.1938 7.68325V0.260742ZM9.59489 21.2135C12.5592 21.2135 14.9623 18.8285 14.9623 15.8866C14.9623 12.9447 12.5592 10.5597 9.59489 10.5597C6.63055 10.5597 4.22748 12.9447 4.22748 15.8866C4.22748 18.8285 6.63055 21.2135 9.59489 21.2135Z" fill="white"/>
</svg>
