<svg width="103" height="32" viewBox="0 0 103 32" fill="none" xmlns="http://www.w3.org/2000/svg">
<g clip-path="url(#clip0_15176_54536)">
<path d="M51.3463 12.0479V16.4084H60.1862V20.7406H51.3463V27.5391H45.6816V7.71284H61.3878V12.0479H51.3463Z" fill="white"/>
<path d="M69.5963 12.1611H63.4453V7.71284H81.3827V12.1611H75.2607V27.5391H69.5963V12.1611Z" fill="white"/>
<path d="M96.4314 27.5391L92.2831 21.3919L88.1921 27.5391H81.7266L89.0219 17.5127L82.0415 7.71284H88.421L92.4264 13.4353L96.3742 7.71284H102.496L95.5158 17.2862L102.954 27.5391H96.4314Z" fill="white"/>
<path d="M10.5137 31.832H19.0601V23.3743H10.5137V31.832Z" fill="white"/>
<path d="M26.6426 11.683H10.5137V20.1436H26.6426H29.5757V11.6858H26.6426V11.683Z" fill="white"/>
<path d="M10.5137 0.000284195V8.45801H36.9881V0.000284195H10.5137Z" fill="white"/>
<path d="M0 20.1436H8.54354V11.683H0V20.1436Z" fill="white"/>
</g>
<defs>
<clipPath id="clip0_15176_54536">
<rect width="102.953" height="31.8318" fill="white"/>
</clipPath>
</defs>
</svg>
