<svg width="121" height="31" viewBox="0 0 121 31" fill="none" xmlns="http://www.w3.org/2000/svg">
<path d="M44.8343 8.15365V16.6089H34.7508V9.24547C34.7508 8.64031 34.1615 8.14941 33.4351 8.14941H30.0215V28.3905C30.0215 28.9956 30.6107 29.4865 31.3372 29.4865H34.7508V20.0452H44.8394V28.3863C44.8292 28.9914 45.4083 29.4908 46.1347 29.4992H46.155H49.5687V9.24547C49.5687 8.64031 48.9794 8.14941 48.253 8.14941H44.8343V8.15365ZM64.859 13.4435V23.5873C64.8691 24.5099 64.29 25.3689 63.335 25.8429C60.663 27.1294 57.8945 25.517 57.8945 23.4011V14.5395C57.8945 13.9344 57.3053 13.4435 56.5788 13.4435H53.1652V23.765C53.1754 27.0913 56.4061 29.7828 60.3989 29.7997H62.3394C66.3372 29.7912 69.5781 27.0913 69.5883 23.7608V14.5395C69.5883 13.9344 68.999 13.4435 68.2726 13.4435H64.859Z" fill="white"/>
<path d="M116.509 29.4988H119.923V15.1273C119.923 14.5221 119.333 14.0312 118.607 14.0312H115.193V28.3942C115.188 28.9994 115.772 29.4945 116.499 29.4988H116.509Z" fill="white"/>
<path d="M119.992 11.1548C120.549 10.0341 119.91 8.74928 118.565 8.28506C117.22 7.82085 115.678 8.35303 115.12 9.47373C114.563 10.5944 115.202 11.8793 116.547 12.3435C117.892 12.8077 119.435 12.2755 119.992 11.1548Z" fill="white"/>
<path d="M81.7897 13.4355C76.8369 13.4355 72.7832 16.3852 72.7832 20.5112V22.7414C72.7832 26.8675 76.8369 29.8002 81.7897 29.8002C86.7426 29.8002 90.7963 26.8675 90.7963 22.7414V20.5112C90.8014 16.3852 86.7477 13.4355 81.7897 13.4355V13.4355ZM86.0466 23.0081C86.0466 24.9589 84.1315 26.2581 81.7847 26.2581C79.4378 26.2581 77.5278 24.9589 77.5278 23.0081V20.2235C77.5278 18.2726 79.4429 16.9734 81.7847 16.9734C84.1265 16.9734 86.0466 18.2726 86.0466 20.2235V23.0081Z" fill="white"/>
<path d="M103.004 13.4354C101.52 13.4269 100.058 13.7062 98.7215 14.2436V9.26696C98.7215 8.6618 98.1322 8.1709 97.4058 8.1709H93.9922V22.7413C93.9922 26.8673 98.0459 29.8 102.999 29.8C107.952 29.8 112.005 26.8673 112.005 22.7413V20.5111C112.01 16.385 107.967 13.4354 103.004 13.4354V13.4354ZM107.266 23.0079C107.266 24.9588 105.351 26.2579 103.004 26.2579C100.662 26.2579 98.7469 24.9588 98.7469 23.0079V20.2233C98.7469 18.2724 100.662 16.9732 103.004 16.9732C105.346 16.9732 107.266 18.2724 107.266 20.2233V23.0079Z" fill="white"/>
<path d="M15.7308 9.90094C15.7308 5.60135 13.2163 1.89846 11.3012 0.696605C11.3012 0.696605 11.1539 0.628895 11.1691 0.802402C11.0117 9.10958 5.9166 11.3609 3.11761 14.391C-3.34394 21.3905 2.66043 29.0629 8.7867 30.4806C12.2003 31.2762 7.99425 29.0756 7.45071 24.4332C6.78525 18.8302 15.7308 14.5475 15.7308 9.90094V9.90094Z" fill="white"/>
<path d="M18.6657 12.731C18.625 12.7099 18.5691 12.693 18.5336 12.748C18.4269 13.7932 17.1468 16.0277 15.5212 18.0844C10.0096 25.05 13.149 28.4101 14.9167 30.2172C15.9429 31.2624 14.9167 30.2172 17.477 29.1465C20.6417 27.5468 22.694 24.7792 22.9987 21.7069C23.5016 16.7556 19.9356 13.6367 18.6657 12.731V12.731Z" fill="white"/>
</svg>
