<svg width="91" height="27" viewBox="0 0 91 27" fill="none" xmlns="http://www.w3.org/2000/svg">
<path d="M26.4 0H0.599921C0.44081 0 0.288208 0.0631633 0.175745 0.175747C0.0631615 0.28821 0 0.440811 0 0.600042V26.4001C0 26.5592 0.0631615 26.7118 0.175745 26.8243C0.288208 26.9368 0.44081 27 0.599921 27H26.4C26.5592 27 26.7118 26.9368 26.8243 26.8243C26.9368 26.7118 27 26.5592 27 26.4001V0.600042C27 0.440811 26.9368 0.28821 26.8243 0.175747C26.7118 0.0631633 26.5592 0 26.4 0ZM18 17.4C18 17.5591 17.9368 17.7118 17.8242 17.8243C17.7117 17.9368 17.5591 18.0001 17.4 18.0001H9.59996C9.44085 18.0001 9.28825 17.9368 9.17566 17.8243C9.0632 17.7118 9.00004 17.5591 9.00004 17.4V9.59996C9.00004 9.44085 9.0632 9.28825 9.17566 9.17578C9.28825 9.0632 9.44085 9.00004 9.59996 9.00004H17.4C17.5591 9.00004 17.7117 9.0632 17.8242 9.17578C17.9368 9.28825 18 9.44085 18 9.59996V17.4Z" fill="white"/>
<path d="M81.4 9H73.6C73.2687 9 73 9.26856 73 9.59992V17.4C73 17.7313 73.2687 18 73.6 18H81.4C81.7313 18 82 17.7313 82 17.4V9.59992C82 9.26856 81.7313 9 81.4 9Z" fill="white"/>
<path d="M72.4 0H64.6C64.2687 0 64 0.268559 64 0.60004V8.39996C64 8.73132 64.2687 9 64.6 9H72.4C72.7314 9 73 8.73132 73 8.39996V0.60004C73 0.268559 72.7314 0 72.4 0Z" fill="white"/>
<path d="M90.4001 0H82.6C82.2687 0 82 0.268559 82 0.60004V8.39996C82 8.73132 82.2687 9 82.6 9H90.4001C90.7314 9 91 8.73132 91 8.39996V0.60004C91 0.268559 90.7314 0 90.4001 0Z" fill="white"/>
<path d="M72.4 18H64.6C64.2687 18 64 18.2686 64 18.5999V26.4C64 26.7313 64.2687 27 64.6 27H72.4C72.7314 27 73 26.7313 73 26.4V18.5999C73 18.2686 72.7314 18 72.4 18Z" fill="white"/>
<path d="M90.4001 18H82.6C82.2687 18 82 18.2686 82 18.5999V26.4C82 26.7313 82.2687 27 82.6 27H90.4001C90.7314 27 91 26.7313 91 26.4V18.5999C91 18.2686 90.7314 18 90.4001 18Z" fill="white"/>
<path d="M58.4 0H50.6C50.2687 0 50 0.268559 50 0.60004V8.39996C50 8.73132 50.2687 9 50.6 9H58.4C58.7313 9 59 8.73132 59 8.39996V0.60004C59 0.268559 58.7313 0 58.4 0Z" fill="white"/>
<path d="M58.4 18H50.6C50.2687 18 50 18.2686 50 18.5999V26.4C50 26.7313 50.2687 27 50.6 27H58.4C58.7313 27 59 26.7313 59 26.4V18.5999C59 18.2686 58.7313 18 58.4 18Z" fill="white"/>
<path d="M50 9.59801C50 9.43882 49.9367 9.28614 49.8243 9.17362C49.7117 9.06098 49.5591 8.99779 49.4 8.99779H41V0.600343C41 0.441031 40.9367 0.288354 40.8243 0.175835C40.7117 0.0631949 40.5591 0 40.4 0H32.6C32.4408 0 32.2882 0.0631949 32.1757 0.175835C32.0632 0.288354 32 0.441031 32 0.600343V26.3998C32 26.559 32.0632 26.7116 32.1757 26.8242C32.2882 26.9368 32.4408 27 32.6 27H40.4C40.5591 27 40.7117 26.9368 40.8243 26.8242C40.9367 26.7116 41 26.559 41 26.3998V18.0023H49.4C49.5591 18.0023 49.7117 17.939 49.8243 17.8265C49.9367 17.7139 50 17.5612 50 17.402V9.59801Z" fill="white"/>
</svg>
