<svg width="59" height="39" viewBox="0 0 59 39" fill="none" xmlns="http://www.w3.org/2000/svg">
<path d="M54.984 38.8535H4.71289C2.50375 38.8535 0.712891 37.0627 0.712891 34.8535V4.06298C0.712891 1.85385 2.50375 0.0629845 4.71289 0.0629845H54.984C57.1931 0.0629845 58.984 1.85384 58.984 4.06298V34.8535C58.984 37.0627 57.1931 38.8535 54.984 38.8535Z" fill="white"/>
<mask id="mask0_15590_74995" style="mask-type:alpha" maskUnits="userSpaceOnUse" x="0" y="0" width="59" height="39">
<path d="M54.984 38.8535H4.71289C2.50375 38.8535 0.712891 37.0627 0.712891 34.8535V4.06298C0.712891 1.85385 2.50375 0.0629845 4.71289 0.0629845H54.984C57.1931 0.0629845 58.984 1.85384 58.984 4.06298V34.8535C58.984 37.0627 57.1931 38.8535 54.984 38.8535Z" fill="white"/>
</mask>
<g mask="url(#mask0_15590_74995)">
<path d="M58.9849 23.3327H33.3275V38.8496H26.3244V23.3327H0.734375V15.576H26.3244V0.0627747H33.3275V15.576H58.9849V23.3327Z" fill="#CE1124"/>
<path d="M0.710938 34.335V25.89H13.4225L0.710938 34.335Z" fill="#00247D"/>
<path d="M7.72358 38.8574L7.53906 38.8463L24.0172 27.8368V38.8574H7.72358Z" fill="#00247D"/>
<path d="M20.2703 25.9455L0.710938 38.8535V35.8116L15.6104 25.9455H20.2703Z" fill="#CE1124"/>
<path d="M39.4375 12.9746L58.9969 0.0666409V3.1086L44.0974 12.9746H39.4375Z" fill="#CE1124"/>
<path d="M0.710938 4.51892V12.9639H13.4225L0.710938 4.51892Z" fill="#00247D"/>
<path d="M7.72358 -0.000117302L7.53906 0.0109863L24.0172 11.0205V-0.000117302H7.72358Z" fill="#00247D"/>
<path d="M20.1717 12.9785L0.726562 0.0742426L5.27226 0.066843L24.0379 12.453V12.9785H20.1717Z" fill="#CE1124"/>
<path d="M58.9977 34.3389V25.8939H46.2891L58.9977 34.3389Z" fill="#00247D"/>
<path d="M51.985 38.8574L52.1725 38.8463L35.6914 27.8368V38.8574H51.985Z" fill="#00247D"/>
<path d="M58.9793 38.8389H54.6035L35.709 26.3676V25.9309H39.707L58.9793 38.8389Z" fill="#CE1124"/>
</g>
<path d="M58.9996 4.52184V12.9668H46.291L58.9996 4.52184Z" fill="#00247D"/>
<path d="M51.987 0.00378704L52.1744 0.0148916L35.6934 11.0244V0.00378704H51.987Z" fill="#00247D"/>
</svg>
