<svg width="24" height="24" viewBox="0 0 24 24" fill="none" xmlns="http://www.w3.org/2000/svg">
<path d="M11.7079 8.05556C9.55751 8.05556 7.80263 9.81044 7.80263 11.9608C7.80263 14.1112 9.55751 15.8661 11.7079 15.8661C13.8583 15.8661 15.6132 14.1112 15.6132 11.9608C15.6132 9.81044 13.8583 8.05556 11.7079 8.05556ZM23.4208 11.9608C23.4208 10.3436 23.4354 8.74111 23.3446 7.12685C23.2538 5.25185 22.8261 3.58779 21.455 2.21669C20.0809 0.842668 18.4198 0.417864 16.5448 0.327043C14.9276 0.236223 13.3251 0.250871 11.7108 0.250871C10.0936 0.250871 8.49111 0.236223 6.87685 0.327043C5.00185 0.417864 3.33779 0.845598 1.96669 2.21669C0.592668 3.59072 0.167864 5.25185 0.0770432 7.12685C-0.0137771 8.74404 0.000871418 10.3466 0.000871418 11.9608C0.000871418 13.5751 -0.0137771 15.1806 0.0770432 16.7948C0.167864 18.6698 0.595598 20.3339 1.96669 21.705C3.34071 23.079 5.00185 23.5038 6.87685 23.5946C8.49403 23.6854 10.0966 23.6708 11.7108 23.6708C13.328 23.6708 14.9306 23.6854 16.5448 23.5946C18.4198 23.5038 20.0839 23.0761 21.455 21.705C22.829 20.3309 23.2538 18.6698 23.3446 16.7948C23.4384 15.1806 23.4208 13.578 23.4208 11.9608ZM11.7079 17.9696C8.38271 17.9696 5.69911 15.286 5.69911 11.9608C5.69911 8.63564 8.38271 5.95204 11.7079 5.95204C15.0331 5.95204 17.7167 8.63564 17.7167 11.9608C17.7167 15.286 15.0331 17.9696 11.7079 17.9696ZM17.9628 7.10927C17.1864 7.10927 16.5595 6.48232 16.5595 5.70595C16.5595 4.92958 17.1864 4.30263 17.9628 4.30263C18.7392 4.30263 19.3661 4.92958 19.3661 5.70595C19.3663 5.8903 19.3302 6.07289 19.2598 6.24325C19.1893 6.41361 19.086 6.56841 18.9556 6.69876C18.8252 6.82912 18.6704 6.93248 18.5001 7.00292C18.3297 7.07336 18.1471 7.1095 17.9628 7.10927Z" fill="#444444"/>
</svg>
