<svg width="28" height="28" viewBox="0 0 28 28" fill="none" xmlns="http://www.w3.org/2000/svg">
<path fill-rule="evenodd" clip-rule="evenodd" d="M0.5 2.2975C0.5 1.68817 0.742058 1.10379 1.17292 0.672925C1.60379 0.24206 2.18817 3.06289e-06 2.7975 3.06289e-06H25.7C26.002 -0.000490127 26.3011 0.0585817 26.5802 0.173836C26.8593 0.289091 27.1129 0.458265 27.3266 0.671673C27.5402 0.885081 27.7097 1.13853 27.8252 1.41752C27.9408 1.6965 28.0002 1.99553 28 2.2975V25.2C28.0003 25.502 27.9411 25.8012 27.8257 26.0803C27.7103 26.3594 27.541 26.613 27.3275 26.8266C27.114 27.0403 26.8605 27.2097 26.5814 27.3252C26.3024 27.4408 26.0033 27.5002 25.7012 27.5H2.7975C2.49568 27.5 2.19682 27.4405 1.918 27.325C1.63917 27.2095 1.38584 27.0401 1.17248 26.8266C0.959121 26.6132 0.789915 26.3597 0.674528 26.0808C0.559142 25.802 0.499836 25.5031 0.5 25.2012V2.2975ZM11.385 10.485H15.1087V12.355C15.6462 11.28 17.0212 10.3125 19.0875 10.3125C23.0487 10.3125 23.9875 12.4538 23.9875 16.3825V23.66H19.9787V17.2775C19.9787 15.04 19.4412 13.7775 18.0762 13.7775C16.1825 13.7775 15.395 15.1388 15.395 17.2775V23.66H11.385V10.485ZM4.51 23.4888H8.52V10.3125H4.51V23.4875V23.4888ZM9.09375 6.015C9.10131 6.35834 9.04021 6.69974 8.91405 7.01915C8.78788 7.33855 8.59919 7.62955 8.35904 7.87504C8.11889 8.12054 7.83212 8.31559 7.51557 8.44876C7.19901 8.58193 6.85905 8.65052 6.51562 8.65052C6.1722 8.65052 5.83224 8.58193 5.51568 8.44876C5.19913 8.31559 4.91236 8.12054 4.67221 7.87504C4.43206 7.62955 4.24337 7.33855 4.1172 7.01915C3.99103 6.69974 3.92994 6.35834 3.9375 6.015C3.95234 5.34107 4.23048 4.69974 4.71236 4.22836C5.19423 3.75698 5.84153 3.49302 6.51562 3.49302C7.18972 3.49302 7.83702 3.75698 8.31889 4.22836C8.80077 4.69974 9.07891 5.34107 9.09375 6.015Z" fill="#444444"/>
</svg>
