<svg width="66" height="44" viewBox="0 0 66 44" fill="none" xmlns="http://www.w3.org/2000/svg">
<path d="M43.0316 43.9998C37.1981 43.9935 31.6054 41.6734 27.4806 37.5485C23.3557 33.4237 21.0356 27.831 21.0293 21.9975V0.949807C21.0293 0.697902 21.1294 0.456315 21.3075 0.278192C21.4856 0.100069 21.7272 0 21.9791 0C27.815 0.0012534 33.4119 2.31849 37.5407 6.44287C41.6696 10.5673 43.9928 16.1616 44.0004 21.9975V43.031C44.003 43.1589 43.9797 43.2861 43.9319 43.4048C43.8841 43.5235 43.8129 43.6313 43.7224 43.7218C43.6319 43.8123 43.5241 43.8836 43.4054 43.9313C43.2866 43.9791 43.1595 44.0024 43.0316 43.9998ZM22.9717 1.9661V21.9975C22.9775 27.1475 24.9614 32.0984 28.5135 35.8273C32.0656 39.5561 36.9144 41.778 42.058 42.0337V21.9975C42.0521 16.8481 40.068 11.8977 36.5158 8.16959C32.9636 4.44148 28.1148 2.22065 22.9717 1.9661Z" fill="#0F20E8"/>
<path d="M21.9975 22.9711H0.949807C0.699799 22.9651 0.461698 22.8631 0.284864 22.6862C0.10803 22.5094 0.0060269 22.2713 0 22.0213C-3.39291e-06 16.185 2.31683 10.5874 6.44148 6.45827C10.5661 2.32916 16.1612 0.00629318 21.9975 0C22.2475 0.00602689 22.4856 0.10803 22.6625 0.284864C22.8393 0.461698 22.9413 0.699799 22.9473 0.949807V21.9975C22.9474 22.2517 22.8481 22.4958 22.6706 22.6777C22.4932 22.8596 22.2516 22.9649 21.9975 22.9711ZM1.9661 21.0287H21.0287V1.9661C16.0522 2.21114 11.3446 4.29818 7.8214 7.8214C4.29818 11.3446 2.21114 16.0522 1.9661 21.0287Z" fill="#0F20E8"/>
<path d="M43.0318 43.999C42.7818 43.9929 42.5437 43.8909 42.3669 43.7141C42.1901 43.5373 42.0881 43.2992 42.082 43.0491V21.9967C42.0881 21.7467 42.1901 21.5086 42.3669 21.3317C42.5437 21.1549 42.7818 21.0529 43.0318 21.0469H64.0606C64.3125 21.0469 64.5541 21.1469 64.7322 21.3251C64.9103 21.5032 65.0104 21.7448 65.0104 21.9967C65.0041 27.826 62.6873 33.4151 58.5675 37.5393C54.4478 41.6635 48.8612 43.9864 43.0318 43.999ZM43.9816 22.9702V42.0329C48.9617 41.7914 53.6739 39.7062 57.2016 36.1829C60.7293 32.6595 62.8204 27.95 63.068 22.9702H43.9816Z" fill="#0F20E8"/>
</svg>
