<svg width="163" height="68" viewBox="0 0 163 68" fill="none" xmlns="http://www.w3.org/2000/svg">
<path d="M90.617 39.3269C79.7782 39.3269 70.9531 30.5154 70.9531 19.6631V0.877635C70.9531 0.40462 71.3451 0.0126953 71.8181 0.0126953C82.6569 0.0126953 91.4819 8.82427 91.4819 19.6766V38.462C91.4819 38.935 91.09 39.3269 90.617 39.3269ZM72.6965 1.7696V19.6766C72.6965 29.272 80.2648 37.124 89.7521 37.5835V19.6766C89.7521 10.0811 82.1838 2.2291 72.6965 1.7696Z" fill="#0F20E8"/>
<path d="M71.83 20.5288H53.0446C52.5716 20.5288 52.1797 20.1369 52.1797 19.6639C52.1797 8.8251 60.9912 0 71.8435 0C72.3166 0 72.7085 0.391925 72.7085 0.864939V19.6504C72.7085 20.1234 72.3166 20.5153 71.8435 20.5153L71.83 20.5288ZM53.9231 18.7989H70.9651V1.75691C61.7751 2.2029 54.369 9.59543 53.9231 18.7989Z" fill="#0F20E8"/>
<path d="M90.6169 39.3278C90.1439 39.3278 89.752 38.9359 89.752 38.4629V19.6774C89.752 19.2044 90.1439 18.8125 90.6169 18.8125H109.402C109.875 18.8125 110.267 19.2044 110.267 19.6774C110.267 30.5162 101.456 39.3413 90.6034 39.3413L90.6169 39.3278ZM91.4818 20.5424V37.5844C100.672 37.1384 108.078 29.7459 108.524 20.5424H91.4818Z" fill="#0F20E8"/>
<path d="M8.10881 64.9513H7.40606C6.58167 64.9513 5.91942 64.6675 5.39235 64.0998C4.86527 63.5322 4.60851 62.8024 4.60851 61.924V54.9504H7.55471C7.83851 54.9504 8.05474 54.8693 8.21691 54.7071C8.37909 54.545 8.46021 54.3422 8.46021 54.099C8.46021 53.8422 8.37909 53.6259 8.21691 53.4638C8.05474 53.3016 7.825 53.2205 7.55471 53.2205H4.60851V49.1796C4.60851 48.8823 4.51392 48.639 4.32472 48.4498C4.13551 48.2606 3.89224 48.166 3.59491 48.166C3.29759 48.166 3.05433 48.2606 2.87864 48.4498C2.68943 48.639 2.60833 48.8823 2.60833 49.1796V53.2205H0.905502C0.621694 53.2205 0.405431 53.3016 0.243255 53.4638C0.0810782 53.6259 0 53.8422 0 54.099C0 54.3422 0.0810782 54.545 0.243255 54.7071C0.405431 54.8693 0.635209 54.9504 0.905502 54.9504H2.60833V61.924C2.60833 62.8835 2.81106 63.7349 3.2165 64.4918C3.62194 65.2486 4.18955 65.8432 4.93285 66.2892C5.66265 66.7352 6.48704 66.9514 7.41955 66.9514H7.97366C8.2845 66.9514 8.55481 66.8568 8.75753 66.6676C8.96025 66.4784 9.06835 66.2352 9.06835 65.9649C9.06835 65.6675 8.98725 65.4243 8.81156 65.2351C8.63587 65.0459 8.40612 64.9513 8.13583 64.9513H8.10881Z" fill="#0F20E8"/>
<path d="M35.1246 53.5045C34.0164 52.8693 32.7866 52.5449 31.4351 52.5449C30.0836 52.5449 28.8403 52.8693 27.7456 53.5045C26.6374 54.1397 25.7725 55.0181 25.1373 56.1263C24.5021 57.2345 24.1777 58.4779 24.1777 59.8293C24.1777 61.1808 24.4885 62.4242 25.1102 63.5189C25.7319 64.6271 26.5698 65.492 27.6375 66.1272C28.7052 66.7624 29.908 67.0732 31.2324 67.0732C32.3676 67.0732 33.3947 66.83 34.3408 66.3569C35.2868 65.8839 36.0571 65.2217 36.6653 64.3838V65.9515C36.6653 66.2488 36.7599 66.4921 36.9491 66.6678C37.1383 66.857 37.3816 66.9381 37.6789 66.9381C37.9762 66.9381 38.2195 66.8435 38.4087 66.6543C38.5979 66.4651 38.6925 66.2218 38.6925 65.9515V59.8158C38.6925 58.4644 38.3682 57.221 37.733 56.1128C37.0978 55.0046 36.2328 54.1261 35.1246 53.491V53.5045ZM36.0166 62.6134C35.5571 63.4378 34.9219 64.0865 34.1245 64.5595C33.3272 65.0325 32.4217 65.2622 31.4351 65.2622C30.4485 65.2622 29.5431 65.0325 28.7322 64.5595C27.9213 64.0865 27.2861 63.4378 26.8266 62.6134C26.3671 61.789 26.1373 60.8565 26.1373 59.8293C26.1373 58.8022 26.3671 57.8697 26.8266 57.0453C27.2861 56.2209 27.9213 55.5722 28.7322 55.0857C29.5431 54.6127 30.4485 54.3694 31.4351 54.3694C32.4217 54.3694 33.3272 54.6127 34.1245 55.0857C34.9219 55.5587 35.5571 56.2209 36.0166 57.0453C36.4761 57.8697 36.7058 58.8022 36.7058 59.8293C36.7058 60.8565 36.4761 61.789 36.0166 62.6134Z" fill="#0F20E8"/>
<path d="M56.3432 49.1533C56.3432 48.8559 56.2486 48.6127 56.0729 48.4235C55.8837 48.2343 55.654 48.1396 55.3566 48.1396C55.0593 48.1396 54.8161 48.2343 54.6269 48.4235C54.4377 48.6127 54.343 48.8559 54.343 49.1533V55.2349C53.7349 54.3969 52.9645 53.7482 52.0185 53.2617C51.0725 52.7887 50.0454 52.5454 48.9101 52.5454C47.5857 52.5454 46.3964 52.8698 45.3152 53.505C44.2476 54.1402 43.3961 55.0051 42.788 56.1133C42.1663 57.2215 41.8555 58.4514 41.8555 59.8028C41.8555 61.1543 42.1663 62.3976 42.815 63.5058C43.4502 64.614 44.3152 65.4925 45.4234 66.1277C46.5316 66.7629 47.7614 67.0737 49.1129 67.0737C50.4643 67.0737 51.7077 66.7629 52.8024 66.1277C53.9106 65.4925 54.7755 64.614 55.4107 63.5058C56.0459 62.3976 56.3702 61.1543 56.3702 59.8028V53.6672C56.3702 53.559 56.3702 53.4779 56.3432 53.4374V49.1533ZM53.6943 62.5868C53.2348 63.4112 52.5996 64.06 51.8023 64.5465C51.0049 65.0195 50.0994 65.2628 49.1129 65.2628C48.1263 65.2628 47.2208 65.0195 46.4099 64.5465C45.599 64.0735 44.9638 63.4112 44.5043 62.5868C44.0448 61.7624 43.8151 60.8299 43.8151 59.8028C43.8151 58.7757 44.0448 57.8432 44.5043 57.0188C44.9638 56.1944 45.599 55.5457 46.4099 55.0727C47.2208 54.5997 48.1263 54.3699 49.1129 54.3699C50.4913 54.3699 51.6536 54.8024 52.6267 55.6808C53.5862 56.5458 54.1673 57.6675 54.343 59.019C54.343 59.073 54.3431 59.1136 54.3701 59.1541C54.3836 59.2893 54.3971 59.5055 54.3971 59.8028C54.3971 60.8299 54.1673 61.7624 53.7078 62.5868H53.6943Z" fill="#0F20E8"/>
<path d="M70.5739 53.4504C69.5873 52.8558 68.4386 52.5449 67.1547 52.5449C65.8708 52.5449 64.6545 52.8558 63.6138 53.4774C62.5732 54.0991 61.7623 54.9505 61.1812 56.0587C60.6 57.167 60.3027 58.4238 60.3027 59.8293C60.3027 61.2349 60.6136 62.4647 61.2353 63.5729C61.8569 64.6811 62.7083 65.5461 63.803 66.1542C64.8977 66.7759 66.1411 67.0867 67.5331 67.0867C68.3575 67.0867 69.2089 66.9246 70.0874 66.6002C70.9794 66.2758 71.7092 65.8704 72.2768 65.3839C72.466 65.2082 72.5606 65.0055 72.5606 64.7892C72.5606 64.5325 72.4524 64.2892 72.2227 64.0865C72.0335 63.9513 71.8443 63.8838 71.6416 63.8838C71.3983 63.8838 71.1685 63.9648 70.9388 64.1405C70.5604 64.4649 70.0469 64.7487 69.4117 64.9649C68.7765 65.1812 68.1412 65.2893 67.5196 65.2893C66.06 65.2893 64.8437 64.8433 63.8706 63.9513C62.8976 63.0594 62.3434 61.9106 62.1948 60.478H72.7498C73.0336 60.478 73.2498 60.397 73.4255 60.2348C73.6012 60.0726 73.6823 59.8429 73.6823 59.5726C73.6823 58.2211 73.412 57.0048 72.8579 55.9371C72.3038 54.8695 71.5335 54.0451 70.5469 53.4504H70.5739ZM62.2759 58.8157C62.4651 57.4778 62.9922 56.3966 63.8706 55.5722C64.7356 54.7478 65.8438 54.3424 67.1547 54.3424C68.4656 54.3424 69.5333 54.7478 70.3712 55.5722C71.2091 56.3966 71.6956 57.4643 71.8308 58.8157H62.2759Z" fill="#0F20E8"/>
<path d="M95.4155 64.9781H94.7668C94.2938 64.9781 93.9153 64.7484 93.6045 64.2754C93.2937 63.8024 93.145 63.1942 93.145 62.4509V49.1389C93.145 48.8416 93.0504 48.5983 92.8747 48.4226C92.6855 48.247 92.4557 48.1523 92.1584 48.1523C91.8746 48.1523 91.6449 48.247 91.4557 48.4226C91.2665 48.6118 91.1719 48.8416 91.1719 49.1389V62.4509C91.1719 63.7753 91.5097 64.8565 92.1719 65.7079C92.8477 66.5458 93.7127 66.9783 94.7668 66.9783H95.1047C95.4561 66.9783 95.7399 66.8837 95.9561 66.708C96.1724 66.5188 96.2805 66.2891 96.2805 65.9917C96.2805 65.6944 96.1993 65.4512 96.0507 65.2755C95.8885 65.0863 95.6858 65.0052 95.429 65.0052L95.4155 64.9781Z" fill="#0F20E8"/>
<path d="M108.781 53.5045C107.673 52.8693 106.443 52.5449 105.091 52.5449C103.74 52.5449 102.497 52.8693 101.402 53.5045C100.294 54.1397 99.4287 55.0181 98.7936 56.1263C98.1584 57.2345 97.834 58.4779 97.834 59.8293C97.834 61.1808 98.1448 62.4242 98.7665 63.5189C99.3882 64.6271 100.226 65.492 101.294 66.1272C102.361 66.7624 103.564 67.0732 104.889 67.0732C106.024 67.0732 107.051 66.83 107.997 66.3569C108.943 65.8839 109.713 65.2217 110.322 64.3838V65.9515C110.322 66.2488 110.416 66.4921 110.605 66.6678C110.795 66.857 111.038 66.9381 111.335 66.9381C111.632 66.9381 111.876 66.8435 112.065 66.6543C112.254 66.4651 112.349 66.2218 112.349 65.9515V59.8158C112.349 58.4644 112.038 57.221 111.389 56.1128C110.754 55.0046 109.889 54.1261 108.781 53.491V53.5045ZM109.673 62.6134C109.213 63.4378 108.578 64.0865 107.781 64.5595C106.983 65.0325 106.078 65.2622 105.091 65.2622C104.105 65.2622 103.199 65.0325 102.388 64.5595C101.578 64.0865 100.942 63.4378 100.483 62.6134C100.023 61.789 99.7936 60.8565 99.7936 59.8293C99.7936 58.8022 100.023 57.8697 100.483 57.0453C100.942 56.2209 101.578 55.5722 102.388 55.0857C103.199 54.6127 104.105 54.3694 105.091 54.3694C106.078 54.3694 106.983 54.6127 107.781 55.0857C108.578 55.5587 109.213 56.2209 109.673 57.0453C110.132 57.8697 110.362 58.8022 110.362 59.8293C110.362 60.8565 110.132 61.789 109.673 62.6134Z" fill="#0F20E8"/>
<path d="M147.66 49.1533C147.66 48.8559 147.565 48.6127 147.389 48.4235C147.2 48.2343 146.97 48.1396 146.673 48.1396C146.376 48.1396 146.132 48.2343 145.943 48.4235C145.754 48.6127 145.659 48.8559 145.659 49.1533V55.2349C145.051 54.3969 144.281 53.7482 143.335 53.2617C142.389 52.7752 141.362 52.5454 140.227 52.5454C138.902 52.5454 137.713 52.8698 136.632 53.505C135.564 54.1402 134.713 55.0051 134.104 56.1133C133.483 57.2215 133.172 58.4514 133.172 59.8028C133.172 61.1543 133.483 62.3976 134.131 63.5058C134.767 64.614 135.632 65.4925 136.74 66.1277C137.848 66.7629 139.078 67.0737 140.429 67.0737C141.781 67.0737 143.024 66.7629 144.119 66.1277C145.213 65.4925 146.092 64.614 146.727 63.5058C147.362 62.3976 147.687 61.1543 147.687 59.8028V53.6672C147.687 53.559 147.687 53.4779 147.66 53.4374V49.1533ZM145.011 62.5868C144.551 63.4112 143.916 64.06 143.119 64.5465C142.321 65.0195 141.416 65.2628 140.429 65.2628C139.443 65.2628 138.537 65.0195 137.726 64.5465C136.915 64.0735 136.28 63.4112 135.821 62.5868C135.361 61.7624 135.132 60.8299 135.132 59.8028C135.132 58.7757 135.361 57.8432 135.821 57.0188C136.28 56.1944 136.915 55.5457 137.726 55.0727C138.537 54.5997 139.443 54.3699 140.429 54.3699C141.808 54.3699 142.97 54.8024 143.943 55.6808C144.903 56.5458 145.484 57.6675 145.659 59.019C145.659 59.073 145.659 59.1136 145.686 59.1541C145.7 59.2893 145.713 59.5055 145.713 59.8028C145.713 60.8299 145.484 61.7624 145.024 62.5868H145.011Z" fill="#0F20E8"/>
<path d="M161.784 60.3421C160.987 59.6393 159.649 59.1258 157.784 58.8149C156.405 58.5852 155.446 58.2878 154.919 57.9094C154.378 57.531 154.108 57.031 154.108 56.4093C154.108 55.8147 154.392 55.3281 154.973 54.9362C155.554 54.5443 156.311 54.3551 157.27 54.3551C158.743 54.3551 159.919 54.8416 160.771 55.8147C161.014 56.0714 161.325 56.2066 161.69 56.2066C161.892 56.2066 162.068 56.166 162.19 56.0714C162.473 55.8957 162.609 55.666 162.609 55.3687C162.609 55.193 162.541 54.9903 162.406 54.774C161.879 54.0713 161.19 53.5307 160.338 53.1387C159.487 52.7468 158.487 52.5576 157.338 52.5576C155.865 52.5576 154.621 52.909 153.648 53.5983C152.662 54.301 152.175 55.2741 152.175 56.5445C152.175 57.5175 152.594 58.3554 153.446 59.0312C154.284 59.7204 155.567 60.2069 157.27 60.4772C158.595 60.6799 159.554 61.0043 160.162 61.4233C160.771 61.8422 161.081 62.3693 161.081 62.991C161.068 63.6667 160.757 64.2208 160.135 64.6398C159.527 65.0587 158.608 65.2614 157.392 65.2614C156.554 65.2614 155.797 65.1263 155.108 64.8695C154.419 64.6127 153.865 64.2343 153.446 63.7478C153.243 63.5045 152.986 63.3829 152.689 63.3829C152.459 63.3829 152.243 63.464 152.04 63.6126C151.756 63.8424 151.621 64.0992 151.621 64.3965C151.621 64.5857 151.702 64.7884 151.878 64.9911C152.486 65.6534 153.283 66.1669 154.284 66.5318C155.27 66.8967 156.311 67.0859 157.392 67.0859C158.473 67.0859 159.433 66.9102 160.284 66.5588C161.135 66.2075 161.798 65.7209 162.284 65.0992C162.757 64.4776 163.001 63.7613 163.001 62.9639C163.001 61.9233 162.595 61.0448 161.798 60.3421H161.784Z" fill="#0F20E8"/>
<path d="M128.47 66.9658C127.915 66.9658 127.469 66.5198 127.469 65.9657V59.1137C127.469 56.573 125.402 54.5187 122.874 54.5187C120.347 54.5187 118.279 56.5865 118.279 59.1137V65.9657C118.279 66.5198 117.833 66.9658 117.279 66.9658C116.725 66.9658 116.279 66.5198 116.279 65.9657V59.1137C116.279 55.4783 119.239 52.5186 122.874 52.5186C126.51 52.5186 129.47 55.4783 129.47 59.1137V65.9657C129.47 66.5198 129.024 66.9658 128.47 66.9658Z" fill="#0F20E8"/>
<path d="M87.061 53.424C87.061 53.424 86.9934 53.37 86.9529 53.343C86.9394 53.343 86.9259 53.3294 86.8988 53.3159C85.9663 52.8159 84.9122 52.5186 83.7905 52.5186C80.155 52.5186 77.1953 55.4783 77.1953 59.1137V65.9657C77.1953 66.5198 77.6413 66.9658 78.1954 66.9658C78.7495 66.9658 79.1955 66.5198 79.1955 65.9657V59.1137C79.1955 56.573 81.2632 54.5187 83.7905 54.5187C84.6284 54.5187 85.3987 54.762 86.0744 55.1404C86.2095 55.208 86.3582 55.2485 86.5339 55.2485C87.088 55.2485 87.534 54.8025 87.534 54.2484C87.534 53.8971 87.3448 53.5997 87.061 53.424Z" fill="#0F20E8"/>
<path d="M22.1763 53.424C22.1763 53.424 22.1087 53.37 22.0681 53.343C22.0546 53.343 22.0411 53.3294 22.0141 53.3159C21.0816 52.8159 20.0274 52.5186 18.9057 52.5186C15.2702 52.5186 12.3105 55.4783 12.3105 59.1137V65.9657C12.3105 66.5198 12.7565 66.9658 13.3106 66.9658C13.8647 66.9658 14.3107 66.5198 14.3107 65.9657V59.1137C14.3107 56.573 16.3784 54.5187 18.9057 54.5187C19.7436 54.5187 20.5139 54.762 21.1897 55.1404C21.3248 55.208 21.4735 55.2485 21.6492 55.2485C22.2033 55.2485 22.6493 54.8025 22.6493 54.2484C22.6493 53.8971 22.4601 53.5997 22.1763 53.424Z" fill="#0F20E8"/>
</svg>
