<svg width="50" height="46" viewBox="0 0 50 46" fill="none" xmlns="http://www.w3.org/2000/svg">
<path d="M1 13.2278L14.7292 20.8695V5.60106C8.63425 2.19975 1 6.45513 1 13.2428" fill="white"/>
<path d="M1 13.2278L14.7292 20.8695V5.60106C8.63425 2.19975 1 6.45513 1 13.2428V13.2278Z" stroke="#0B00DB" stroke-linecap="round" stroke-linejoin="round"/>
<path d="M14.7285 5.5855L21.5853 1.76465V17.0481L14.7285 20.8539V5.5855Z" fill="#BDBFF2"/>
<path d="M14.7285 5.5855L21.5853 1.76465V17.0481L14.7285 20.8539V5.5855Z" stroke="#0B00DB" stroke-linecap="round" stroke-linejoin="round"/>
<path d="M21.5857 1.76508L14.7289 5.58593C11.5726 3.83283 7.99643 4.11753 5.29102 5.75075C9.90888 1.91492 17.17 -0.242742 21.5857 1.76508Z" fill="white"/>
<path d="M21.5857 1.76508L14.7289 5.58593C11.5726 3.83283 7.99643 4.11753 5.29102 5.75075C9.90888 1.91492 17.17 -0.242742 21.5857 1.76508Z" stroke="#0B00DB" stroke-linecap="round" stroke-linejoin="round"/>
<path d="M14.7285 5.61523V20.8986C14.7285 30.3534 19.9683 39.0889 28.4577 43.8088V28.5403C28.4577 19.0856 23.2179 10.3501 14.7285 5.63022V5.61523Z" fill="white"/>
<path d="M14.7285 5.61523V20.8986C14.7285 30.3534 19.9683 39.0889 28.4577 43.8088V28.5403C28.4577 19.0856 23.2179 10.3501 14.7285 5.63022V5.61523Z" stroke="#0B00DB" stroke-linecap="round" stroke-linejoin="round"/>
<path d="M21.5853 1.76465L14.7129 5.61547C23.2023 10.3353 28.4421 19.0709 28.4421 28.5256V43.794L35.3145 39.9432V24.6748C35.3145 15.22 30.0747 6.48453 21.5853 1.76465Z" fill="#BDBFF2"/>
<path d="M21.5853 1.76465L14.7129 5.61547C23.2023 10.3353 28.4421 19.0709 28.4421 28.5256V43.794L35.3145 39.9432V24.6748C35.3145 15.22 30.0747 6.48453 21.5853 1.76465V1.76465Z" stroke="#0B00DB" stroke-linecap="round" stroke-linejoin="round"/>
<path d="M28.457 43.7938V28.5254L42.1862 36.1671C42.1862 42.9547 34.5675 47.1951 28.457 43.8088V43.7938Z" fill="white"/>
<path d="M28.457 43.7938V28.5254L42.1862 36.1671C42.1862 42.9547 34.5675 47.1951 28.457 43.8088V43.7938Z" stroke="#0B00DB" stroke-linecap="round" stroke-linejoin="round"/>
<path d="M42.1862 36.1526L49.0586 32.3468L35.3294 24.7051L28.457 28.5259L42.1862 36.1526Z" fill="white"/>
<path d="M42.1862 36.1526L49.0586 32.3468L35.3294 24.7051L28.457 28.5259L42.1862 36.1526Z" stroke="#0B00DB" stroke-linecap="round" stroke-linejoin="round"/>
<path d="M49.0594 32.3467L42.2026 36.1675C42.2026 39.6887 40.1502 42.5206 37.3359 43.9591C43.0888 42.0262 48.6707 37.0366 49.0594 32.3467Z" fill="#5C5FE6"/>
<path d="M49.0594 32.3467L42.2026 36.1675C42.2026 39.6887 40.1502 42.5206 37.3359 43.9591C43.0888 42.0262 48.6707 37.0366 49.0594 32.3467Z" stroke="#0B00DB" stroke-linecap="round" stroke-linejoin="round"/>
</svg>
