<svg width="30" height="26" viewBox="0 0 30 26" fill="none" xmlns="http://www.w3.org/2000/svg">
<path d="M27.4437 0.470726C27.4437 0.470726 30.2186 -0.611413 29.9865 2.01643C29.9101 3.09857 29.2165 6.88641 28.6765 10.9828L26.8265 23.1185C26.8265 23.1185 26.6722 24.8963 25.2844 25.2056C23.8972 25.5142 21.8158 24.1235 21.4301 23.8142C21.1215 23.5821 15.6487 20.1035 13.7216 18.4035C13.1816 17.9392 12.5644 17.0121 13.7987 15.9299L21.8923 8.19998C22.8173 7.27284 23.7422 5.10856 19.888 7.73641L9.09517 15.0792C9.09517 15.0792 7.8616 15.8528 5.54947 15.1571L0.538065 13.6107C0.538065 13.6107 -1.31193 12.4514 1.84877 11.2921C9.55803 7.65927 19.0416 3.94928 27.4437 0.470726Z" fill="#444444"/>
</svg>
