<svg width="59" height="39" viewBox="0 0 59 39" fill="none" xmlns="http://www.w3.org/2000/svg">
<path fill-rule="evenodd" clip-rule="evenodd" d="M0 34.8574C0 37.0666 1.79086 38.8574 4 38.8574H54.3086C56.5177 38.8574 58.3086 37.0666 58.3086 34.8574V4.00027C58.3086 1.79114 56.5177 0.000278473 54.3086 0.000278473H4C1.79086 0.000278473 0 1.79114 0 4.00028V34.8574ZM31.68 23.8631L33.76 21.0746L37.0514 22.1946L35.04 19.3374L37.12 16.5488L33.7829 17.5774L31.7714 14.7203L31.7257 18.1946L28.3886 19.2231L31.68 20.3431V23.8631ZM20.32 29.5546C22.0114 29.5546 23.5886 29.1431 24.9829 28.4117C25.2114 28.2974 25.44 28.1603 25.6457 28.0231C26.7657 27.3374 27.7486 26.446 28.5257 25.3946C28.5943 25.3031 28.4571 25.166 28.3657 25.2346C28.16 25.3946 27.9543 25.5317 27.7486 25.6917C27.5429 25.8288 27.3143 25.966 27.0857 26.0803C25.8971 26.6974 24.5486 27.0631 23.1086 27.0631C20.8686 27.0631 18.8343 26.1946 17.3486 24.8231C15.8629 23.4289 14.9486 21.5317 14.9486 19.4289C14.9486 17.326 15.8629 15.406 17.3486 14.0346C18.8343 12.6403 20.8686 11.7946 23.1086 11.7946C24.1143 11.7946 25.0743 11.9774 25.9657 12.2746C26.1029 12.3203 26.2629 12.3888 26.4 12.4346C27.1314 12.7317 27.7943 13.1431 28.3886 13.6003C28.48 13.6688 28.6171 13.5317 28.5486 13.4403C28.2971 13.0974 28 12.7546 27.7029 12.4346C27.4057 12.1146 27.0857 11.8174 26.7429 11.5431C24.9829 10.126 22.7657 9.28028 20.3429 9.28028C17.5314 9.28028 14.9943 10.4231 13.1429 12.2517C11.2914 14.0803 10.1486 16.6174 10.1486 19.406C10.1486 22.1946 11.2914 24.7317 13.1429 26.5603C14.9714 28.4117 17.5086 29.5546 20.32 29.5546Z" fill="#C20E1A"/>
</svg>
