<svg width="48" height="48" viewBox="0 0 48 48" fill="none" xmlns="http://www.w3.org/2000/svg">
<path fill-rule="evenodd" clip-rule="evenodd" d="M0 24C0 10.7494 10.7494 0 24 0H46.8706C47.4943 0 48 0.505655 48 1.12941C48 14.38 37.2506 25.1294 24 25.1294H1.12941C0.505655 25.1294 0 24.6238 0 24ZM2.28769 22.8706H24C35.6243 22.8706 45.1243 13.7374 45.7123 2.25882H24C12.3757 2.25882 2.87573 11.392 2.28769 22.8706Z" fill="#0F20E8"/>
<path d="M22.8711 23.9995C22.8711 23.3758 23.3767 22.8701 24.0005 22.8701H46.8711C47.4949 22.8701 48.0005 23.3758 48.0005 23.9995C48.0005 37.2501 37.2511 47.9995 24.0005 47.9995C23.3767 47.9995 22.8711 47.4939 22.8711 46.8701V37.3282H25.1299V45.7118C36.2345 45.143 45.1439 36.2335 45.7128 25.1289H25.1299V31.4913H22.8711V23.9995Z" fill="#0F20E8"/>
<path d="M0 23.9995C0 23.3758 0.505655 22.8701 1.12941 22.8701H24C24.6238 22.8701 25.1294 23.3758 25.1294 23.9995V31.2775H22.8706V25.1289H2.28769C2.85657 36.2335 11.766 45.143 22.8706 45.7118V37.5848H25.1294V46.8701C25.1294 47.4939 24.6238 47.9995 24 47.9995C10.7494 47.9995 0 37.2501 0 23.9995Z" fill="#0F20E8"/>
<path fill-rule="evenodd" clip-rule="evenodd" d="M28.88 11.8584C27.963 11.8584 27.2198 12.6017 27.2198 13.5186C27.2198 14.4356 27.9631 15.179 28.88 15.179C29.7968 15.179 30.5402 14.4356 30.5402 13.5186C30.5402 12.6017 29.7969 11.8584 28.88 11.8584ZM24.9609 13.5186C24.9609 11.3542 26.7155 9.59961 28.88 9.59961C31.0444 9.59961 32.7991 11.3542 32.7991 13.5186C32.7991 15.683 31.0444 17.4378 28.88 17.4378C26.7155 17.4378 24.9609 15.683 24.9609 13.5186Z" fill="#0F20E8"/>
<path fill-rule="evenodd" clip-rule="evenodd" d="M17.8565 11.8584C16.9396 11.8584 16.1963 12.6017 16.1963 13.5186C16.1963 14.4356 16.9397 15.179 17.8565 15.179C18.7734 15.179 19.5168 14.4356 19.5168 13.5186C19.5168 12.6017 18.7735 11.8584 17.8565 11.8584ZM13.9375 13.5186C13.9375 11.3542 15.6921 9.59961 17.8565 9.59961C20.0209 9.59961 21.7756 11.3542 21.7756 13.5186C21.7756 15.683 20.021 17.4378 17.8565 17.4378C15.692 17.4378 13.9375 15.683 13.9375 13.5186Z" fill="#0F20E8"/>
<path fill-rule="evenodd" clip-rule="evenodd" d="M16.7266 31.3862C16.7266 30.7625 17.2322 30.2568 17.856 30.2568H30.144C30.7677 30.2568 31.2734 30.7625 31.2734 31.3862C31.2734 35.3983 28.012 38.6596 24 38.6596C19.988 38.6596 16.7266 35.3983 16.7266 31.3862ZM24 36.4008C26.3763 36.4008 28.3725 34.7383 28.8863 32.5157H19.1137C19.6275 34.7383 21.6237 36.4008 24 36.4008Z" fill="#0F20E8"/>
</svg>
