<svg width="230" height="11" viewBox="0 0 230 11" fill="none" xmlns="http://www.w3.org/2000/svg">
<path d="M5.28278 10C4.42678 10 3.63878 9.796 2.91878 9.388C2.20678 8.972 1.63878 8.408 1.21478 7.696C0.798781 6.976 0.590781 6.18 0.590781 5.308C0.590781 4.46 0.798781 3.68 1.21478 2.968C1.63078 2.248 2.19478 1.68 2.90678 1.264C3.62678 0.84 4.41878 0.628 5.28278 0.628C6.13078 0.628 6.91078 0.84 7.62278 1.264C8.34278 1.68 8.91078 2.248 9.32678 2.968C9.75078 3.68 9.96278 4.46 9.96278 5.308C9.96278 6.172 9.75078 6.964 9.32678 7.684C8.90278 8.404 8.33078 8.972 7.61078 9.388C6.89878 9.796 6.12278 10 5.28278 10ZM5.25878 9.016C5.93078 9.016 6.55078 8.848 7.11878 8.512C7.69478 8.176 8.14678 7.724 8.47478 7.156C8.81078 6.588 8.97878 5.968 8.97878 5.296C8.97878 4.624 8.81078 4.004 8.47478 3.436C8.13878 2.868 7.68678 2.416 7.11878 2.08C6.55078 1.744 5.93078 1.576 5.25878 1.576C4.58678 1.576 3.96678 1.744 3.39878 2.08C2.83078 2.416 2.37878 2.868 2.04278 3.436C1.70678 4.004 1.53878 4.624 1.53878 5.296C1.53878 5.968 1.70278 6.588 2.03078 7.156C2.36678 7.724 2.81878 8.176 3.38678 8.512C3.95478 8.848 4.57878 9.016 5.25878 9.016ZM5.35478 8.224C4.81878 8.224 4.33478 8.1 3.90278 7.852C3.47878 7.596 3.14278 7.244 2.89478 6.796C2.65478 6.348 2.53478 5.844 2.53478 5.284C2.53478 4.716 2.65078 4.208 2.88278 3.76C3.12278 3.312 3.45078 2.964 3.86678 2.716C4.29078 2.46 4.77078 2.332 5.30678 2.332C6.09878 2.332 6.76678 2.652 7.31078 3.292C7.39078 3.396 7.43078 3.496 7.43078 3.592C7.43078 3.76 7.34678 3.904 7.17878 4.024C7.09878 4.08 7.01078 4.108 6.91478 4.108C6.75478 4.108 6.61478 4.04 6.49478 3.904C6.32678 3.72 6.14678 3.588 5.95478 3.508C5.76278 3.42 5.54678 3.376 5.30678 3.376C4.79478 3.376 4.38278 3.552 4.07078 3.904C3.76678 4.256 3.61478 4.716 3.61478 5.284C3.61478 5.844 3.77478 6.304 4.09478 6.664C4.42278 7.016 4.84278 7.192 5.35478 7.192C5.80278 7.192 6.15878 7.076 6.42278 6.844C6.55878 6.732 6.69478 6.676 6.83078 6.676C6.94278 6.676 7.03878 6.712 7.11878 6.784C7.26278 6.904 7.33478 7.044 7.33478 7.204C7.33478 7.316 7.28678 7.42 7.19078 7.516C6.70278 7.988 6.09078 8.224 5.35478 8.224ZM15.2709 10C15.0949 10 14.9469 9.94 14.8269 9.82C14.7149 9.7 14.6589 9.556 14.6589 9.388C14.6589 9.212 14.7149 9.068 14.8269 8.956L18.2349 4.972C18.7389 4.396 18.9909 3.896 18.9909 3.472C18.9909 2.952 18.8549 2.536 18.5829 2.224C18.3189 1.912 17.9549 1.756 17.4909 1.756C17.1949 1.756 16.9229 1.836 16.6749 1.996C16.4269 2.148 16.2309 2.356 16.0869 2.62C15.9509 2.884 15.8829 3.168 15.8829 3.472C15.8829 3.632 15.8229 3.772 15.7029 3.892C15.5909 4.012 15.4469 4.072 15.2709 4.072C15.1029 4.072 14.9589 4.012 14.8389 3.892C14.7189 3.772 14.6589 3.632 14.6589 3.472C14.6589 2.936 14.7829 2.452 15.0309 2.02C15.2789 1.588 15.6149 1.248 16.0389 0.999999C16.4709 0.752 16.9549 0.628 17.4909 0.628C18.0269 0.628 18.4949 0.744 18.8949 0.976C19.3029 1.208 19.6149 1.54 19.8309 1.972C20.0549 2.396 20.1669 2.896 20.1669 3.472C20.1669 3.824 20.0629 4.192 19.8549 4.576C19.6549 4.952 19.4029 5.312 19.0989 5.656L16.3509 8.776H19.7109C19.8869 8.776 20.0349 8.836 20.1549 8.956C20.2749 9.076 20.3349 9.22 20.3349 9.388C20.3349 9.556 20.2749 9.7 20.1549 9.82C20.0349 9.94 19.8869 10 19.7109 10H15.2709ZM24.4016 10C23.4896 10 22.7816 9.588 22.2776 8.764C21.7816 7.94 21.5336 6.788 21.5336 5.308C21.5336 3.828 21.7816 2.676 22.2776 1.852C22.7816 1.028 23.4896 0.615999 24.4016 0.615999C25.0016 0.615999 25.5176 0.803999 25.9496 1.18C26.3816 1.556 26.7096 2.096 26.9336 2.8C27.1576 3.504 27.2696 4.34 27.2696 5.308C27.2696 6.276 27.1576 7.112 26.9336 7.816C26.7096 8.52 26.3816 9.06 25.9496 9.436C25.5176 9.812 25.0016 10 24.4016 10ZM24.4016 8.752C24.9376 8.752 25.3416 8.436 25.6136 7.804C25.8936 7.172 26.0336 6.34 26.0336 5.308C26.0336 4.284 25.8936 3.452 25.6136 2.812C25.3336 2.172 24.9296 1.852 24.4016 1.852C23.8656 1.852 23.4576 2.172 23.1776 2.812C22.9056 3.444 22.7696 4.276 22.7696 5.308C22.7696 6.348 22.9096 7.184 23.1896 7.816C23.4696 8.44 23.8736 8.752 24.4016 8.752ZM29.2631 10C29.0871 10 28.9391 9.94 28.8191 9.82C28.7071 9.7 28.6511 9.556 28.6511 9.388C28.6511 9.212 28.7071 9.068 28.8191 8.956L32.2271 4.972C32.7311 4.396 32.9831 3.896 32.9831 3.472C32.9831 2.952 32.8471 2.536 32.5751 2.224C32.3111 1.912 31.9471 1.756 31.4831 1.756C31.1871 1.756 30.9151 1.836 30.6671 1.996C30.4191 2.148 30.2231 2.356 30.0791 2.62C29.9431 2.884 29.8751 3.168 29.8751 3.472C29.8751 3.632 29.8151 3.772 29.6951 3.892C29.5831 4.012 29.4391 4.072 29.2631 4.072C29.0951 4.072 28.9511 4.012 28.8311 3.892C28.7111 3.772 28.6511 3.632 28.6511 3.472C28.6511 2.936 28.7751 2.452 29.0231 2.02C29.2711 1.588 29.6071 1.248 30.0311 0.999999C30.4631 0.752 30.9471 0.628 31.4831 0.628C32.0191 0.628 32.4871 0.744 32.8871 0.976C33.2951 1.208 33.6071 1.54 33.8231 1.972C34.0471 2.396 34.1591 2.896 34.1591 3.472C34.1591 3.824 34.0551 4.192 33.8471 4.576C33.6471 4.952 33.3951 5.312 33.0911 5.656L30.3431 8.776H33.7031C33.8791 8.776 34.0271 8.836 34.1471 8.956C34.2671 9.076 34.3271 9.22 34.3271 9.388C34.3271 9.556 34.2671 9.7 34.1471 9.82C34.0271 9.94 33.8791 10 33.7031 10H29.2631ZM37.8178 10C37.6578 10 37.5178 9.94 37.3978 9.82C37.2778 9.7 37.2178 9.556 37.2178 9.388V2.068L36.3418 2.44C36.2058 2.496 36.0778 2.524 35.9578 2.524C35.7818 2.524 35.6338 2.468 35.5138 2.356C35.4018 2.244 35.3458 2.1 35.3458 1.924C35.3458 1.788 35.3778 1.672 35.4418 1.576C35.5058 1.472 35.6058 1.396 35.7418 1.348L37.6138 0.676C37.7098 0.644 37.7858 0.628 37.8418 0.628C38.0178 0.628 38.1618 0.688 38.2738 0.808C38.3858 0.92 38.4418 1.068 38.4418 1.252V9.388C38.4418 9.556 38.3818 9.7 38.2618 9.82C38.1418 9.94 37.9938 10 37.8178 10ZM44.9763 10C44.8003 10 44.6523 9.94 44.5323 9.82C44.4123 9.7 44.3523 9.552 44.3523 9.376V1.252C44.3523 1.068 44.4123 0.92 44.5323 0.808C44.6523 0.688 44.8003 0.628 44.9763 0.628H47.3763C47.9683 0.628 48.4963 0.76 48.9603 1.024C49.4323 1.288 49.7963 1.656 50.0523 2.128C50.3163 2.6 50.4483 3.136 50.4483 3.736C50.4483 4.32 50.3163 4.84 50.0523 5.296C49.7963 5.752 49.4323 6.108 48.9603 6.364C48.4963 6.62 47.9683 6.748 47.3763 6.748H45.6003V9.376C45.6003 9.552 45.5403 9.7 45.4203 9.82C45.3083 9.94 45.1603 10 44.9763 10ZM47.3763 5.596C47.9203 5.596 48.3683 5.424 48.7203 5.08C49.0723 4.728 49.2483 4.28 49.2483 3.736C49.2483 3.168 49.0723 2.7 48.7203 2.332C48.3683 1.964 47.9203 1.78 47.3763 1.78H45.6003V5.596H47.3763ZM54.4505 3.388C55.0665 3.388 55.6225 3.536 56.1185 3.832C56.6225 4.12 57.0185 4.52 57.3065 5.032C57.6025 5.536 57.7505 6.1 57.7505 6.724V9.4C57.7505 9.576 57.6905 9.724 57.5705 9.844C57.4585 9.956 57.3145 10.012 57.1385 10.012C56.9625 10.012 56.8145 9.956 56.6945 9.844C56.5825 9.724 56.5265 9.576 56.5265 9.4V8.956C56.2465 9.3 55.9065 9.568 55.5065 9.76C55.1065 9.952 54.6745 10.048 54.2105 10.048C53.6345 10.048 53.1105 9.904 52.6385 9.616C52.1745 9.328 51.8065 8.932 51.5345 8.428C51.2705 7.916 51.1385 7.348 51.1385 6.724C51.1385 6.1 51.2825 5.536 51.5705 5.032C51.8585 4.52 52.2545 4.12 52.7585 3.832C53.2705 3.536 53.8345 3.388 54.4505 3.388ZM54.4505 8.968C54.8505 8.968 55.2105 8.872 55.5305 8.68C55.8585 8.48 56.1145 8.212 56.2985 7.876C56.4825 7.532 56.5745 7.148 56.5745 6.724C56.5745 6.3 56.4825 5.916 56.2985 5.572C56.1145 5.228 55.8585 4.96 55.5305 4.768C55.2105 4.568 54.8505 4.468 54.4505 4.468C54.0505 4.468 53.6865 4.568 53.3585 4.768C53.0385 4.96 52.7825 5.228 52.5905 5.572C52.4065 5.916 52.3145 6.3 52.3145 6.724C52.3145 7.148 52.4065 7.532 52.5905 7.876C52.7825 8.212 53.0385 8.48 53.3585 8.68C53.6865 8.872 54.0505 8.968 54.4505 8.968ZM62.7882 3.364C63.2122 3.364 63.5442 3.428 63.7842 3.556C64.0242 3.684 64.1442 3.844 64.1442 4.036C64.1442 4.092 64.1402 4.132 64.1322 4.156C64.0602 4.412 63.9002 4.54 63.6522 4.54C63.6122 4.54 63.5522 4.532 63.4722 4.516C63.1522 4.46 62.8922 4.432 62.6922 4.432C62.1162 4.432 61.6522 4.564 61.3002 4.828C60.9482 5.092 60.7722 5.448 60.7722 5.896V9.4C60.7722 9.592 60.7202 9.74 60.6162 9.844C60.5202 9.948 60.3722 10 60.1722 10C59.9802 10 59.8322 9.952 59.7282 9.856C59.6242 9.752 59.5722 9.6 59.5722 9.4V4.036C59.5722 3.844 59.6242 3.696 59.7282 3.592C59.8322 3.488 59.9802 3.436 60.1722 3.436C60.5722 3.436 60.7722 3.636 60.7722 4.036V4.264C61.0122 3.984 61.3082 3.764 61.6602 3.604C62.0122 3.444 62.3882 3.364 62.7882 3.364ZM67.9037 3.388C68.5197 3.388 69.0757 3.536 69.5717 3.832C70.0757 4.12 70.4717 4.52 70.7597 5.032C71.0557 5.536 71.2037 6.1 71.2037 6.724V9.4C71.2037 9.576 71.1437 9.724 71.0237 9.844C70.9117 9.956 70.7677 10.012 70.5917 10.012C70.4157 10.012 70.2677 9.956 70.1477 9.844C70.0357 9.724 69.9797 9.576 69.9797 9.4V8.956C69.6997 9.3 69.3597 9.568 68.9597 9.76C68.5597 9.952 68.1277 10.048 67.6637 10.048C67.0877 10.048 66.5637 9.904 66.0917 9.616C65.6277 9.328 65.2597 8.932 64.9877 8.428C64.7237 7.916 64.5917 7.348 64.5917 6.724C64.5917 6.1 64.7357 5.536 65.0237 5.032C65.3117 4.52 65.7077 4.12 66.2117 3.832C66.7237 3.536 67.2877 3.388 67.9037 3.388ZM67.9037 8.968C68.3037 8.968 68.6637 8.872 68.9837 8.68C69.3117 8.48 69.5677 8.212 69.7517 7.876C69.9357 7.532 70.0277 7.148 70.0277 6.724C70.0277 6.3 69.9357 5.916 69.7517 5.572C69.5677 5.228 69.3117 4.96 68.9837 4.768C68.6637 4.568 68.3037 4.468 67.9037 4.468C67.5037 4.468 67.1397 4.568 66.8117 4.768C66.4917 4.96 66.2357 5.228 66.0437 5.572C65.8597 5.916 65.7677 6.3 65.7677 6.724C65.7677 7.148 65.8597 7.532 66.0437 7.876C66.2357 8.212 66.4917 8.48 66.8117 8.68C67.1397 8.872 67.5037 8.968 67.9037 8.968ZM75.8213 8.8C75.9653 8.8 76.0853 8.856 76.1813 8.968C76.2853 9.08 76.3373 9.224 76.3373 9.4C76.3373 9.576 76.2693 9.72 76.1333 9.832C76.0053 9.944 75.8373 10 75.6293 10H75.4133C75.0213 10 74.6613 9.9 74.3333 9.7C74.0133 9.492 73.7613 9.212 73.5773 8.86C73.3933 8.508 73.3013 8.112 73.3013 7.672V4.708H72.7493C72.5813 4.708 72.4453 4.66 72.3413 4.564C72.2373 4.468 72.1853 4.348 72.1853 4.204C72.1853 4.044 72.2373 3.916 72.3413 3.82C72.4453 3.724 72.5813 3.676 72.7493 3.676H73.3013V1.948C73.3013 1.772 73.3573 1.628 73.4693 1.516C73.5813 1.404 73.7253 1.348 73.9013 1.348C74.0773 1.348 74.2213 1.404 74.3333 1.516C74.4453 1.628 74.5013 1.772 74.5013 1.948V3.676H75.5213C75.6893 3.676 75.8253 3.724 75.9293 3.82C76.0333 3.916 76.0853 4.044 76.0853 4.204C76.0853 4.348 76.0333 4.468 75.9293 4.564C75.8253 4.66 75.6893 4.708 75.5213 4.708H74.5013V7.672C74.5013 7.992 74.5893 8.26 74.7653 8.476C74.9413 8.692 75.1573 8.8 75.4133 8.8H75.8213ZM78.5737 10C78.3977 10 78.2497 9.944 78.1297 9.832C78.0177 9.712 77.9617 9.564 77.9617 9.388V4.048C77.9617 3.864 78.0177 3.716 78.1297 3.604C78.2497 3.492 78.3977 3.436 78.5737 3.436C78.7577 3.436 78.9057 3.492 79.0177 3.604C79.1297 3.716 79.1857 3.864 79.1857 4.048V9.388C79.1857 9.564 79.1297 9.712 79.0177 9.832C78.9057 9.944 78.7577 10 78.5737 10ZM78.5737 2.368C78.3577 2.368 78.1697 2.292 78.0097 2.14C77.8577 1.98 77.7817 1.792 77.7817 1.576C77.7817 1.36 77.8577 1.176 78.0097 1.024C78.1697 0.864 78.3577 0.784 78.5737 0.784C78.7897 0.784 78.9737 0.864 79.1257 1.024C79.2857 1.176 79.3657 1.36 79.3657 1.576C79.3657 1.792 79.2857 1.98 79.1257 2.14C78.9737 2.292 78.7897 2.368 78.5737 2.368ZM84.4388 10.048C83.8068 10.048 83.2388 9.904 82.7348 9.616C82.2308 9.328 81.8348 8.932 81.5468 8.428C81.2668 7.916 81.1268 7.348 81.1268 6.724C81.1268 6.084 81.2628 5.512 81.5348 5.008C81.8148 4.496 82.2028 4.1 82.6988 3.82C83.1948 3.532 83.7548 3.388 84.3788 3.388C85.3228 3.388 86.1068 3.748 86.7308 4.468C86.8108 4.556 86.8508 4.66 86.8508 4.78C86.8508 4.956 86.7628 5.104 86.5868 5.224C86.5068 5.28 86.4148 5.308 86.3108 5.308C86.1268 5.308 85.9708 5.236 85.8428 5.092C85.6428 4.876 85.4228 4.72 85.1828 4.624C84.9508 4.52 84.6828 4.468 84.3788 4.468C83.7628 4.468 83.2628 4.676 82.8788 5.092C82.4948 5.5 82.3028 6.044 82.3028 6.724C82.3028 7.156 82.3908 7.544 82.5668 7.888C82.7508 8.224 83.0028 8.488 83.3228 8.68C83.6508 8.872 84.0228 8.968 84.4388 8.968C84.9828 8.968 85.4228 8.828 85.7588 8.548C85.9108 8.436 86.0588 8.38 86.2028 8.38C86.3148 8.38 86.4188 8.416 86.5148 8.488C86.6668 8.616 86.7428 8.76 86.7428 8.92C86.7428 9.04 86.6948 9.148 86.5988 9.244C86.0228 9.78 85.3028 10.048 84.4388 10.048ZM91.6458 3.388C92.2618 3.388 92.8178 3.536 93.3138 3.832C93.8178 4.12 94.2138 4.52 94.5018 5.032C94.7978 5.536 94.9458 6.1 94.9458 6.724V9.4C94.9458 9.576 94.8858 9.724 94.7658 9.844C94.6538 9.956 94.5098 10.012 94.3338 10.012C94.1578 10.012 94.0098 9.956 93.8898 9.844C93.7778 9.724 93.7218 9.576 93.7218 9.4V8.956C93.4418 9.3 93.1018 9.568 92.7018 9.76C92.3018 9.952 91.8698 10.048 91.4058 10.048C90.8298 10.048 90.3058 9.904 89.8338 9.616C89.3698 9.328 89.0018 8.932 88.7298 8.428C88.4658 7.916 88.3338 7.348 88.3338 6.724C88.3338 6.1 88.4778 5.536 88.7658 5.032C89.0538 4.52 89.4498 4.12 89.9538 3.832C90.4658 3.536 91.0298 3.388 91.6458 3.388ZM91.6458 8.968C92.0458 8.968 92.4058 8.872 92.7258 8.68C93.0538 8.48 93.3098 8.212 93.4938 7.876C93.6778 7.532 93.7698 7.148 93.7698 6.724C93.7698 6.3 93.6778 5.916 93.4938 5.572C93.3098 5.228 93.0538 4.96 92.7258 4.768C92.4058 4.568 92.0458 4.468 91.6458 4.468C91.2458 4.468 90.8818 4.568 90.5538 4.768C90.2338 4.96 89.9778 5.228 89.7858 5.572C89.6018 5.916 89.5098 6.3 89.5098 6.724C89.5098 7.148 89.6018 7.532 89.7858 7.876C89.9778 8.212 90.2338 8.48 90.5538 8.68C90.8818 8.872 91.2458 8.968 91.6458 8.968ZM97.1155 10.192C96.8915 10.192 96.6955 10.112 96.5275 9.952C96.3675 9.784 96.2875 9.588 96.2875 9.364C96.2875 9.132 96.3675 8.936 96.5275 8.776C96.6955 8.608 96.8915 8.524 97.1155 8.524C97.3395 8.524 97.5315 8.608 97.6915 8.776C97.8595 8.936 97.9435 9.132 97.9435 9.364C97.9435 9.588 97.8635 9.784 97.7035 9.952C97.5435 10.112 97.3475 10.192 97.1155 10.192ZM112.754 0.628C112.922 0.628 113.058 0.684 113.162 0.796C113.274 0.9 113.33 1.036 113.33 1.204C113.33 1.372 113.274 1.512 113.162 1.624C113.058 1.728 112.922 1.78 112.754 1.78H110.174V9.376C110.174 9.552 110.114 9.7 109.994 9.82C109.874 9.94 109.726 10 109.55 10C109.374 10 109.226 9.94 109.106 9.82C108.986 9.7 108.926 9.552 108.926 9.376V1.78H106.334C106.166 1.78 106.026 1.728 105.914 1.624C105.81 1.512 105.758 1.372 105.758 1.204C105.758 1.036 105.81 0.9 105.914 0.796C106.026 0.684 106.166 0.628 106.334 0.628H112.754ZM118.199 3.424C118.383 3.424 118.531 3.48 118.643 3.592C118.755 3.704 118.811 3.852 118.811 4.036V9.388C118.811 9.564 118.755 9.712 118.643 9.832C118.531 9.944 118.383 10 118.199 10C118.023 10 117.875 9.944 117.755 9.832C117.643 9.712 117.587 9.564 117.587 9.388V9.256C117.331 9.512 117.027 9.712 116.675 9.856C116.323 9.992 115.947 10.06 115.547 10.06C114.995 10.06 114.499 9.94 114.059 9.7C113.619 9.46 113.275 9.112 113.027 8.656C112.779 8.192 112.655 7.636 112.655 6.988V4.036C112.655 3.86 112.711 3.716 112.823 3.604C112.943 3.484 113.091 3.424 113.267 3.424C113.443 3.424 113.587 3.484 113.699 3.604C113.819 3.716 113.879 3.86 113.879 4.036V6.988C113.879 7.636 114.051 8.128 114.395 8.464C114.747 8.792 115.211 8.956 115.787 8.956C116.123 8.956 116.427 8.888 116.699 8.752C116.979 8.616 117.195 8.432 117.347 8.2C117.507 7.968 117.587 7.708 117.587 7.42V4.036C117.587 3.852 117.643 3.704 117.755 3.592C117.875 3.48 118.023 3.424 118.199 3.424ZM114.467 2.428C114.259 2.428 114.083 2.36 113.939 2.224C113.803 2.08 113.735 1.908 113.735 1.708C113.735 1.516 113.807 1.348 113.951 1.204C114.095 1.06 114.267 0.987999 114.467 0.987999C114.659 0.987999 114.827 1.06 114.971 1.204C115.115 1.348 115.187 1.516 115.187 1.708C115.187 1.908 115.115 2.08 114.971 2.224C114.827 2.36 114.659 2.428 114.467 2.428ZM117.131 2.428C116.923 2.428 116.751 2.36 116.615 2.224C116.479 2.08 116.411 1.908 116.411 1.708C116.411 1.516 116.479 1.348 116.615 1.204C116.759 1.06 116.931 0.987999 117.131 0.987999C117.323 0.987999 117.491 1.06 117.635 1.204C117.779 1.348 117.851 1.516 117.851 1.708C117.851 1.908 117.779 2.08 117.635 2.224C117.491 2.36 117.323 2.428 117.131 2.428ZM127.867 3.376C128.563 3.376 129.123 3.604 129.547 4.06C129.979 4.516 130.195 5.152 130.195 5.968V9.4C130.195 9.576 130.139 9.724 130.027 9.844C129.915 9.956 129.767 10.012 129.583 10.012C129.407 10.012 129.259 9.956 129.139 9.844C129.027 9.724 128.971 9.576 128.971 9.4V5.968C128.971 5.48 128.847 5.112 128.599 4.864C128.359 4.608 128.035 4.48 127.627 4.48C127.211 4.48 126.867 4.624 126.595 4.912C126.331 5.2 126.199 5.568 126.199 6.016V9.4C126.199 9.576 126.143 9.724 126.031 9.844C125.919 9.956 125.771 10.012 125.587 10.012C125.411 10.012 125.263 9.956 125.143 9.844C125.031 9.724 124.975 9.576 124.975 9.4V5.968C124.975 5.48 124.851 5.112 124.603 4.864C124.363 4.608 124.039 4.48 123.631 4.48C123.207 4.48 122.859 4.624 122.587 4.912C122.323 5.2 122.191 5.568 122.191 6.016V9.4C122.191 9.576 122.135 9.724 122.023 9.844C121.911 9.956 121.763 10.012 121.579 10.012C121.403 10.012 121.255 9.956 121.135 9.844C121.023 9.724 120.967 9.576 120.967 9.4V4.06C120.967 3.876 121.023 3.728 121.135 3.616C121.255 3.504 121.403 3.448 121.579 3.448C121.755 3.448 121.899 3.504 122.011 3.616C122.123 3.72 122.183 3.86 122.191 4.036C122.399 3.828 122.647 3.668 122.935 3.556C123.223 3.436 123.535 3.376 123.871 3.376C124.279 3.376 124.643 3.46 124.963 3.628C125.291 3.788 125.559 4.02 125.767 4.324C126.007 4.028 126.307 3.796 126.667 3.628C127.027 3.46 127.427 3.376 127.867 3.376ZM139.008 3.376C139.56 3.376 140.056 3.496 140.496 3.736C140.936 3.976 141.28 4.328 141.528 4.792C141.776 5.248 141.9 5.8 141.9 6.448V9.4C141.9 9.576 141.84 9.724 141.72 9.844C141.608 9.956 141.464 10.012 141.288 10.012C141.112 10.012 140.964 9.956 140.844 9.844C140.732 9.724 140.676 9.576 140.676 9.4V6.448C140.676 5.8 140.5 5.312 140.148 4.984C139.804 4.648 139.344 4.48 138.768 4.48C138.432 4.48 138.124 4.548 137.844 4.684C137.572 4.82 137.356 5.004 137.196 5.236C137.044 5.468 136.968 5.728 136.968 6.016V9.4C136.968 9.576 136.912 9.724 136.8 9.844C136.688 9.956 136.54 10.012 136.356 10.012C136.18 10.012 136.032 9.956 135.912 9.844C135.8 9.724 135.744 9.576 135.744 9.4V1.24C135.744 1.056 135.8 0.908 135.912 0.796C136.032 0.684 136.18 0.628 136.356 0.628C136.54 0.628 136.688 0.684 136.8 0.796C136.912 0.908 136.968 1.056 136.968 1.24V4.18C137.224 3.924 137.528 3.728 137.88 3.592C138.232 3.448 138.608 3.376 139.008 3.376ZM146.911 3.388C147.527 3.388 148.083 3.536 148.579 3.832C149.083 4.12 149.479 4.52 149.767 5.032C150.063 5.536 150.211 6.1 150.211 6.724V9.4C150.211 9.576 150.151 9.724 150.031 9.844C149.919 9.956 149.775 10.012 149.599 10.012C149.423 10.012 149.275 9.956 149.155 9.844C149.043 9.724 148.987 9.576 148.987 9.4V8.956C148.707 9.3 148.367 9.568 147.967 9.76C147.567 9.952 147.135 10.048 146.671 10.048C146.095 10.048 145.571 9.904 145.099 9.616C144.635 9.328 144.267 8.932 143.995 8.428C143.731 7.916 143.599 7.348 143.599 6.724C143.599 6.1 143.743 5.536 144.031 5.032C144.319 4.52 144.715 4.12 145.219 3.832C145.731 3.536 146.295 3.388 146.911 3.388ZM146.911 8.968C147.311 8.968 147.671 8.872 147.991 8.68C148.319 8.48 148.575 8.212 148.759 7.876C148.943 7.532 149.035 7.148 149.035 6.724C149.035 6.3 148.943 5.916 148.759 5.572C148.575 5.228 148.319 4.96 147.991 4.768C147.671 4.568 147.311 4.468 146.911 4.468C146.511 4.468 146.147 4.568 145.819 4.768C145.499 4.96 145.243 5.228 145.051 5.572C144.867 5.916 144.775 6.3 144.775 6.724C144.775 7.148 144.867 7.532 145.051 7.876C145.243 8.212 145.499 8.48 145.819 8.68C146.147 8.872 146.511 8.968 146.911 8.968ZM156.989 9.136C157.077 9.232 157.121 9.352 157.121 9.496C157.121 9.672 157.049 9.82 156.905 9.94C156.785 10.036 156.657 10.084 156.521 10.084C156.345 10.084 156.201 10.012 156.089 9.868L153.809 7.048L153.209 7.576V9.412C153.209 9.588 153.153 9.732 153.041 9.844C152.937 9.948 152.797 10 152.621 10C152.445 10 152.301 9.948 152.189 9.844C152.085 9.732 152.033 9.588 152.033 9.412V1.216C152.033 1.04 152.085 0.9 152.189 0.796C152.301 0.684 152.445 0.628 152.621 0.628C152.797 0.628 152.937 0.684 153.041 0.796C153.153 0.9 153.209 1.04 153.209 1.216V6.1L156.125 3.496C156.229 3.392 156.353 3.34 156.497 3.34C156.665 3.34 156.801 3.404 156.905 3.532C157.009 3.636 157.061 3.76 157.061 3.904C157.061 4.072 156.997 4.208 156.869 4.312L154.661 6.28L156.989 9.136ZM160.425 10C160.081 10 159.769 9.908 159.489 9.724C159.217 9.532 159.005 9.268 158.853 8.932C158.701 8.588 158.625 8.204 158.625 7.78V1.228C158.625 1.052 158.681 0.908 158.793 0.796C158.905 0.684 159.049 0.628 159.225 0.628C159.401 0.628 159.545 0.684 159.657 0.796C159.769 0.908 159.825 1.052 159.825 1.228V7.78C159.825 8.076 159.881 8.32 159.993 8.512C160.105 8.704 160.249 8.8 160.425 8.8H160.725C160.885 8.8 161.013 8.856 161.109 8.968C161.213 9.08 161.265 9.224 161.265 9.4C161.265 9.576 161.189 9.72 161.037 9.832C160.885 9.944 160.689 10 160.449 10H160.425ZM165.076 3.388C165.692 3.388 166.248 3.536 166.744 3.832C167.248 4.12 167.644 4.52 167.932 5.032C168.228 5.536 168.376 6.1 168.376 6.724V9.4C168.376 9.576 168.316 9.724 168.196 9.844C168.084 9.956 167.94 10.012 167.764 10.012C167.588 10.012 167.44 9.956 167.32 9.844C167.208 9.724 167.152 9.576 167.152 9.4V8.956C166.872 9.3 166.532 9.568 166.132 9.76C165.732 9.952 165.3 10.048 164.836 10.048C164.26 10.048 163.736 9.904 163.264 9.616C162.8 9.328 162.432 8.932 162.16 8.428C161.896 7.916 161.764 7.348 161.764 6.724C161.764 6.1 161.908 5.536 162.196 5.032C162.484 4.52 162.88 4.12 163.384 3.832C163.896 3.536 164.46 3.388 165.076 3.388ZM165.076 8.968C165.476 8.968 165.836 8.872 166.156 8.68C166.484 8.48 166.74 8.212 166.924 7.876C167.108 7.532 167.2 7.148 167.2 6.724C167.2 6.3 167.108 5.916 166.924 5.572C166.74 5.228 166.484 4.96 166.156 4.768C165.836 4.568 165.476 4.468 165.076 4.468C164.676 4.468 164.312 4.568 163.984 4.768C163.664 4.96 163.408 5.228 163.216 5.572C163.032 5.916 162.94 6.3 162.94 6.724C162.94 7.148 163.032 7.532 163.216 7.876C163.408 8.212 163.664 8.48 163.984 8.68C164.312 8.872 164.676 8.968 165.076 8.968ZM173.413 3.364C173.837 3.364 174.169 3.428 174.409 3.556C174.649 3.684 174.769 3.844 174.769 4.036C174.769 4.092 174.765 4.132 174.757 4.156C174.685 4.412 174.525 4.54 174.277 4.54C174.237 4.54 174.177 4.532 174.097 4.516C173.777 4.46 173.517 4.432 173.317 4.432C172.741 4.432 172.277 4.564 171.925 4.828C171.573 5.092 171.397 5.448 171.397 5.896V9.4C171.397 9.592 171.345 9.74 171.241 9.844C171.145 9.948 170.997 10 170.797 10C170.605 10 170.457 9.952 170.353 9.856C170.249 9.752 170.197 9.6 170.197 9.4V4.036C170.197 3.844 170.249 3.696 170.353 3.592C170.457 3.488 170.605 3.436 170.797 3.436C171.197 3.436 171.397 3.636 171.397 4.036V4.264C171.637 3.984 171.933 3.764 172.285 3.604C172.637 3.444 173.013 3.364 173.413 3.364ZM176.765 10C176.589 10 176.441 9.944 176.321 9.832C176.209 9.712 176.153 9.564 176.153 9.388V4.048C176.153 3.864 176.209 3.716 176.321 3.604C176.441 3.492 176.589 3.436 176.765 3.436C176.949 3.436 177.097 3.492 177.209 3.604C177.321 3.716 177.377 3.864 177.377 4.048V9.388C177.377 9.564 177.321 9.712 177.209 9.832C177.097 9.944 176.949 10 176.765 10ZM185.558 10.048C185.014 10.048 184.502 9.964 184.022 9.796C183.542 9.628 183.166 9.408 182.894 9.136C182.79 9.032 182.738 8.908 182.738 8.764C182.738 8.572 182.818 8.416 182.978 8.296C183.13 8.184 183.27 8.128 183.398 8.128C183.558 8.128 183.71 8.2 183.854 8.344C184.006 8.512 184.234 8.66 184.538 8.788C184.842 8.908 185.166 8.968 185.51 8.968C185.966 8.968 186.318 8.892 186.566 8.74C186.822 8.588 186.95 8.384 186.95 8.128C186.95 7.88 186.826 7.676 186.578 7.516C186.33 7.348 185.91 7.208 185.318 7.096C183.782 6.8 183.014 6.168 183.014 5.2C183.014 4.808 183.13 4.476 183.362 4.204C183.594 3.932 183.898 3.728 184.274 3.592C184.65 3.456 185.05 3.388 185.474 3.388C185.994 3.388 186.458 3.472 186.866 3.64C187.282 3.808 187.61 4.04 187.85 4.336C187.954 4.464 188.006 4.592 188.006 4.72C188.006 4.856 187.938 4.98 187.802 5.092C187.714 5.156 187.602 5.188 187.466 5.188C187.258 5.188 187.07 5.112 186.902 4.96C186.702 4.776 186.49 4.648 186.266 4.576C186.042 4.496 185.77 4.456 185.45 4.456C185.082 4.456 184.778 4.52 184.538 4.648C184.306 4.768 184.19 4.94 184.19 5.164C184.19 5.324 184.23 5.46 184.31 5.572C184.39 5.676 184.542 5.776 184.766 5.872C184.99 5.96 185.314 6.048 185.738 6.136C186.61 6.312 187.226 6.556 187.586 6.868C187.954 7.18 188.138 7.584 188.138 8.08C188.138 8.448 188.038 8.784 187.838 9.088C187.638 9.384 187.342 9.62 186.95 9.796C186.566 9.964 186.102 10.048 185.558 10.048ZM192.661 3.388C193.277 3.388 193.833 3.536 194.329 3.832C194.833 4.12 195.229 4.52 195.517 5.032C195.813 5.536 195.961 6.1 195.961 6.724V9.4C195.961 9.576 195.901 9.724 195.781 9.844C195.669 9.956 195.525 10.012 195.349 10.012C195.173 10.012 195.025 9.956 194.905 9.844C194.793 9.724 194.737 9.576 194.737 9.4V8.956C194.457 9.3 194.117 9.568 193.717 9.76C193.317 9.952 192.885 10.048 192.421 10.048C191.845 10.048 191.321 9.904 190.849 9.616C190.385 9.328 190.017 8.932 189.745 8.428C189.481 7.916 189.349 7.348 189.349 6.724C189.349 6.1 189.493 5.536 189.781 5.032C190.069 4.52 190.465 4.12 190.969 3.832C191.481 3.536 192.045 3.388 192.661 3.388ZM192.661 8.968C193.061 8.968 193.421 8.872 193.741 8.68C194.069 8.48 194.325 8.212 194.509 7.876C194.693 7.532 194.785 7.148 194.785 6.724C194.785 6.3 194.693 5.916 194.509 5.572C194.325 5.228 194.069 4.96 193.741 4.768C193.421 4.568 193.061 4.468 192.661 4.468C192.261 4.468 191.897 4.568 191.569 4.768C191.249 4.96 190.993 5.228 190.801 5.572C190.617 5.916 190.525 6.3 190.525 6.724C190.525 7.148 190.617 7.532 190.801 7.876C190.993 8.212 191.249 8.48 191.569 8.68C191.897 8.872 192.261 8.968 192.661 8.968ZM202.739 9.136C202.827 9.232 202.871 9.352 202.871 9.496C202.871 9.672 202.799 9.82 202.655 9.94C202.535 10.036 202.407 10.084 202.271 10.084C202.095 10.084 201.951 10.012 201.839 9.868L199.559 7.048L198.959 7.576V9.412C198.959 9.588 198.903 9.732 198.791 9.844C198.687 9.948 198.547 10 198.371 10C198.195 10 198.051 9.948 197.939 9.844C197.835 9.732 197.783 9.588 197.783 9.412V1.216C197.783 1.04 197.835 0.9 197.939 0.796C198.051 0.684 198.195 0.628 198.371 0.628C198.547 0.628 198.687 0.684 198.791 0.796C198.903 0.9 198.959 1.04 198.959 1.216V6.1L201.875 3.496C201.979 3.392 202.103 3.34 202.247 3.34C202.415 3.34 202.551 3.404 202.655 3.532C202.759 3.636 202.811 3.76 202.811 3.904C202.811 4.072 202.747 4.208 202.619 4.312L200.411 6.28L202.739 9.136ZM206.175 10C205.831 10 205.519 9.908 205.239 9.724C204.967 9.532 204.755 9.268 204.603 8.932C204.451 8.588 204.375 8.204 204.375 7.78V1.228C204.375 1.052 204.431 0.908 204.543 0.796C204.655 0.684 204.799 0.628 204.975 0.628C205.151 0.628 205.295 0.684 205.407 0.796C205.519 0.908 205.575 1.052 205.575 1.228V7.78C205.575 8.076 205.631 8.32 205.743 8.512C205.855 8.704 205.999 8.8 206.175 8.8H206.475C206.635 8.8 206.763 8.856 206.859 8.968C206.963 9.08 207.015 9.224 207.015 9.4C207.015 9.576 206.939 9.72 206.787 9.832C206.635 9.944 206.439 10 206.199 10H206.175ZM208.945 10C208.769 10 208.621 9.944 208.501 9.832C208.389 9.712 208.333 9.564 208.333 9.388V4.048C208.333 3.864 208.389 3.716 208.501 3.604C208.621 3.492 208.769 3.436 208.945 3.436C209.129 3.436 209.277 3.492 209.389 3.604C209.501 3.716 209.557 3.864 209.557 4.048V9.388C209.557 9.564 209.501 9.712 209.389 9.832C209.277 9.944 209.129 10 208.945 10ZM217.498 0.628C217.682 0.628 217.83 0.684 217.942 0.796C218.054 0.908 218.11 1.056 218.11 1.24V6.712C218.11 7.336 217.962 7.904 217.666 8.416C217.378 8.92 216.982 9.32 216.478 9.616C215.982 9.904 215.426 10.048 214.81 10.048C214.194 10.048 213.63 9.904 213.118 9.616C212.614 9.32 212.218 8.92 211.93 8.416C211.642 7.904 211.498 7.336 211.498 6.712C211.498 6.088 211.63 5.524 211.894 5.02C212.166 4.508 212.534 4.108 212.998 3.82C213.47 3.532 213.994 3.388 214.57 3.388C215.034 3.388 215.466 3.484 215.866 3.676C216.266 3.868 216.606 4.136 216.886 4.48V1.24C216.886 1.056 216.942 0.908 217.054 0.796C217.174 0.684 217.322 0.628 217.498 0.628ZM214.81 8.968C215.21 8.968 215.57 8.872 215.89 8.68C216.218 8.48 216.474 8.208 216.658 7.864C216.842 7.52 216.934 7.136 216.934 6.712C216.934 6.288 216.842 5.908 216.658 5.572C216.474 5.228 216.218 4.96 215.89 4.768C215.57 4.568 215.21 4.468 214.81 4.468C214.41 4.468 214.046 4.568 213.718 4.768C213.398 4.96 213.142 5.228 212.95 5.572C212.766 5.908 212.674 6.288 212.674 6.712C212.674 7.136 212.766 7.52 212.95 7.864C213.142 8.208 213.398 8.48 213.718 8.68C214.046 8.872 214.41 8.968 214.81 8.968ZM221.003 10C220.827 10 220.679 9.944 220.559 9.832C220.447 9.712 220.391 9.564 220.391 9.388V4.048C220.391 3.864 220.447 3.716 220.559 3.604C220.679 3.492 220.827 3.436 221.003 3.436C221.187 3.436 221.335 3.492 221.447 3.604C221.559 3.716 221.615 3.864 221.615 4.048V9.388C221.615 9.564 221.559 9.712 221.447 9.832C221.335 9.944 221.187 10 221.003 10ZM227.109 3.364C227.533 3.364 227.865 3.428 228.105 3.556C228.345 3.684 228.465 3.844 228.465 4.036C228.465 4.092 228.461 4.132 228.453 4.156C228.381 4.412 228.221 4.54 227.973 4.54C227.933 4.54 227.873 4.532 227.793 4.516C227.473 4.46 227.213 4.432 227.013 4.432C226.437 4.432 225.973 4.564 225.621 4.828C225.269 5.092 225.093 5.448 225.093 5.896V9.4C225.093 9.592 225.041 9.74 224.937 9.844C224.841 9.948 224.693 10 224.493 10C224.301 10 224.153 9.952 224.049 9.856C223.945 9.752 223.893 9.6 223.893 9.4V4.036C223.893 3.844 223.945 3.696 224.049 3.592C224.153 3.488 224.301 3.436 224.493 3.436C224.893 3.436 225.093 3.636 225.093 4.036V4.264C225.333 3.984 225.629 3.764 225.98 3.604C226.333 3.444 226.709 3.364 227.109 3.364ZM228.518 10.192C228.294 10.192 228.098 10.112 227.93 9.952C227.77 9.784 227.69 9.588 227.69 9.364C227.69 9.132 227.77 8.936 227.93 8.776C228.098 8.608 228.294 8.524 228.518 8.524C228.742 8.524 228.934 8.608 229.094 8.776C229.262 8.936 229.346 9.132 229.346 9.364C229.346 9.588 229.266 9.784 229.106 9.952C228.946 10.112 228.75 10.192 228.518 10.192Z" fill="#444444"/>
</svg>
