<svg width="36" height="24" viewBox="0 0 36 24" fill="none" xmlns="http://www.w3.org/2000/svg">
<path d="M34.2717 3.73944C34.0736 3.03249 33.6875 2.39245 33.1546 1.88736C32.6067 1.36674 31.9352 0.994331 31.2034 0.805278C28.4646 0.0834034 17.4921 0.0834036 17.4921 0.0834036C12.9178 0.0313595 8.34465 0.260262 3.7984 0.76882C3.06659 0.971839 2.3963 1.35257 1.84715 1.87715C1.30757 2.39632 0.916733 3.03653 0.712567 3.73799C0.222119 6.38011 -0.0161741 9.06286 0.000900059 11.7501C-0.0165999 14.4349 0.221108 17.1167 0.712567 19.7621C0.912358 20.4607 1.30173 21.098 1.84277 21.6128C2.38382 22.1276 3.05757 22.4994 3.7984 22.6963C6.57361 23.4167 17.4921 23.4167 17.4921 23.4167C22.0723 23.4688 26.6513 23.2399 31.2034 22.7313C31.9352 22.5423 32.6067 22.1699 33.1546 21.6492C33.6942 21.1344 34.0778 20.4942 34.2703 19.7971C34.7735 17.156 35.0182 14.4722 35.0009 11.7836C35.0387 9.08366 34.7944 6.38714 34.2717 3.73799V3.73944ZM14.0038 16.7434V6.75819L23.133 11.7515L14.0038 16.7434Z" fill="#444444"/>
</svg>
