<svg width="24" height="24" viewBox="0 0 24 24" fill="none" xmlns="http://www.w3.org/2000/svg">
<path d="M11.6299 0C5.26985 0 0.0898438 5.18004 0.0898438 11.54C0.0898438 17.9 5.26985 23.08 11.6299 23.08C17.9899 23.08 23.1699 17.9 23.1699 11.54C23.1699 5.18004 17.9899 0 11.6299 0ZM3.94984 13.83C3.85984 13.49 3.73984 13.19 3.70984 12.89C3.53984 11.22 4.73984 9.80995 6.39984 9.69995C6.57984 9.68995 6.61984 9.61996 6.64984 9.45996C6.91984 7.89996 8.21985 6.63 9.77985 6.38C11.7798 6.06 13.5098 7.27005 14.0698 8.93005C14.0798 8.97005 14.0999 9.00996 14.1299 9.07996C15.0899 8.59996 16.0198 8.59005 16.9598 9.18005C16.8998 9.25005 16.8598 9.29997 16.8198 9.33997C15.9298 10.23 15.0298 11.13 14.1398 12.02C14.0498 12.11 13.9798 12.14 13.8398 12.12C13.6198 12.1 13.3998 12.14 13.1798 12.14C13.0998 12.14 12.9898 12.14 12.9298 12.09C12.2798 11.53 11.6298 10.96 10.9698 10.4C10.8398 10.29 10.8798 10.17 10.8898 10.05C10.9698 9.21005 10.2299 8.57001 9.40985 8.76001C8.84985 8.89001 8.44985 9.42 8.49985 10C8.50985 10.18 8.46985 10.28 8.32985 10.39C6.92985 11.48 5.53984 12.5901 4.14984 13.6901C4.09984 13.7301 4.04985 13.76 3.93985 13.84L3.94984 13.83ZM18.0199 15.35C17.8399 15.4 17.6498 15.4301 17.4698 15.4301C13.7798 15.4301 10.0898 15.4301 6.39984 15.4301C5.69984 15.4301 5.09984 15.12 4.56984 14.63C4.63984 14.57 4.67985 14.52 4.73985 14.48C6.15985 13.36 7.57984 12.23 9.00984 11.12C9.07984 11.07 9.20984 11.0401 9.28984 11.0701C9.55984 11.1501 9.81985 11.16 10.0999 11.09C10.1799 11.07 10.2998 11.1 10.3598 11.15C11.0098 11.71 11.6499 12.27 12.2999 12.83C12.4099 12.92 12.3999 13.02 12.3799 13.13C12.2999 13.76 12.6999 14.34 13.2999 14.47C13.9199 14.61 14.5398 14.26 14.7098 13.67C14.7698 13.46 14.7299 13.22 14.7399 12.99C14.7399 12.92 14.7398 12.82 14.7798 12.78C15.7298 11.83 16.6799 10.8801 17.6299 9.94006C17.6299 9.94006 17.6398 9.94004 17.6798 9.92004C17.9198 10.26 18.0599 10.63 18.0999 11.04C18.1199 11.2 18.1698 11.29 18.3298 11.36C19.1598 11.73 19.6298 12.58 19.5598 13.52C19.4998 14.36 18.8498 15.14 18.0098 15.38L18.0199 15.35Z" fill="#0F20E8"/>
<path fill-rule="evenodd" clip-rule="evenodd" d="M4.73985 14.48C4.7034 14.5043 4.67432 14.5323 4.64141 14.564C4.63551 14.5697 4.62949 14.5755 4.62327 14.5814C4.60711 14.5968 4.58968 14.613 4.56984 14.63C4.74602 14.7929 4.92993 14.9359 5.12268 15.0542C5.16527 15.0804 5.20829 15.1053 5.25175 15.129C5.30811 15.1597 5.36522 15.1883 5.4231 15.2147C5.72627 15.3529 6.05061 15.4301 6.39984 15.4301H17.4698C17.6314 15.4301 17.8009 15.4058 17.9641 15.3647C17.977 15.3615 17.9898 15.3581 18.0026 15.3547C18.0084 15.3531 18.0141 15.3516 18.0199 15.35L18.0098 15.38C18.0155 15.3784 18.0212 15.3767 18.0268 15.3751C18.0387 15.3716 18.0506 15.3679 18.0625 15.3642C18.7483 15.1478 19.2993 14.5712 19.4912 13.9034C19.5272 13.7782 19.5506 13.6498 19.5598 13.52C19.6298 12.58 19.1598 11.73 18.3298 11.36C18.1698 11.29 18.1199 11.2 18.0999 11.04C18.0952 10.9927 18.0893 10.9459 18.082 10.8997C18.0789 10.8799 18.0756 10.8603 18.072 10.8407C18.055 10.7486 18.0328 10.6586 18.0051 10.5705C17.956 10.4141 17.8899 10.2638 17.8068 10.1189C17.7682 10.0515 17.7258 9.98521 17.6798 9.92004C17.6398 9.94004 17.6299 9.94006 17.6299 9.94006C17.6192 9.95065 17.6085 9.96123 17.5978 9.97182C17.5905 9.97898 17.5833 9.98614 17.5761 9.9933C17.5588 10.0104 17.5416 10.0274 17.5244 10.0445C17.3304 10.2366 17.1364 10.429 16.9425 10.6218C16.2416 11.3184 15.5407 12.0192 14.8399 12.72C14.8198 12.74 14.7998 12.76 14.7798 12.78C14.7728 12.7871 14.7669 12.7961 14.7621 12.8064C14.7399 12.8545 14.7399 12.9324 14.7399 12.99C14.7365 13.0668 14.7387 13.1447 14.741 13.2223C14.7454 13.377 14.7498 13.5302 14.7098 13.67C14.6047 14.0349 14.3276 14.3079 13.9847 14.4301C13.7731 14.5055 13.5365 14.5234 13.2999 14.47C13.2516 14.4595 13.2046 14.4461 13.159 14.4301C12.6386 14.2463 12.3063 13.7093 12.3799 13.13C12.3933 13.056 12.4022 12.9864 12.3731 12.9214C12.36 12.8922 12.3392 12.8639 12.3077 12.8366C12.3051 12.8343 12.3025 12.8321 12.2999 12.83C12.2984 12.8287 12.297 12.8275 12.2955 12.8262C11.972 12.5475 11.6509 12.2687 11.3298 11.99C11.0073 11.71 10.6848 11.43 10.3598 11.15C10.3552 11.1461 10.3501 11.1424 10.3448 11.1387C10.3444 11.1385 10.3441 11.1382 10.3437 11.138C10.3182 11.1209 10.2858 11.1069 10.2514 11.0973C10.1998 11.0831 10.1438 11.079 10.0999 11.09C9.81985 11.16 9.55984 11.1501 9.28984 11.0701C9.2175 11.0429 9.10426 11.0648 9.03149 11.1062C9.02379 11.1106 9.01654 11.1152 9.00984 11.12C8.9878 11.1371 8.96577 11.1542 8.94374 11.1713C8.94258 11.1722 8.94142 11.1731 8.94026 11.174C7.91084 11.9737 6.88653 12.7835 5.86358 13.5923C5.69494 13.7256 5.52633 13.8589 5.35774 13.9921C5.16033 14.1481 4.96294 14.304 4.76556 14.4597C4.76419 14.4608 4.76283 14.4619 4.76146 14.4629C4.75426 14.4686 4.74706 14.4743 4.73985 14.48ZM4.80022 13.1748C4.95062 13.0555 5.10103 12.9362 5.25148 12.8169C6.27484 12.0051 7.29964 11.1921 8.32985 10.39C8.3554 10.3699 8.37762 10.3502 8.39681 10.3302C8.39719 10.3298 8.39757 10.3294 8.39795 10.3291C8.48301 10.24 8.50799 10.1465 8.49985 10C8.44985 9.42 8.84985 8.89001 9.40985 8.76001C10.2299 8.57001 10.9698 9.21005 10.8898 10.05C10.8883 10.0682 10.8861 10.0863 10.884 10.1043C10.8758 10.172 10.8676 10.2392 10.8956 10.3041C10.9097 10.3367 10.9329 10.3688 10.9698 10.4C10.9728 10.4025 10.9757 10.405 10.9786 10.4075C10.9827 10.4109 10.9867 10.4143 10.9907 10.4177C11.4138 10.777 11.8328 11.1402 12.2503 11.5021C12.4723 11.6946 12.6939 11.8866 12.9154 12.0776C12.9202 12.0817 12.925 12.0858 12.9298 12.09C12.9313 12.0912 12.9328 12.0924 12.9343 12.0935C12.9561 12.1101 12.9837 12.1208 13.0138 12.1277C13.0678 12.14 13.1297 12.14 13.1798 12.14C13.2678 12.14 13.3559 12.1336 13.4439 12.1272C13.5759 12.1176 13.7079 12.108 13.8398 12.12C13.9364 12.1338 13.9997 12.1238 14.0592 12.0868C14.0647 12.0833 14.0701 12.0797 14.0756 12.0758C14.0967 12.0607 14.1177 12.0422 14.1398 12.02L16.8198 9.33997C16.8369 9.32292 16.8539 9.30407 16.8725 9.28263C16.886 9.26706 16.9004 9.25012 16.9161 9.23152C16.9295 9.21564 16.944 9.19855 16.9598 9.18005C16.7613 9.05543 16.5632 8.95756 16.3651 8.88525C16.2337 8.83727 16.1024 8.80053 15.9709 8.77468C15.501 8.68229 15.0301 8.729 14.5532 8.89852C14.4127 8.94847 14.2716 9.00909 14.1299 9.07996C14.1225 9.06284 14.1158 9.04753 14.1096 9.03357C14.0907 8.99044 14.0774 8.96027 14.0698 8.93005C13.98 8.66369 13.86 8.40891 13.7136 8.17017C12.9477 6.92112 11.4589 6.11135 9.77985 6.38C8.21985 6.63 6.91984 7.89996 6.64984 9.45996C6.61984 9.61996 6.57984 9.68995 6.39984 9.69995C4.77951 9.80732 3.59745 11.1534 3.69999 12.7708C3.7025 12.8104 3.70578 12.8501 3.70984 12.89C3.72046 12.9962 3.74235 13.1024 3.7702 13.2103C3.77086 13.2129 3.77152 13.2154 3.77219 13.218C3.7975 13.3152 3.82754 13.4139 3.85841 13.5154C3.88934 13.617 3.92112 13.7214 3.94984 13.83L3.93985 13.84C3.94379 13.8371 3.94766 13.8343 3.95145 13.8316C3.95293 13.8305 3.95441 13.8294 3.95587 13.8284C3.96719 13.8202 3.97784 13.8126 3.9879 13.8054C4.01584 13.7856 4.03917 13.7695 4.05955 13.7554C4.08677 13.7366 4.10872 13.7214 4.12934 13.7059C4.13627 13.7007 4.14306 13.6955 4.14984 13.6901C4.16368 13.6791 4.17751 13.6682 4.19134 13.6572C4.39429 13.4966 4.59724 13.3357 4.80022 13.1748ZM3.88656 13.8986L3.06621 14.6018L3.89098 15.3643C4.54341 15.9675 5.37449 16.4301 6.39984 16.4301H16.605L16.4616 16.8624L18.2846 16.3415C19.508 15.992 20.4654 14.8716 20.5572 13.5922C20.6464 12.3855 20.096 11.2214 19.0449 10.6048C18.9531 10.1489 18.7681 9.72772 18.4968 9.34336L18.3343 9.11312L18.4742 8.94989L18.0161 8.66237L18.0012 8.64131L17.9908 8.64651L17.4915 8.33307C16.888 7.95427 16.2472 7.74514 15.5763 7.72904C15.2667 7.72161 14.9639 7.7556 14.6689 7.82394C13.7369 6.14939 11.8033 5.04354 9.62186 5.39256C7.81817 5.68162 6.29802 7.03372 5.78421 8.77621C3.84922 9.17382 2.50716 10.9454 2.71489 12.9904C2.73922 13.2328 2.79731 13.4527 2.847 13.6238C2.87139 13.7078 2.89148 13.7735 2.90964 13.8328C2.9358 13.9183 2.95794 13.9907 2.98314 14.0858L3.85038 13.8563L3.88656 13.8986ZM13.737 13.115C13.7096 13.1136 13.6653 13.1142 13.5779 13.1202C13.5647 13.1211 13.5492 13.1222 13.5318 13.1235C13.492 13.1265 13.4423 13.1301 13.3878 13.1333C13.3832 13.192 13.3759 13.2401 13.3702 13.273C13.3614 13.4021 13.4446 13.4781 13.5116 13.4926L13.5201 13.4945C13.6437 13.5224 13.719 13.4571 13.7429 13.4085C13.7434 13.397 13.744 13.3777 13.7437 13.3484C13.7433 13.3182 13.7426 13.2941 13.7417 13.2627C13.7411 13.2421 13.7404 13.2185 13.7397 13.1879C13.7391 13.1658 13.7386 13.1414 13.7384 13.1152C13.7379 13.1151 13.7375 13.1151 13.737 13.115ZM9.87873 10.1147C9.88063 10.0821 9.88325 10.0552 9.88529 10.0357C9.8875 10.0146 9.89029 9.99165 9.89164 9.98054C9.89187 9.97863 9.89206 9.97707 9.8922 9.97593C9.89299 9.96935 9.89335 9.9661 9.89347 9.96502L9.89428 9.95523C9.90301 9.86356 9.87048 9.80756 9.83124 9.77344C9.79121 9.73864 9.72789 9.71281 9.63558 9.7342C9.59739 9.74317 9.55851 9.7675 9.52989 9.80616C9.50201 9.84384 9.49336 9.88177 9.49615 9.91411L9.49746 9.9293L9.49831 9.94453C9.50075 9.98841 9.50213 10.0376 9.50083 10.091C9.52939 10.0978 9.55836 10.1058 9.58763 10.1152C9.68777 10.1431 9.76331 10.1433 9.85732 10.1198C9.86448 10.118 9.87161 10.1163 9.87873 10.1147ZM11.6299 1C5.82214 1 1.08984 5.73232 1.08984 11.54C1.08984 17.3477 5.82213 22.08 11.6299 22.08C17.4376 22.08 22.1699 17.3477 22.1699 11.54C22.1699 5.73232 17.4376 1 11.6299 1ZM0.0898438 11.54C0.0898438 5.18004 5.26985 0 11.6299 0C17.9899 0 23.1699 5.18004 23.1699 11.54C23.1699 17.9 17.9899 23.08 11.6299 23.08C5.26985 23.08 0.0898438 17.9 0.0898438 11.54Z" fill="#0F20E8"/>
</svg>
