<svg width="24" height="24" viewBox="0 0 24 24" fill="none" xmlns="http://www.w3.org/2000/svg">
<path d="M9.87805 10.9494C9.39805 10.7894 8.97805 10.9295 8.63805 11.2895C8.12805 11.8395 8.13805 12.7894 8.65805 13.3294C9.13805 13.8394 9.88805 13.8494 10.3781 13.3394C10.6581 13.0494 10.778 12.6995 10.778 12.2795C10.778 12.2295 10.778 12.1494 10.778 12.0794C10.698 11.5394 10.428 11.1195 9.88805 10.9395L9.87805 10.9494Z" fill="#0F20E8"/>
<path fill-rule="evenodd" clip-rule="evenodd" d="M9.66313 11.9318L9.56183 11.8981C9.52545 11.8859 9.50439 11.8841 9.49628 11.8838C9.48883 11.8836 9.48575 11.8844 9.48342 11.885C9.48087 11.8858 9.44019 11.8976 9.36871 11.9723C9.2227 12.1338 9.22635 12.4779 9.37837 12.6357L9.3863 12.644C9.44579 12.7072 9.49596 12.7167 9.52241 12.7169C9.54776 12.7171 9.59653 12.7095 9.65695 12.6466L9.65865 12.6448C9.72926 12.5717 9.77805 12.486 9.77805 12.2795V12.1657C9.75542 12.0571 9.72355 11.9987 9.70312 11.9712C9.69462 11.9597 9.68309 11.9461 9.66313 11.9318ZM9.88805 10.9395C10.428 11.1195 10.698 11.5394 10.778 12.0794V12.2795C10.778 12.6995 10.6581 13.0494 10.3781 13.3394C9.88805 13.8494 9.13805 13.8394 8.65805 13.3294C8.13805 12.7894 8.12805 11.8395 8.63805 11.2895C8.97805 10.9295 9.39805 10.7894 9.87805 10.9494L9.88805 10.9395Z" fill="#0F20E8"/>
<path d="M14.3088 10.8896C14.3088 10.8896 14.2088 10.8897 14.1388 10.9097C13.3888 11.0697 12.9288 11.8697 13.1388 12.6597C13.3388 13.4497 13.9988 13.8697 14.6988 13.6697C15.2088 13.5197 15.5588 13.0196 15.6188 12.3796C15.6788 11.5996 15.0888 10.8896 14.3088 10.8896Z" fill="#0F20E8"/>
<path fill-rule="evenodd" clip-rule="evenodd" d="M14.3088 10.8896C14.3088 10.8896 14.2088 10.8897 14.1388 10.9097C13.3888 11.0697 12.9288 11.8697 13.1388 12.6597C13.3388 13.4497 13.9988 13.8697 14.6988 13.6697C15.2088 13.5197 15.5588 13.0196 15.6188 12.3796C15.6788 11.5996 15.0888 10.8896 14.3088 10.8896ZM14.6223 12.2958C14.629 12.182 14.5892 12.0735 14.522 11.9958C14.4642 11.9288 14.3992 11.8973 14.3344 11.8909C14.2017 11.9286 14.0293 12.1171 14.1053 12.4028L14.1083 12.4142L14.1082 12.4142C14.1543 12.5962 14.2347 12.6706 14.2729 12.6952C14.3033 12.7149 14.3441 12.7299 14.4194 12.7095C14.4376 12.7036 14.4714 12.687 14.512 12.6298C14.5563 12.5673 14.6056 12.4576 14.6223 12.2958Z" fill="#0F20E8"/>
<path d="M11.9287 0.199219C5.56867 0.199219 0.388672 5.37926 0.388672 11.7393C0.388672 18.0993 5.56867 23.2793 11.9287 23.2793C18.2887 23.2793 23.4687 18.0993 23.4687 11.7393C23.4687 5.37926 18.2887 0.199219 11.9287 0.199219ZM19.1787 15.2893C19.1587 15.3893 19.0887 15.5093 19.0087 15.5693C17.9787 16.3293 16.8487 16.8993 15.6187 17.2793C15.5287 17.3093 15.3587 17.2493 15.3087 17.1693C15.0887 16.8593 14.8987 16.5292 14.6987 16.1992C14.5987 16.0392 14.6487 15.9593 14.8087 15.8893C15.1287 15.7493 15.4487 15.5993 15.7887 15.4393C15.6587 15.2293 15.5287 15.2493 15.3687 15.3193C14.3387 15.7693 13.2487 16.0193 12.1287 16.0493C10.8487 16.0793 9.61867 15.8193 8.44867 15.3193C8.23867 15.2293 8.23867 15.2293 8.03867 15.4293C8.36867 15.5893 8.67867 15.7493 9.00867 15.8793C9.18867 15.9493 9.23868 16.0392 9.12868 16.1992C8.92868 16.5092 8.73867 16.8293 8.53867 17.1493C8.45867 17.2793 8.35867 17.3193 8.19867 17.2693C6.99867 16.8793 5.87867 16.3193 4.86867 15.5693C4.75867 15.4893 4.67868 15.3293 4.65868 15.1893C4.40868 12.3293 5.12866 9.71922 6.67867 7.32922C6.77867 7.17922 6.92868 7.02924 7.09868 6.96924C7.93868 6.68924 8.78867 6.43932 9.63867 6.17932C9.81867 6.11932 9.95867 6.16923 10.0087 6.33923C10.1487 6.81923 10.4287 6.89925 10.9087 6.85925C11.7187 6.79925 12.5387 6.87927 13.3487 6.87927C13.4487 6.87927 13.5887 6.78923 13.6287 6.70923C13.9887 6.03923 13.7887 6.05929 14.6087 6.26929C15.3187 6.44929 16.0087 6.69922 16.6987 6.94922C16.8787 7.01922 17.0487 7.17923 17.1587 7.33923C18.6087 9.51923 19.2987 11.9293 19.2287 14.5493C19.2287 14.7893 19.2187 15.0193 19.1787 15.2593V15.2893Z" fill="#0F20E8"/>
<path fill-rule="evenodd" clip-rule="evenodd" d="M20.1787 15.3883L20.1592 15.4854C20.0973 15.795 19.9099 16.1434 19.6087 16.3693L19.6024 16.374C18.4831 17.1999 17.2539 17.82 15.9195 18.233C15.574 18.3427 15.2627 18.2605 15.1149 18.2082C14.9723 18.1577 14.6836 18.0295 14.4838 17.7349C14.2854 17.4539 14.1058 17.1544 13.9479 16.8911C13.9369 16.8728 13.926 16.8546 13.9152 16.8366C13.3395 16.9613 12.7516 17.033 12.1555 17.049L12.1521 17.049C11.3857 17.067 10.6373 16.9919 9.90965 16.834C9.81341 16.9855 9.72318 17.1328 9.62805 17.2881C9.55287 17.4108 9.47463 17.5385 9.38795 17.6772C9.27676 17.8567 9.07684 18.0943 8.7404 18.2166C8.40644 18.338 8.10081 18.2864 7.90039 18.2238L7.88956 18.2204C6.59622 17.8 5.37865 17.1931 4.27538 16.3743C3.8961 16.0958 3.7161 15.6624 3.66873 15.3308L3.66486 15.3037L3.66247 15.2764C3.39163 12.178 4.17765 9.34781 5.83966 6.7851L5.84655 6.77448C6.00744 6.53315 6.31011 6.1871 6.76586 6.02625L6.77413 6.02333L6.78245 6.02056C7.44073 5.80113 8.10859 5.5987 8.76235 5.40055C8.95546 5.34202 9.14734 5.28386 9.33737 5.22575C9.56378 5.15286 9.90002 5.10305 10.2529 5.24824C10.5664 5.37723 10.7729 5.60977 10.8917 5.85797C11.3307 5.82855 11.7606 5.835 12.1593 5.84723C12.2824 5.85101 12.4007 5.85523 12.5157 5.85934C12.6569 5.86439 12.7933 5.86926 12.928 5.87293C12.9286 5.87154 12.9294 5.87006 12.9301 5.86849C12.9699 5.78694 13.1268 5.46465 13.4722 5.27873C13.8568 5.07168 14.2371 5.15004 14.3542 5.17417L14.361 5.17558C14.4559 5.19503 14.5875 5.2298 14.7124 5.26279C14.7621 5.27592 14.8108 5.28876 14.8556 5.30025C15.6141 5.49263 16.3435 5.75692 17.0199 6.00198L17.0503 6.01299L17.0611 6.01721C17.4857 6.18234 17.7999 6.50681 17.9827 6.7727L17.9871 6.77903L17.9913 6.78541C19.5536 9.13425 20.3015 11.7428 20.2287 14.5628C20.2283 14.8013 20.2189 15.0588 20.1787 15.3364V15.3883ZM19.1787 15.2593C19.2187 15.0193 19.2287 14.7893 19.2287 14.5493C19.2987 11.9293 18.6087 9.51923 17.1587 7.33923C17.0487 7.17923 16.8787 7.01922 16.6987 6.94922C16.0087 6.69922 15.3187 6.44929 14.6087 6.26929C14.2 6.16462 14.0446 6.10713 13.9471 6.15877C13.8489 6.21073 13.8092 6.37318 13.6287 6.70923C13.5887 6.78923 13.4487 6.87927 13.3487 6.87927C13.0545 6.87927 12.7589 6.86872 12.4631 6.85815C11.9443 6.83962 11.4245 6.82105 10.9087 6.85925C10.4287 6.89925 10.1487 6.81923 10.0087 6.33923C9.95867 6.16923 9.81867 6.11932 9.63867 6.17932C9.44028 6.24 9.2419 6.30014 9.04364 6.36023C8.39244 6.55762 7.74262 6.75459 7.09868 6.96924C6.92868 7.02924 6.77867 7.17922 6.67867 7.32922C5.12866 9.71922 4.40868 12.3293 4.65868 15.1893C4.67868 15.3293 4.75867 15.4893 4.86867 15.5693C5.87867 16.3193 6.99867 16.8793 8.19867 17.2693C8.35867 17.3193 8.45867 17.2793 8.53867 17.1493C8.61527 17.0267 8.6904 16.9042 8.76519 16.7821C8.81094 16.7075 8.85655 16.6331 8.9023 16.559C8.97704 16.438 9.05213 16.3179 9.12868 16.1992C9.23868 16.0392 9.18867 15.9493 9.00867 15.8793C8.78025 15.7893 8.56142 15.685 8.3389 15.5762C8.33881 15.5762 8.33899 15.5762 8.3389 15.5762C8.3034 15.5588 8.26755 15.5413 8.23181 15.5237C8.168 15.4924 8.10372 15.4609 8.03867 15.4293C8.23866 15.2293 8.23867 15.2293 8.44864 15.3193C8.67205 15.4148 8.89767 15.5015 9.12538 15.5792C9.12583 15.5793 9.12627 15.5795 9.12672 15.5796C9.47059 15.6968 9.8193 15.7932 10.1726 15.8676C10.8101 16.002 11.4626 16.0649 12.1287 16.0493C12.6473 16.0354 13.1594 15.9744 13.6621 15.8681C14.0051 15.7957 14.3437 15.7022 14.677 15.5883C14.9103 15.5086 15.1409 15.4188 15.3687 15.3193C15.5287 15.2493 15.6587 15.2293 15.7887 15.4393C15.6854 15.4879 15.5839 15.5356 15.4838 15.5824C15.4837 15.5824 15.4838 15.5824 15.4838 15.5824C15.2543 15.6895 15.0314 15.7918 14.8087 15.8893C14.6487 15.9593 14.5987 16.0392 14.6987 16.1992C14.7373 16.2629 14.7755 16.3266 14.8136 16.3901C14.8482 16.4477 14.8827 16.5052 14.9174 16.5625C15.0425 16.7694 15.1696 16.9734 15.3087 17.1693C15.3587 17.2493 15.5287 17.3093 15.6187 17.2793C16.8487 16.8993 17.9787 16.3293 19.0087 15.5693C19.0887 15.5093 19.1587 15.3893 19.1787 15.2893V15.2593ZM11.9287 1.19922C6.12095 1.19922 1.38867 5.93154 1.38867 11.7393C1.38867 17.547 6.12095 22.2793 11.9287 22.2793C17.7364 22.2793 22.4687 17.547 22.4687 11.7393C22.4687 5.93154 17.7364 1.19922 11.9287 1.19922ZM0.388672 11.7393C0.388672 5.37926 5.56867 0.199219 11.9287 0.199219C18.2887 0.199219 23.4687 5.37926 23.4687 11.7393C23.4687 18.0993 18.2887 23.2793 11.9287 23.2793C5.56867 23.2793 0.388672 18.0993 0.388672 11.7393Z" fill="#0F20E8"/>
</svg>
