<svg width="24" height="24" viewBox="0 0 24 24" fill="none" xmlns="http://www.w3.org/2000/svg">
<path d="M12.2392 0.25C5.87923 0.25 0.699219 5.43004 0.699219 11.79C0.699219 18.15 5.87923 23.33 12.2392 23.33C18.5992 23.33 23.7792 18.15 23.7792 11.79C23.7792 5.43004 18.5992 0.25 12.2392 0.25ZM18.6392 8.83997C18.3992 9.09997 18.1692 9.35998 17.9092 9.59998C17.7592 9.73998 17.6792 9.88998 17.6792 10.1C17.6192 11.55 17.2492 12.91 16.4592 14.14C15.8792 15.05 15.0992 15.7501 14.1792 16.3101C12.3592 17.4001 10.4192 17.6 8.38922 17.04C7.90922 16.91 7.44922 16.7 6.97922 16.53C6.89922 16.5 6.82922 16.44 6.75922 16.4V16.33C6.98922 16.31 7.20921 16.29 7.42921 16.27C8.30921 16.19 9.12922 15.98 9.85922 15.46C9.91922 15.41 9.98922 15.3701 10.0492 15.3201C10.0792 15.3001 10.0892 15.27 10.1492 15.21C10.0092 15.16 9.88923 15.12 9.76923 15.08C9.38923 14.96 9.00921 14.85 8.67921 14.61C8.28921 14.34 8.04922 13.97 7.91922 13.5C8.20922 13.43 8.49922 13.51 8.83922 13.35C8.08922 13.04 7.47922 12.6601 7.19922 11.9401C7.07922 11.6201 7.02922 11.29 7.02922 10.92C7.32922 10.98 7.56922 11.19 7.93922 11.11C7.25922 10.43 6.89922 9.66999 7.03922 8.73999C7.08922 8.41999 7.14923 8.10005 7.37923 7.80005C8.59923 9.10005 9.97922 10.07 11.7592 10.34C12.0092 10.38 12.2692 10.5 12.5392 10.34C12.4792 9.86997 12.5292 9.41997 12.6992 8.96997C13.0092 8.15997 13.5892 7.64004 14.4292 7.42004C15.3192 7.18004 16.1192 7.32997 16.8092 7.96997C16.9592 8.10997 17.1092 8.12006 17.2792 8.06006C17.6092 7.94006 17.9392 7.81995 18.2692 7.69995C18.3292 7.67995 18.3892 7.66 18.5192 7.62C18.3992 8.17 17.9992 8.46996 17.6992 8.82996L17.7292 8.92004C18.0492 8.84004 18.3792 8.76005 18.7392 8.68005C18.7092 8.77005 18.6992 8.85001 18.6592 8.89001L18.6392 8.83997Z" fill="#0F20E8"/>
<path fill-rule="evenodd" clip-rule="evenodd" d="M19.5755 7.46982L20.2464 7.32073L19.6882 8.99545C19.688 8.99598 19.6866 9.00051 19.6831 9.01327C19.6828 9.01441 19.6823 9.01604 19.6818 9.0181C19.6778 9.03259 19.668 9.06823 19.658 9.10027C19.646 9.13901 19.6229 9.20934 19.5845 9.28865C19.5455 9.36922 19.4786 9.48483 19.3663 9.59712L18.6711 10.2924C18.5858 11.8367 18.1727 13.322 17.3016 14.679C16.6243 15.741 15.7227 16.5412 14.6992 17.1643L14.693 17.168C12.6203 18.4094 10.3962 18.6305 8.12553 18.0046C7.75317 17.9036 7.34359 17.7432 7.00837 17.6119C6.86998 17.5577 6.74427 17.5085 6.63908 17.4704L6.62807 17.4664C6.4808 17.4112 6.36803 17.3384 6.31742 17.3052C6.30322 17.2959 6.2902 17.2872 6.28085 17.2809L6.25886 17.2662C6.25748 17.2652 6.25632 17.2645 6.25537 17.2639L5.75922 16.9803V15.4131L6.67259 15.3337C6.90043 15.3139 7.11869 15.2941 7.33868 15.2741C7.50924 15.2586 7.67247 15.238 7.829 15.2113C7.38666 14.817 7.10855 14.3202 6.95541 13.7666L6.79107 13.1724C6.581 12.9306 6.40027 12.6447 6.26721 12.3025L6.26282 12.2912C6.09264 11.8374 6.02922 11.3846 6.02922 10.92V9.70024L6.05767 9.70593C5.99739 9.3575 5.99087 8.98628 6.05036 8.59113L6.05119 8.58561C6.10249 8.25731 6.18818 7.71001 6.58562 7.19162L7.30232 6.25679L8.10841 7.11573C9.15525 8.23122 10.25 9.00206 11.5757 9.2899C11.617 9.06405 11.6795 8.83969 11.7637 8.61657L11.7653 8.61253C12.1902 7.50238 13.0224 6.75583 14.1724 6.45358C15.2507 6.16373 16.3138 6.30593 17.2278 7.01465L17.9402 6.75554L17.953 6.75127C18.0181 6.72957 18.0858 6.7071 18.2251 6.66422L19.8611 6.16084L19.5755 7.46982ZM12.0553 10.4017C12.2129 10.431 12.3742 10.4378 12.5392 10.34C12.4792 9.86997 12.5292 9.41997 12.6992 8.96997C13.0092 8.15997 13.5892 7.64004 14.4292 7.42004C15.3192 7.18004 16.1192 7.32997 16.8092 7.96997C16.8787 8.03482 16.9482 8.07179 17.0197 8.08684C17.1025 8.10427 17.188 8.09227 17.2792 8.06006L18.2692 7.69995C18.2965 7.69087 18.3237 7.6818 18.3575 7.67086C18.3981 7.6577 18.4482 7.64184 18.5192 7.62C18.5125 7.65061 18.505 7.68046 18.4966 7.70958C18.4665 7.81465 18.426 7.91033 18.378 7.99913C18.3762 8.00258 18.3743 8.00602 18.3724 8.00945C18.3024 8.13693 18.2172 8.25026 18.1262 8.35702C18.1247 8.35877 18.1232 8.36053 18.1217 8.36228C18.0967 8.39156 18.0712 8.42035 18.0455 8.4488C18.0042 8.49453 17.9622 8.53941 17.9205 8.58408C17.8466 8.66317 17.7733 8.74163 17.705 8.82307C17.7031 8.82536 17.7011 8.82766 17.6992 8.82996L17.7292 8.92004C17.7492 8.91504 17.7692 8.91005 17.7893 8.90505C17.8832 8.88167 17.9781 8.8583 18.0744 8.83492C18.2136 8.80113 18.3559 8.76734 18.5028 8.73355C18.5084 8.73225 18.5141 8.73095 18.5197 8.72965C18.5917 8.71312 18.6648 8.69659 18.7392 8.68005C18.7304 8.70665 18.7232 8.73236 18.7166 8.75643C18.7107 8.77779 18.7051 8.79784 18.699 8.81606C18.6919 8.8375 18.6839 8.8564 18.6738 8.87188C18.6694 8.87859 18.6646 8.88466 18.6592 8.89001L18.6392 8.83997C18.6344 8.84518 18.6296 8.85038 18.6248 8.85559C18.6014 8.88099 18.5781 8.90638 18.5548 8.93174C18.542 8.94574 18.5292 8.95972 18.5164 8.9737C18.423 9.07561 18.3301 9.17698 18.2352 9.27662C18.13 9.3871 18.0225 9.49543 17.9092 9.59998C17.9065 9.60252 17.9038 9.60507 17.9011 9.60762C17.8933 9.6151 17.8856 9.62261 17.8781 9.63016C17.7814 9.72811 17.7184 9.83254 17.6926 9.95998C17.6837 10.0037 17.6792 10.0502 17.6792 10.1C17.6192 11.55 17.2492 12.91 16.4592 14.14C15.8792 15.05 15.0992 15.7501 14.1792 16.3101C12.4215 17.3627 10.5519 17.5853 8.59737 17.0949C8.5281 17.0775 8.45871 17.0592 8.38922 17.04C8.07709 16.9555 7.77341 16.8371 7.46993 16.7179C7.4623 16.7149 7.45466 16.7119 7.44702 16.7089C7.29146 16.6478 7.13589 16.5867 6.97922 16.53C6.92743 16.5106 6.87983 16.4786 6.8337 16.4476C6.81076 16.4322 6.78818 16.417 6.76563 16.4037C6.76349 16.4025 6.76135 16.4012 6.75922 16.4V16.33C6.7733 16.3287 6.78734 16.3275 6.80135 16.3263C6.88917 16.3186 6.97561 16.3109 7.06123 16.3033C7.06227 16.3032 7.06331 16.3031 7.06435 16.303C7.18708 16.292 7.30815 16.281 7.42921 16.27C7.83279 16.2333 8.22375 16.1693 8.59919 16.0605C8.75455 16.0155 8.90725 15.9629 9.05709 15.9014C9.23645 15.8277 9.41171 15.7413 9.58252 15.6401C9.58656 15.6377 9.59059 15.6353 9.59462 15.6329C9.68406 15.5794 9.77228 15.5219 9.85922 15.46C9.88922 15.435 9.92172 15.4125 9.95422 15.39C9.98672 15.3675 10.0192 15.3451 10.0492 15.3201C10.0646 15.3098 10.0747 15.2969 10.089 15.2787C10.1026 15.2614 10.12 15.2392 10.1492 15.21C10.0687 15.1812 9.99475 15.1557 9.92364 15.1317C9.90897 15.1267 9.89443 15.1218 9.87998 15.117C9.84268 15.1044 9.80595 15.0922 9.76923 15.08C9.74475 15.0722 9.72028 15.0645 9.69582 15.0569C9.64244 15.0401 9.58913 15.0233 9.53602 15.0062C9.51082 14.9981 9.48567 14.9899 9.46058 14.9816C9.31061 14.9318 9.16281 14.8776 9.02032 14.8101C8.90238 14.7542 8.78807 14.6892 8.67921 14.61C8.60836 14.5609 8.54245 14.5086 8.48126 14.4529C8.38915 14.3691 8.30772 14.2779 8.23614 14.1792C8.09353 13.9825 7.99005 13.7561 7.91922 13.5C8.03135 13.4729 8.14348 13.4683 8.2585 13.4635C8.44095 13.456 8.63068 13.4481 8.83922 13.35C8.78899 13.3292 8.73939 13.3081 8.69048 13.2867C8.32198 13.1249 7.99236 12.9408 7.72601 12.6996C7.67464 12.653 7.62562 12.6044 7.57913 12.5534C7.44564 12.4069 7.333 12.2408 7.24536 12.0492C7.22911 12.0137 7.21372 11.9774 7.19922 11.9401C7.17027 11.8629 7.14539 11.7851 7.12431 11.7063C7.058 11.4585 7.02922 11.2008 7.02922 10.92C7.13038 10.9403 7.22472 10.9776 7.31953 11.015C7.50587 11.0887 7.69399 11.163 7.93922 11.11C7.87661 11.0474 7.81671 10.9841 7.75967 10.92C7.51891 10.6498 7.32898 10.3662 7.20044 10.064C7.18072 10.0176 7.16244 9.97079 7.14565 9.92353C7.02911 9.59554 6.984 9.24553 7.02307 8.86713C7.02741 8.82511 7.03278 8.78273 7.03922 8.73999C7.08922 8.41999 7.14923 8.10005 7.37923 7.80005C7.61654 8.05292 7.8599 8.29331 8.11109 8.51848C9.09514 9.40062 10.1992 10.0493 11.5295 10.3009C11.6053 10.3152 11.6819 10.3282 11.7592 10.34C11.8132 10.3486 11.8676 10.361 11.9225 10.3734C11.9665 10.3834 12.0108 10.3935 12.0553 10.4017ZM12.2392 1.25C6.43152 1.25 1.69922 5.98232 1.69922 11.79C1.69922 17.5977 6.4315 22.33 12.2392 22.33C18.047 22.33 22.7792 17.5977 22.7792 11.79C22.7792 5.98232 18.0469 1.25 12.2392 1.25ZM0.699219 11.79C0.699219 5.43004 5.87923 0.25 12.2392 0.25C18.5992 0.25 23.7792 5.43004 23.7792 11.79C23.7792 18.15 18.5992 23.33 12.2392 23.33C5.87923 23.33 0.699219 18.15 0.699219 11.79Z" fill="#0F20E8"/>
</svg>
