<svg width="24" height="24" viewBox="0 0 24 24" fill="none" xmlns="http://www.w3.org/2000/svg">
<path d="M11.54 0.25C5.17999 0.25 0 5.43004 0 11.79C0 18.15 5.17999 23.33 11.54 23.33C17.9 23.33 23.08 18.15 23.08 11.79C23.08 5.43004 17.9 0.25 11.54 0.25ZM18.02 12.98C17.98 13.6 17.91 14.2101 17.82 14.8201C17.7 15.6901 17.04 16.24 16.16 16.24C14.63 16.24 13.11 16.24 11.58 16.24C10.05 16.24 8.5 16.24 6.97 16.24C6.32 16.24 5.82001 15.9901 5.49001 15.4401C5.38001 15.2601 5.29 15.0301 5.27 14.8201C5.18 13.9801 5.09 13.1501 5.05 12.3101C4.99 11.2201 5.09 10.13 5.22 9.04004C5.28 8.58004 5.38999 8.14006 5.75999 7.81006C6.07999 7.52006 6.44 7.35999 6.86 7.35999C7.36 7.35999 7.86 7.34998 8.36 7.34998C10.91 7.34998 13.46 7.34998 16.01 7.34998C16.6 7.34998 17.12 7.49999 17.51 7.98999C17.71 8.22999 17.8 8.52007 17.85 8.82007C18.07 10.2001 18.13 11.59 18.03 12.99L18.02 12.98Z" fill="#0F20E8"/>
<path fill-rule="evenodd" clip-rule="evenodd" d="M18.0307 12.9807C18.031 12.9766 18.0312 12.9725 18.0315 12.9685C18.0631 12.5185 18.0782 12.0695 18.0768 11.6215C18.0737 10.6832 17.9982 9.74938 17.85 8.82007C17.8 8.52007 17.71 8.22999 17.51 7.98999C17.12 7.49999 16.6 7.34998 16.01 7.34998H8.36C8.11 7.34998 7.86 7.35248 7.61 7.35498C7.36 7.35748 7.11 7.35999 6.86 7.35999C6.44 7.35999 6.07999 7.52006 5.75999 7.81006C5.38999 8.14006 5.28 8.58004 5.22 9.04004C5.09 10.13 4.99 11.2201 5.05 12.3101C5.08918 13.1328 5.17633 13.9459 5.26446 14.7683L5.27 14.8201C5.29 15.0301 5.38001 15.2601 5.49001 15.4401C5.82001 15.9901 6.32 16.24 6.97 16.24H16.16C17.04 16.24 17.7 15.6901 17.82 14.8201C17.847 14.637 17.8722 14.4538 17.8954 14.2704C17.9484 13.8499 17.9906 13.428 18.0186 13.0014C18.0189 12.9973 18.0191 12.9933 18.0194 12.9892C18.0196 12.9861 18.0198 12.9831 18.02 12.98L18.03 12.99C18.0302 12.9869 18.0304 12.9838 18.0307 12.9807ZM18.7768 15.1532C18.5127 16.428 17.4513 17.24 16.16 17.24H6.97C6.01336 17.24 5.16667 16.8422 4.63456 15.958C4.46833 15.6849 4.31395 15.3145 4.27518 14.9218L4.26891 14.8633C4.18178 14.0504 4.092 13.2128 4.05131 12.3613C3.98673 11.1816 4.09589 10.0213 4.22704 8.92161L4.22834 8.91069C4.29494 8.40011 4.44178 7.64774 5.09136 7.06646C5.56441 6.6388 6.15502 6.35999 6.86 6.35999C7.10416 6.35999 7.34916 6.35754 7.59999 6.35503L7.60254 6.355C7.8509 6.35252 8.10503 6.34998 8.36 6.34998H16.01C16.7799 6.34998 17.6419 6.55599 18.2857 7.35888C18.6432 7.7924 18.7737 8.27957 18.8364 8.65567L18.8376 8.66263C19.0697 10.1186 19.1329 11.5852 19.0275 13.0612L18.8713 15.2478L18.7768 15.1532ZM11.54 1.25C5.73228 1.25 1 5.98232 1 11.79C1 17.5977 5.73227 22.33 11.54 22.33C17.3477 22.33 22.08 17.5977 22.08 11.79C22.08 5.98232 17.3477 1.25 11.54 1.25ZM0 11.79C0 5.43004 5.17999 0.25 11.54 0.25C17.9 0.25 23.08 5.43004 23.08 11.79C23.08 18.15 17.9 23.33 11.54 23.33C5.17999 23.33 0 18.15 0 11.79Z" fill="#0F20E8"/>
<path d="M14.4498 11.8802L9.50977 14.4203V9.28027L14.4498 11.8802Z" fill="#0F20E8"/>
<path fill-rule="evenodd" clip-rule="evenodd" d="M14.4498 11.8802L9.50977 9.28027V14.4203L14.4498 11.8802ZM12.283 11.8699L10.5098 10.9366V12.7817L12.283 11.8699Z" fill="#0F20E8"/>
</svg>
