<svg width="167" height="52" viewBox="0 0 167 52" fill="none" xmlns="http://www.w3.org/2000/svg">
<path d="M160.18 1H7.12635C3.7639 1 1 3.81763 1 7.24548V44.7545C1 48.2003 3.74629 51 7.12635 51H160.18C163.542 51 166.306 48.1824 166.306 44.7545V7.24548C166.306 3.79968 163.56 1 160.18 1Z" stroke="#0F20E8" stroke-miterlimit="10"/>
<path d="M19.0255 30.8627L17.7931 33.2676C17.353 34.147 17.6699 35.2238 18.5325 35.6904C18.7966 35.834 19.0783 35.8878 19.3423 35.8878C19.9761 35.8878 20.5923 35.5289 20.9091 34.9187L22.9865 30.8447H19.0079L19.0255 30.8627Z" fill="#0F20E8"/>
<path fill-rule="evenodd" clip-rule="evenodd" d="M22.9865 30.8447L20.9091 34.9187C20.5923 35.5289 19.9761 35.8878 19.3423 35.8878C19.0783 35.8878 18.7966 35.834 18.5325 35.6904C17.6699 35.2238 17.353 34.147 17.7931 33.2676L19.0255 30.8627L19.0079 30.8447H22.9865Z" fill="#0F20E8"/>
<path d="M18.9037 30.1808H30.3818L28.5861 26.5915H25.1709L27.0017 23.0201L29.2727 18.5872L30.1529 16.8822C30.593 16.0028 30.2762 14.926 29.4135 14.4594C28.6742 14.0645 27.8291 14.2799 27.301 14.8901C26.7729 14.2799 25.9279 14.0645 25.1885 14.4594C24.3258 14.926 23.9914 16.0028 24.4491 16.8822L25.3293 18.5872L21.2275 26.5915H18.4812C17.5129 26.5915 16.7207 27.3991 16.7207 28.3862C16.7207 29.3732 17.5129 30.1808 18.4812 30.1808H18.9213H18.9037Z" fill="#0F20E8"/>
<path fill-rule="evenodd" clip-rule="evenodd" d="M25.1709 26.5915H28.5861L30.3818 30.1808H18.4812C17.5129 30.1808 16.7207 29.3732 16.7207 28.3862C16.7207 27.3991 17.5129 26.5915 18.4812 26.5915H21.2275L25.3293 18.5872L24.4491 16.8822C23.9914 16.0028 24.3258 14.926 25.1885 14.4594C25.7785 14.1443 26.4357 14.2178 26.9456 14.5704C27.0746 14.6596 27.1943 14.7668 27.301 14.8901C27.4077 14.7668 27.5274 14.6596 27.6565 14.5704C28.1663 14.2178 28.8235 14.1443 29.4135 14.4594C30.2762 14.926 30.593 16.0028 30.1529 16.8822L29.2727 18.5872L25.1709 26.5915ZM28.5168 16.198L27.301 17.6026L26.0852 16.198L27.3026 18.556L27.7148 17.7513L28.5168 16.198Z" fill="#0F20E8"/>
<path d="M37.8805 28.3861C37.8805 27.3991 37.0883 26.5915 36.1201 26.5915H33.3738L29.712 19.4307L27.6875 23.2174L29.3951 26.5556L31.6133 30.8628L33.6906 34.9368C34.0075 35.547 34.6237 35.9059 35.2574 35.9059C35.5391 35.9059 35.8032 35.8341 36.0672 35.7085C36.9299 35.2419 37.2643 34.165 36.8066 33.2856L35.2222 30.1988H36.1377C37.1059 30.1988 37.8981 29.3912 37.8981 28.4041L37.8805 28.3861Z" fill="#0F20E8"/>
<path fill-rule="evenodd" clip-rule="evenodd" d="M36.1201 28.4041V28.3861H32.3262L32.3354 28.4041H36.1201ZM35.2222 30.1988H36.1377C36.4789 30.1988 36.7982 30.0985 37.0688 29.9254C37.5659 29.6073 37.8981 29.0433 37.8981 28.4041L37.8805 28.3861C37.8805 27.3991 37.0883 26.5915 36.1201 26.5915H33.3738L29.712 19.4307L27.6875 23.2174L29.3951 26.5556L31.6133 30.8628L33.6906 34.9368C34.0075 35.547 34.6237 35.9059 35.2574 35.9059C35.5391 35.9059 35.8032 35.8341 36.0672 35.7085C36.9299 35.2419 37.2643 34.165 36.8066 33.2856L35.2222 30.1988ZM35.2486 34.1115C35.2488 34.1115 35.248 34.1117 35.2486 34.1115C35.2502 34.1111 35.2531 34.1103 35.2573 34.109C35.2573 34.109 35.2573 34.109 35.2573 34.109C35.2584 34.1096 35.2594 34.1102 35.2602 34.1106C35.2614 34.1111 35.2624 34.1114 35.2629 34.1116C35.2636 34.1118 35.2636 34.1107 35.2602 34.1106C35.2597 34.1105 35.258 34.1112 35.2574 34.1112C35.2521 34.1112 35.2496 34.1114 35.2486 34.1115ZM35.2474 34.0987L35.2526 34.109L35.2486 34.1115M35.2474 34.0987C35.2471 34.0982 35.2468 34.0976 35.2465 34.0971L35.2384 34.1014" fill="#0F20E8"/>
<path fill-rule="evenodd" clip-rule="evenodd" d="M27.283 9.97317C18.4937 9.97317 11.3686 17.2369 11.3686 26.1971C11.3686 35.1574 18.4937 42.4211 27.283 42.4211C36.0723 42.4211 43.1975 35.1574 43.1975 26.1971C43.1975 17.2369 36.0723 9.97317 27.283 9.97317ZM7.84766 26.1971C7.84766 15.2545 16.5492 6.38379 27.283 6.38379C38.0169 6.38379 46.7184 15.2545 46.7184 26.1971C46.7184 37.1398 38.0169 46.0105 27.283 46.0105C16.5492 46.0105 7.84766 37.1398 7.84766 26.1971Z" fill="#0F20E8"/>
<path d="M59.9707 20.8851C59.2102 20.8851 58.4966 20.7368 57.83 20.44C57.1728 20.1433 56.5906 19.7317 56.0836 19.2053C55.586 18.6693 55.1964 18.0567 54.9147 17.3675C54.633 16.6688 54.4922 15.9222 54.4922 15.1278C54.4922 14.3429 54.6283 13.6059 54.9006 12.9167C55.1823 12.218 55.5719 11.6054 56.0695 11.079C56.5766 10.5525 57.1587 10.1409 57.8159 9.84421C58.4825 9.53791 59.2008 9.38477 59.9707 9.38477C60.6467 9.38477 61.2617 9.48527 61.8157 9.68627C62.3696 9.88728 62.9048 10.2079 63.4212 10.6482C63.5057 10.7152 63.5526 10.7966 63.562 10.8923C63.5808 10.9784 63.5714 11.0646 63.5339 11.1507C63.4963 11.2273 63.44 11.2847 63.3649 11.323C63.3461 11.3996 63.2991 11.457 63.224 11.4953C63.1489 11.5336 63.0597 11.548 62.9564 11.5384C62.8625 11.5288 62.7686 11.4857 62.6748 11.4092C62.3086 11.0837 61.9095 10.8444 61.4776 10.6913C61.0458 10.5286 60.5434 10.4472 59.9707 10.4472C59.3604 10.4472 58.7877 10.5717 58.2525 10.8205C57.7267 11.0694 57.262 11.4092 56.8582 11.8399C56.4545 12.2706 56.1353 12.7684 55.9005 13.3331C55.6752 13.8978 55.5625 14.496 55.5625 15.1278C55.5625 15.7786 55.6752 16.3864 55.9005 16.9512C56.1353 17.5159 56.4545 18.0136 56.8582 18.4444C57.262 18.8751 57.7267 19.2149 58.2525 19.4637C58.7877 19.703 59.3604 19.8227 59.9707 19.8227C60.4871 19.8227 60.9753 19.7365 61.4354 19.5642C61.8955 19.3919 62.3321 19.1431 62.7452 18.8176C62.8578 18.7219 62.9752 18.6836 63.0973 18.7028C63.2287 18.7219 63.3414 18.7794 63.4353 18.8751C63.5292 18.9708 63.5761 19.0952 63.5761 19.2484C63.5761 19.3249 63.5667 19.3967 63.5479 19.4637C63.5292 19.5212 63.4869 19.5834 63.4212 19.6504C62.9423 20.1003 62.4072 20.4209 61.8157 20.6123C61.2241 20.7942 60.6092 20.8851 59.9707 20.8851ZM63.5761 19.2484L62.5058 19.0187V16.1328H60.3087C60.1491 16.1328 60.0176 16.0849 59.9144 15.9892C59.8111 15.8935 59.7594 15.7739 59.7594 15.6303C59.7594 15.4867 59.8111 15.3718 59.9144 15.2857C60.0176 15.19 60.1491 15.1421 60.3087 15.1421H63.0268C63.1865 15.1421 63.3179 15.1948 63.4212 15.3001C63.5245 15.3958 63.5761 15.525 63.5761 15.6877V19.2484Z" fill="#0F20E8"/>
<path d="M68.6256 20.8133C67.8651 20.8133 67.1891 20.6458 66.5976 20.3108C66.0155 19.9663 65.5554 19.4925 65.2174 18.8894C64.8888 18.2864 64.7245 17.5973 64.7245 16.822C64.7245 16.0371 64.8794 15.3479 65.1892 14.7545C65.5085 14.1515 65.945 13.6777 66.499 13.3331C67.053 12.9885 67.6914 12.8162 68.4144 12.8162C69.1279 12.8162 69.7476 12.9837 70.2734 13.3187C70.8086 13.6442 71.2217 14.0988 71.5128 14.6827C71.8038 15.2666 71.9493 15.9318 71.9493 16.6784C71.9493 16.8315 71.9024 16.956 71.8085 17.0517C71.7146 17.1378 71.5926 17.1809 71.4423 17.1809H65.4568V16.262H71.555L70.9494 16.7071C70.9588 16.1519 70.8602 15.6542 70.6537 15.2139C70.4471 14.7736 70.1513 14.429 69.7664 14.1802C69.3908 13.9313 68.9402 13.8069 68.4144 13.8069C67.8792 13.8069 67.4097 13.9361 67.006 14.1945C66.6023 14.453 66.2877 14.8119 66.0624 15.2713C65.8465 15.7212 65.7385 16.2381 65.7385 16.822C65.7385 17.4058 65.8605 17.9227 66.1047 18.3726C66.3582 18.8224 66.7009 19.1766 67.1328 19.435C67.5647 19.6935 68.0623 19.8227 68.6256 19.8227C68.9636 19.8227 69.3016 19.7652 69.6396 19.6504C69.987 19.526 70.264 19.3728 70.4706 19.1909C70.5738 19.1048 70.6912 19.0617 70.8227 19.0617C70.9541 19.0522 71.0668 19.0857 71.1607 19.1622C71.2827 19.2771 71.3438 19.4015 71.3438 19.5355C71.3531 19.6695 71.3015 19.7844 71.1888 19.8801C70.879 20.1481 70.4847 20.373 70.0058 20.5549C69.527 20.7272 69.0669 20.8133 68.6256 20.8133Z" fill="#0F20E8"/>
<path d="M76.7977 20.7416C76.3001 20.7416 75.8541 20.6219 75.4598 20.3826C75.0748 20.1433 74.7697 19.8179 74.5444 19.4063C74.319 18.9852 74.2064 18.5066 74.2064 17.9706V10.9497C74.2064 10.787 74.2533 10.653 74.3472 10.5477C74.4505 10.4424 74.5819 10.3898 74.7415 10.3898C74.9011 10.3898 75.0326 10.4424 75.1359 10.5477C75.2391 10.653 75.2908 10.787 75.2908 10.9497V17.9706C75.2908 18.4587 75.4316 18.8607 75.7133 19.1766C75.995 19.4829 76.3564 19.636 76.7977 19.636H77.178C77.3282 19.636 77.4503 19.6887 77.5442 19.794C77.6381 19.8992 77.685 20.0333 77.685 20.196C77.685 20.3587 77.6287 20.4927 77.516 20.598C77.4033 20.6937 77.2625 20.7416 77.0935 20.7416H76.7977ZM73.2909 14.1371C73.1501 14.1371 73.0327 14.094 72.9388 14.0079C72.8449 13.9122 72.798 13.7973 72.798 13.6633C72.798 13.5197 72.8449 13.4049 72.9388 13.3187C73.0327 13.223 73.1501 13.1751 73.2909 13.1751H76.8822C77.0231 13.1751 77.1404 13.223 77.2343 13.3187C77.3282 13.4049 77.3752 13.5197 77.3752 13.6633C77.3752 13.7973 77.3282 13.9122 77.2343 14.0079C77.1404 14.094 77.0231 14.1371 76.8822 14.1371H73.2909Z" fill="#0F20E8"/>
<path d="M84.3509 20.7416C84.1819 20.7416 84.0458 20.6937 83.9425 20.598C83.8486 20.4927 83.8017 20.3539 83.8017 20.1816V13.4479C83.8017 13.2757 83.8486 13.1416 83.9425 13.0459C84.0458 12.9406 84.1819 12.888 84.3509 12.888C84.5106 12.888 84.6373 12.9406 84.7312 13.0459C84.8345 13.1416 84.8861 13.2757 84.8861 13.4479V20.1816C84.8861 20.3539 84.8345 20.4927 84.7312 20.598C84.6373 20.6937 84.5106 20.7416 84.3509 20.7416ZM84.3369 11.3948C84.1303 11.3948 83.9519 11.3182 83.8017 11.1651C83.6515 11.0119 83.5763 10.8253 83.5763 10.6052C83.5763 10.3659 83.6515 10.1792 83.8017 10.0452C83.9613 9.90164 84.1444 9.82985 84.3509 9.82985C84.5481 9.82985 84.7218 9.90164 84.872 10.0452C85.0316 10.1792 85.1115 10.3659 85.1115 10.6052C85.1115 10.8253 85.0363 11.0119 84.8861 11.1651C84.7359 11.3182 84.5528 11.3948 84.3369 11.3948Z" fill="#0F20E8"/>
<path d="M90.6613 20.7416C90.1636 20.7416 89.7177 20.6219 89.3233 20.3826C88.9384 20.1433 88.6332 19.8179 88.4079 19.4063C88.1826 18.9852 88.0699 18.5066 88.0699 17.9706V10.9497C88.0699 10.787 88.1168 10.653 88.2107 10.5477C88.314 10.4424 88.4454 10.3898 88.6051 10.3898C88.7647 10.3898 88.8961 10.4424 88.9994 10.5477C89.1027 10.653 89.1543 10.787 89.1543 10.9497V17.9706C89.1543 18.4587 89.2952 18.8607 89.5768 19.1766C89.8585 19.4829 90.22 19.636 90.6613 19.636H91.0415C91.1917 19.636 91.3138 19.6887 91.4077 19.794C91.5016 19.8992 91.5485 20.0333 91.5485 20.196C91.5485 20.3587 91.4922 20.4927 91.3795 20.598C91.2669 20.6937 91.126 20.7416 90.957 20.7416H90.6613ZM87.1545 14.1371C87.0136 14.1371 86.8963 14.094 86.8024 14.0079C86.7085 13.9122 86.6615 13.7973 86.6615 13.6633C86.6615 13.5197 86.7085 13.4049 86.8024 13.3187C86.8963 13.223 87.0136 13.1751 87.1545 13.1751H90.7458C90.8866 13.1751 91.004 13.223 91.0979 13.3187C91.1917 13.4049 91.2387 13.5197 91.2387 13.6633C91.2387 13.7973 91.1917 13.9122 91.0979 14.0079C91.004 14.094 90.8866 14.1371 90.7458 14.1371H87.1545Z" fill="#0F20E8"/>
<path d="M100.947 20.8133C100.196 20.8133 99.5242 20.6411 98.9327 20.2965C98.3412 19.9519 97.8765 19.4781 97.5385 18.8751C97.2005 18.2721 97.0315 17.5877 97.0315 16.822C97.0315 16.0466 97.2005 15.3575 97.5385 14.7545C97.8765 14.1515 98.3412 13.6777 98.9327 13.3331C99.5242 12.9885 100.196 12.8162 100.947 12.8162C101.698 12.8162 102.364 12.9885 102.947 13.3331C103.538 13.6777 104.003 14.1515 104.341 14.7545C104.679 15.3575 104.853 16.0466 104.862 16.822C104.862 17.5877 104.688 18.2721 104.341 18.8751C104.003 19.4781 103.538 19.9519 102.947 20.2965C102.364 20.6411 101.698 20.8133 100.947 20.8133ZM100.947 19.8083C101.491 19.8083 101.979 19.6791 102.411 19.4207C102.843 19.1622 103.181 18.8081 103.425 18.3582C103.67 17.9083 103.792 17.3963 103.792 16.822C103.792 16.2477 103.67 15.7356 103.425 15.2857C103.181 14.8263 102.843 14.4673 102.411 14.2089C101.979 13.9505 101.491 13.8212 100.947 13.8212C100.402 13.8212 99.9139 13.9505 99.482 14.2089C99.0501 14.4673 98.7074 14.8263 98.4539 15.2857C98.2098 15.7356 98.0877 16.2477 98.0877 16.822C98.0877 17.3963 98.2098 17.9083 98.4539 18.3582C98.7074 18.8081 99.0501 19.1622 99.482 19.4207C99.9139 19.6791 100.402 19.8083 100.947 19.8083Z" fill="#0F20E8"/>
<path d="M113.576 20.7416C113.417 20.7416 113.285 20.6889 113.182 20.5836C113.079 20.4783 113.027 20.3491 113.027 20.196V16.463C113.027 15.8696 112.914 15.3814 112.689 14.9986C112.473 14.6157 112.173 14.3285 111.788 14.1371C111.412 13.9457 110.985 13.85 110.506 13.85C110.046 13.85 109.628 13.9409 109.253 14.1227C108.886 14.3046 108.595 14.5535 108.379 14.8693C108.163 15.1852 108.055 15.5441 108.055 15.9461H107.281C107.3 15.3431 107.459 14.8071 107.76 14.3381C108.06 13.8595 108.459 13.4862 108.957 13.2182C109.454 12.9406 110.008 12.8019 110.619 12.8019C111.285 12.8019 111.882 12.9454 112.407 13.2326C112.933 13.5102 113.346 13.9217 113.647 14.4673C113.957 15.0129 114.111 15.6781 114.111 16.463V20.196C114.111 20.3491 114.06 20.4783 113.957 20.5836C113.853 20.6889 113.726 20.7416 113.576 20.7416ZM107.52 20.7416C107.351 20.7416 107.215 20.6937 107.112 20.598C107.018 20.4927 106.971 20.3587 106.971 20.196V13.4479C106.971 13.2757 107.018 13.1416 107.112 13.0459C107.215 12.9406 107.351 12.888 107.52 12.888C107.68 12.888 107.807 12.9406 107.901 13.0459C108.004 13.1416 108.055 13.2757 108.055 13.4479V20.196C108.055 20.3587 108.004 20.4927 107.901 20.598C107.807 20.6937 107.68 20.7416 107.52 20.7416Z" fill="#0F20E8"/>
<path d="M54.4219 38.6888C54.206 38.6888 54.051 38.5979 53.9571 38.416C53.8633 38.2342 53.8539 38.0571 53.929 37.8848L58.0696 27.8633C58.1728 27.6048 58.3512 27.4756 58.6047 27.4756C58.8488 27.4756 59.0225 27.6048 59.1258 27.8633L63.2805 37.8992C63.365 38.081 63.3509 38.2581 63.2382 38.4304C63.135 38.6027 62.9847 38.6888 62.7876 38.6888C62.6749 38.6888 62.5716 38.6601 62.4777 38.6027C62.3932 38.5452 62.3228 38.4591 62.2665 38.3442L58.3935 28.7678H58.8301L54.9289 38.3442C54.882 38.4591 54.8116 38.5452 54.7177 38.6027C54.6332 38.6601 54.5346 38.6888 54.4219 38.6888ZM55.3514 36.0183L55.7739 35.0564H61.4919L61.9144 36.0183H55.3514Z" fill="#0F20E8"/>
<path d="M65.4793 38.6888C65.3197 38.6888 65.1882 38.6362 65.0849 38.5309C64.9817 38.4256 64.93 38.2916 64.93 38.1289V28.0355C64.93 27.8728 64.9817 27.7388 65.0849 27.6335C65.1882 27.5283 65.3197 27.4756 65.4793 27.4756H68.296C68.9908 27.4756 69.6058 27.6335 70.141 27.9494C70.6761 28.2557 71.0939 28.6816 71.3944 29.2272C71.6948 29.7728 71.8451 30.4045 71.8451 31.1224C71.8451 31.8211 71.6948 32.4433 71.3944 32.9889C71.0939 33.5249 70.6761 33.9508 70.141 34.2667C69.6058 34.573 68.9908 34.7261 68.296 34.7261H66.0285V38.1289C66.0285 38.2916 65.9769 38.4256 65.8736 38.5309C65.7703 38.6362 65.6389 38.6888 65.4793 38.6888ZM66.0285 33.6493H68.296C68.7748 33.6493 69.202 33.544 69.5776 33.3335C69.9532 33.1133 70.2442 32.8118 70.4508 32.4289C70.6667 32.0461 70.7747 31.6106 70.7747 31.1224C70.7747 30.6151 70.6667 30.17 70.4508 29.7872C70.2442 29.4043 69.9532 29.1028 69.5776 28.8826C69.202 28.6625 68.7748 28.5524 68.296 28.5524H66.0285V33.6493Z" fill="#0F20E8"/>
<path d="M74.1027 38.6888C73.9431 38.6888 73.8117 38.6362 73.7084 38.5309C73.6051 38.4256 73.5535 38.2916 73.5535 38.1289V28.0355C73.5535 27.8728 73.6051 27.7388 73.7084 27.6335C73.8117 27.5283 73.9431 27.4756 74.1027 27.4756H76.9194C77.6142 27.4756 78.2292 27.6335 78.7644 27.9494C79.2996 28.2557 79.7174 28.6816 80.0178 29.2272C80.3183 29.7728 80.4685 30.4045 80.4685 31.1224C80.4685 31.8211 80.3183 32.4433 80.0178 32.9889C79.7174 33.5249 79.2996 33.9508 78.7644 34.2667C78.2292 34.573 77.6142 34.7261 76.9194 34.7261H74.652V38.1289C74.652 38.2916 74.6004 38.4256 74.4971 38.5309C74.3938 38.6362 74.2623 38.6888 74.1027 38.6888ZM74.652 33.6493H76.9194C77.3983 33.6493 77.8255 33.544 78.2011 33.3335C78.5766 33.1133 78.8677 32.8118 79.0742 32.4289C79.2902 32.0461 79.3982 31.6106 79.3982 31.1224C79.3982 30.6151 79.2902 30.17 79.0742 29.7872C78.8677 29.4043 78.5766 29.1028 78.2011 28.8826C77.8255 28.6625 77.3983 28.5524 76.9194 28.5524H74.652V33.6493Z" fill="#0F20E8"/>
<path d="M89.683 38.8324C89.0821 38.8324 88.5235 38.7463 88.0071 38.574C87.5001 38.3921 87.0588 38.1385 86.6832 37.813C86.3077 37.4876 86.0213 37.1095 85.8241 36.6788C85.749 36.5256 85.7443 36.3868 85.81 36.2624C85.8852 36.1284 86.0072 36.0375 86.1762 35.9896C86.3077 35.9513 86.4344 35.9657 86.5565 36.0327C86.6879 36.0997 86.7865 36.2002 86.8522 36.3342C86.9931 36.6118 87.1996 36.8606 87.4719 37.0808C87.7442 37.3009 88.0681 37.4732 88.4437 37.5977C88.8192 37.7125 89.2324 37.7699 89.683 37.7699C90.1806 37.7699 90.6219 37.6886 91.0069 37.5259C91.3918 37.3536 91.6923 37.1095 91.9082 36.7936C92.1336 36.4682 92.2462 36.0758 92.2462 35.6163C92.2462 35.0324 92.035 34.5299 91.6125 34.1088C91.19 33.6876 90.528 33.4196 89.6267 33.3048C88.5282 33.1708 87.6691 32.8262 87.0494 32.271C86.4297 31.7063 86.1199 31.0171 86.1199 30.2035C86.1199 29.6197 86.2701 29.1124 86.5706 28.6816C86.8804 28.2509 87.3029 27.9207 87.8381 27.691C88.3733 27.4517 88.9882 27.332 89.683 27.332C90.1994 27.332 90.6689 27.4182 91.0914 27.5905C91.5139 27.7532 91.8801 27.9733 92.1899 28.2509C92.5091 28.5189 92.7673 28.8156 92.9645 29.1411C93.0584 29.2942 93.0866 29.4426 93.049 29.5862C93.0208 29.7297 92.941 29.8398 92.8096 29.9164C92.6688 29.9834 92.5232 29.993 92.373 29.9451C92.2322 29.8972 92.1242 29.8063 92.0491 29.6723C91.9082 29.4522 91.7298 29.2464 91.5139 29.0549C91.3073 28.8539 91.0538 28.696 90.7534 28.5811C90.4529 28.4663 90.0915 28.4041 89.6689 28.3945C88.9272 28.3945 88.331 28.5572 87.8803 28.8826C87.4297 29.1985 87.2043 29.6627 87.2043 30.2753C87.2043 30.6008 87.2888 30.9023 87.4578 31.1798C87.6268 31.4479 87.9038 31.6824 88.2888 31.8834C88.6831 32.0748 89.2089 32.2184 89.8661 32.3141C91.0397 32.4864 91.9082 32.8549 92.4716 33.4196C93.0443 33.9748 93.3307 34.7022 93.3307 35.602C93.3307 36.1188 93.2368 36.5783 93.049 36.9803C92.8706 37.3823 92.6124 37.7221 92.2744 37.9997C91.9458 38.2677 91.5561 38.4735 91.1055 38.617C90.6642 38.7606 90.19 38.8324 89.683 38.8324Z" fill="#0F20E8"/>
<path d="M98.2609 38.6888C98.1107 38.6888 97.9793 38.6362 97.8666 38.5309C97.7633 38.416 97.7117 38.282 97.7117 38.1289V27.4756H98.8102V38.1289C98.8102 38.282 98.7585 38.416 98.6553 38.5309C98.552 38.6362 98.4205 38.6888 98.2609 38.6888ZM94.3739 28.495C94.2236 28.495 94.1016 28.4471 94.0077 28.3514C93.9138 28.2557 93.8668 28.1361 93.8668 27.9925C93.8668 27.8393 93.9138 27.7149 94.0077 27.6192C94.1016 27.5235 94.2236 27.4756 94.3739 27.4756H102.162C102.312 27.4756 102.434 27.5235 102.528 27.6192C102.622 27.7149 102.669 27.8393 102.669 27.9925C102.669 28.1361 102.622 28.2557 102.528 28.3514C102.434 28.4471 102.312 28.495 102.162 28.495H94.3739Z" fill="#0F20E8"/>
<path d="M108.675 38.8324C107.858 38.8324 107.107 38.6888 106.422 38.4017C105.737 38.1145 105.14 37.7125 104.633 37.1956C104.136 36.6788 103.746 36.071 103.464 35.3722C103.192 34.6735 103.056 33.9078 103.056 33.075C103.056 32.2519 103.192 31.4909 103.464 30.7922C103.746 30.0935 104.136 29.4857 104.633 28.9688C105.14 28.4519 105.737 28.0499 106.422 27.7628C107.107 27.4756 107.858 27.332 108.675 27.332C109.483 27.332 110.229 27.4756 110.915 27.7628C111.6 28.0499 112.196 28.4519 112.703 28.9688C113.21 29.4857 113.6 30.0935 113.872 30.7922C114.154 31.4909 114.295 32.2519 114.295 33.075C114.295 33.9078 114.154 34.6735 113.872 35.3722C113.6 36.071 113.21 36.6788 112.703 37.1956C112.196 37.7125 111.6 38.1145 110.915 38.4017C110.229 38.6888 109.483 38.8324 108.675 38.8324ZM108.675 37.7699C109.323 37.7699 109.924 37.6551 110.478 37.4254C111.032 37.1861 111.511 36.8558 111.915 36.4347C112.328 36.004 112.647 35.5062 112.872 34.9415C113.098 34.3672 113.21 33.7451 113.21 33.075C113.21 32.4146 113.098 31.802 112.872 31.2373C112.647 30.663 112.328 30.1652 111.915 29.7441C111.511 29.3134 111.032 28.9831 110.478 28.7534C109.924 28.5141 109.323 28.3945 108.675 28.3945C108.018 28.3945 107.412 28.5141 106.859 28.7534C106.305 28.9831 105.821 29.3134 105.408 29.7441C105.004 30.1652 104.69 30.663 104.464 31.2373C104.239 31.802 104.126 32.4146 104.126 33.075C104.126 33.7451 104.239 34.3672 104.464 34.9415C104.69 35.5062 105.004 36.004 105.408 36.4347C105.821 36.8558 106.305 37.1861 106.859 37.4254C107.412 37.6551 108.018 37.7699 108.675 37.7699Z" fill="#0F20E8"/>
<path d="M117.11 38.6888C116.95 38.6888 116.819 38.6362 116.716 38.5309C116.612 38.4256 116.561 38.2916 116.561 38.1289V28.0355C116.561 27.8728 116.612 27.7388 116.716 27.6335C116.819 27.5283 116.95 27.4756 117.11 27.4756H119.744C120.429 27.4756 121.039 27.624 121.574 27.9207C122.11 28.2078 122.527 28.6146 122.828 29.1411C123.138 29.6579 123.293 30.2562 123.293 30.9358C123.293 31.5866 123.138 32.1657 122.828 32.673C122.527 33.1803 122.11 33.5775 121.574 33.8647C121.039 34.1518 120.429 34.2954 119.744 34.2954H117.659V38.1289C117.659 38.2916 117.608 38.4256 117.504 38.5309C117.401 38.6362 117.27 38.6888 117.11 38.6888ZM122.997 38.6888C122.875 38.6888 122.776 38.6649 122.701 38.617C122.635 38.5692 122.574 38.4974 122.518 38.4017L119.814 34.0083L120.913 33.7211L123.433 37.8274C123.574 38.0571 123.598 38.2581 123.504 38.4304C123.419 38.6027 123.25 38.6888 122.997 38.6888ZM117.659 33.2186H119.744C120.222 33.2186 120.645 33.1229 121.011 32.9315C121.387 32.7305 121.682 32.4577 121.898 32.1131C122.114 31.7685 122.222 31.3761 122.222 30.9358C122.222 30.4668 122.114 30.0552 121.898 29.701C121.682 29.3373 121.387 29.0549 121.011 28.8539C120.645 28.6529 120.222 28.5524 119.744 28.5524H117.659V33.2186Z" fill="#0F20E8"/>
<path d="M125.816 38.6888C125.656 38.6888 125.525 38.6362 125.422 38.5309C125.318 38.4256 125.267 38.2916 125.267 38.1289V28.0355C125.267 27.8728 125.318 27.7388 125.422 27.6335C125.525 27.5283 125.656 27.4756 125.816 27.4756H132.421C132.571 27.4756 132.698 27.5283 132.801 27.6335C132.914 27.7293 132.97 27.8585 132.97 28.0212C132.97 28.1648 132.914 28.2892 132.801 28.3945C132.698 28.4998 132.571 28.5524 132.421 28.5524H126.365V32.5151H130.773C130.933 32.5151 131.064 32.5677 131.168 32.673C131.271 32.7783 131.323 32.9075 131.323 33.0607C131.323 33.2138 131.271 33.343 131.168 33.4483C131.064 33.5536 130.933 33.6063 130.773 33.6063H126.365V37.612H132.421C132.571 37.612 132.698 37.6647 132.801 37.7699C132.914 37.8752 132.97 37.9997 132.97 38.1432C132.97 38.306 132.914 38.44 132.801 38.5452C132.698 38.641 132.571 38.6888 132.421 38.6888H125.816Z" fill="#0F20E8"/>
</svg>
