<svg width="719" height="175" viewBox="0 0 719 175" fill="none" xmlns="http://www.w3.org/2000/svg">
<path d="M7 0H720C720 96.6498 641.65 175 545 175H7V0Z" fill="#3F4DED"/>
<path d="M7 0H721V175H7V0Z" fill="#0F20E8"/>
<path d="M0 0H720C720 96.6498 641.65 175 545 175H0V0Z" fill="#3F4DED"/>
<g clip-path="url(#clip0_15590_70989)">
<path d="M697.242 174H721.001V150.207C708.192 150.828 697.862 161.138 697.242 174Z" fill="#3F4DED"/>
<path d="M673.482 174H697.241V150.207C684.432 150.828 674.102 161.138 673.482 174Z" fill="#3F4DED"/>
<path d="M649.725 174H673.483V150.207C660.674 150.828 650.344 161.138 649.725 174Z" fill="#3F4DED"/>
<path d="M626 174H649.759V150.207C636.915 150.828 626.585 161.138 626 174Z" fill="#3F4DED"/>
<path d="M697.242 150.207H721.001V126.414C708.192 127.035 697.862 137.345 697.242 150.207Z" fill="#3F4DED"/>
<path d="M697.242 126.414H721.001V102.621C708.192 103.242 697.862 113.587 697.242 126.414Z" fill="#3F4DED"/>
<path d="M697.242 102.793H721.001V79C708.192 79.6207 697.862 89.9655 697.242 102.793Z" fill="#3F4DED"/>
<path d="M673.482 150.207H697.241V126.414C684.432 127.035 674.102 137.345 673.482 150.207Z" fill="#3F4DED"/>
<path d="M673.482 126.414H697.241V102.621C684.432 103.242 674.102 113.587 673.482 126.414Z" fill="#3F4DED"/>
<path d="M649.725 150.207H673.483V126.414C660.674 127.035 650.344 137.345 649.725 150.207Z" fill="#3F4DED"/>
</g>
<defs>
<clipPath id="clip0_15590_70989">
<rect width="95" height="95" fill="white" transform="translate(626 79)"/>
</clipPath>
</defs>
</svg>
