<svg width="720" height="175" viewBox="0 0 720 175" fill="none" xmlns="http://www.w3.org/2000/svg">
<rect width="720" height="175" fill="#0F20E8"/>
<path d="M333.624 69C333.272 69 332.976 68.88 332.736 68.64C332.512 68.4 332.4 68.104 332.4 67.752V51.504C332.4 51.152 332.52 50.856 332.76 50.616C333 50.376 333.288 50.256 333.624 50.256C333.976 50.256 334.272 50.376 334.512 50.616C334.752 50.856 334.872 51.152 334.872 51.504V66.504H343.56C343.912 66.504 344.208 66.624 344.448 66.864C344.688 67.104 344.808 67.4 344.808 67.752C344.808 68.104 344.688 68.4 344.448 68.64C344.208 68.88 343.912 69 343.56 69H333.624ZM359.342 62.232C359.342 62.536 359.238 62.792 359.03 63C358.822 63.192 358.558 63.288 358.238 63.288H349.118C349.294 64.408 349.798 65.312 350.63 66C351.478 66.688 352.51 67.032 353.726 67.032C354.206 67.032 354.702 66.944 355.214 66.768C355.742 66.592 356.174 66.376 356.51 66.12C356.734 65.944 356.998 65.856 357.302 65.856C357.606 65.856 357.846 65.936 358.022 66.096C358.31 66.336 358.454 66.608 358.454 66.912C358.454 67.2 358.326 67.44 358.07 67.632C357.526 68.064 356.846 68.416 356.03 68.688C355.23 68.96 354.462 69.096 353.726 69.096C352.414 69.096 351.238 68.816 350.198 68.256C349.158 67.68 348.342 66.888 347.75 65.88C347.174 64.872 346.886 63.728 346.886 62.448C346.886 61.168 347.158 60.024 347.702 59.016C348.262 57.992 349.03 57.2 350.006 56.64C350.998 56.064 352.118 55.776 353.366 55.776C354.598 55.776 355.662 56.048 356.558 56.592C357.454 57.136 358.142 57.896 358.622 58.872C359.102 59.848 359.342 60.968 359.342 62.232ZM353.366 57.84C352.198 57.84 351.246 58.16 350.51 58.8C349.79 59.44 349.334 60.296 349.142 61.368H357.134C356.99 60.296 356.59 59.44 355.934 58.8C355.278 58.16 354.422 57.84 353.366 57.84ZM367.948 55.776C369.18 55.776 370.292 56.072 371.284 56.664C372.292 57.24 373.084 58.04 373.66 59.064C374.252 60.072 374.548 61.2 374.548 62.448V67.8C374.548 68.152 374.428 68.448 374.188 68.688C373.964 68.912 373.676 69.024 373.324 69.024C372.972 69.024 372.676 68.912 372.436 68.688C372.212 68.448 372.1 68.152 372.1 67.8V66.912C371.54 67.6 370.86 68.136 370.06 68.52C369.26 68.904 368.396 69.096 367.468 69.096C366.316 69.096 365.268 68.808 364.324 68.232C363.396 67.656 362.66 66.864 362.116 65.856C361.588 64.832 361.324 63.696 361.324 62.448C361.324 61.2 361.612 60.072 362.188 59.064C362.764 58.04 363.556 57.24 364.564 56.664C365.588 56.072 366.716 55.776 367.948 55.776ZM367.948 66.936C368.748 66.936 369.468 66.744 370.108 66.36C370.764 65.96 371.276 65.424 371.644 64.752C372.012 64.064 372.196 63.296 372.196 62.448C372.196 61.6 372.012 60.832 371.644 60.144C371.276 59.456 370.764 58.92 370.108 58.536C369.468 58.136 368.748 57.936 367.948 57.936C367.148 57.936 366.42 58.136 365.764 58.536C365.124 58.92 364.612 59.456 364.228 60.144C363.86 60.832 363.676 61.6 363.676 62.448C363.676 63.296 363.86 64.064 364.228 64.752C364.612 65.424 365.124 65.96 365.764 66.36C366.42 66.744 367.148 66.936 367.948 66.936ZM384.623 55.728C385.471 55.728 386.135 55.856 386.615 56.112C387.095 56.368 387.335 56.688 387.335 57.072C387.335 57.184 387.327 57.264 387.311 57.312C387.167 57.824 386.847 58.08 386.351 58.08C386.271 58.08 386.151 58.064 385.991 58.032C385.351 57.92 384.831 57.864 384.431 57.864C383.279 57.864 382.351 58.128 381.647 58.656C380.943 59.184 380.591 59.896 380.591 60.792V67.8C380.591 68.184 380.487 68.48 380.279 68.688C380.087 68.896 379.791 69 379.391 69C379.007 69 378.711 68.904 378.503 68.712C378.295 68.504 378.191 68.2 378.191 67.8V57.072C378.191 56.688 378.295 56.392 378.503 56.184C378.711 55.976 379.007 55.872 379.391 55.872C380.191 55.872 380.591 56.272 380.591 57.072V57.528C381.071 56.968 381.663 56.528 382.367 56.208C383.071 55.888 383.823 55.728 384.623 55.728ZM396.391 55.752C397.495 55.752 398.487 55.992 399.367 56.472C400.247 56.952 400.935 57.656 401.431 58.584C401.927 59.496 402.175 60.6 402.175 61.896V67.8C402.175 68.152 402.055 68.448 401.815 68.688C401.591 68.912 401.303 69.024 400.951 69.024C400.599 69.024 400.303 68.912 400.063 68.688C399.839 68.448 399.727 68.152 399.727 67.8V61.896C399.727 60.6 399.375 59.624 398.671 58.968C397.983 58.296 397.063 57.96 395.911 57.96C395.239 57.96 394.623 58.096 394.063 58.368C393.519 58.64 393.087 59.008 392.767 59.472C392.463 59.936 392.311 60.456 392.311 61.032V67.8C392.311 68.152 392.199 68.448 391.975 68.688C391.751 68.912 391.455 69.024 391.087 69.024C390.735 69.024 390.439 68.912 390.199 68.688C389.975 68.448 389.863 68.152 389.863 67.8V57.096C389.863 56.728 389.975 56.432 390.199 56.208C390.439 55.984 390.735 55.872 391.087 55.872C391.455 55.872 391.751 55.984 391.975 56.208C392.199 56.432 392.311 56.728 392.311 57.096V57.36C392.823 56.848 393.431 56.456 394.135 56.184C394.839 55.896 395.591 55.752 396.391 55.752ZM407.687 69C407.335 69 407.039 68.888 406.799 68.664C406.575 68.424 406.463 68.128 406.463 67.776V57.096C406.463 56.728 406.575 56.432 406.799 56.208C407.039 55.984 407.335 55.872 407.687 55.872C408.055 55.872 408.351 55.984 408.575 56.208C408.799 56.432 408.911 56.728 408.911 57.096V67.776C408.911 68.128 408.799 68.424 408.575 68.664C408.351 68.888 408.055 69 407.687 69ZM407.687 53.736C407.255 53.736 406.879 53.584 406.559 53.28C406.255 52.96 406.103 52.584 406.103 52.152C406.103 51.72 406.255 51.352 406.559 51.048C406.879 50.728 407.255 50.568 407.687 50.568C408.119 50.568 408.487 50.728 408.791 51.048C409.111 51.352 409.271 51.72 409.271 52.152C409.271 52.584 409.111 52.96 408.791 53.28C408.487 53.584 408.119 53.736 407.687 53.736ZM419.993 55.752C421.097 55.752 422.089 55.992 422.969 56.472C423.849 56.952 424.537 57.656 425.033 58.584C425.529 59.496 425.777 60.6 425.777 61.896V67.8C425.777 68.152 425.657 68.448 425.417 68.688C425.193 68.912 424.905 69.024 424.553 69.024C424.201 69.024 423.905 68.912 423.665 68.688C423.441 68.448 423.329 68.152 423.329 67.8V61.896C423.329 60.6 422.977 59.624 422.273 58.968C421.585 58.296 420.665 57.96 419.513 57.96C418.841 57.96 418.225 58.096 417.665 58.368C417.121 58.64 416.689 59.008 416.369 59.472C416.065 59.936 415.913 60.456 415.913 61.032V67.8C415.913 68.152 415.801 68.448 415.577 68.688C415.353 68.912 415.057 69.024 414.689 69.024C414.337 69.024 414.041 68.912 413.801 68.688C413.577 68.448 413.465 68.152 413.465 67.8V57.096C413.465 56.728 413.577 56.432 413.801 56.208C414.041 55.984 414.337 55.872 414.689 55.872C415.057 55.872 415.353 55.984 415.577 56.208C415.801 56.432 415.913 56.728 415.913 57.096V57.36C416.425 56.848 417.033 56.456 417.737 56.184C418.441 55.896 419.193 55.752 419.993 55.752ZM435.776 55.776C437.04 55.776 438.168 56.064 439.16 56.64C440.168 57.2 440.952 57.984 441.512 58.992C442.088 60 442.376 61.152 442.376 62.448V67.632C442.376 68.896 442.096 70.048 441.536 71.088C440.976 72.128 440.184 72.944 439.16 73.536C438.152 74.144 437.008 74.448 435.728 74.448C434.576 74.448 433.504 74.216 432.512 73.752C431.52 73.304 430.688 72.656 430.016 71.808C429.84 71.584 429.752 71.36 429.752 71.136C429.752 70.8 429.92 70.512 430.256 70.272C430.48 70.128 430.704 70.056 430.928 70.056C431.328 70.056 431.656 70.224 431.912 70.56C432.344 71.12 432.888 71.544 433.544 71.832C434.2 72.136 434.944 72.288 435.776 72.288C436.56 72.288 437.272 72.096 437.912 71.712C438.552 71.344 439.064 70.792 439.448 70.056C439.832 69.336 440.024 68.472 440.024 67.464V66.288C439.528 67.168 438.872 67.856 438.056 68.352C437.24 68.848 436.32 69.096 435.296 69.096C434.112 69.096 433.048 68.816 432.104 68.256C431.176 67.68 430.448 66.888 429.92 65.88C429.408 64.872 429.152 63.728 429.152 62.448C429.152 61.152 429.432 60 429.992 58.992C430.552 57.984 431.336 57.2 432.344 56.64C433.352 56.064 434.496 55.776 435.776 55.776ZM435.776 66.936C436.592 66.936 437.32 66.744 437.96 66.36C438.616 65.976 439.12 65.448 439.472 64.776C439.84 64.088 440.024 63.312 440.024 62.448C440.024 61.584 439.84 60.808 439.472 60.12C439.12 59.432 438.616 58.896 437.96 58.512C437.32 58.128 436.592 57.936 435.776 57.936C434.96 57.936 434.224 58.128 433.568 58.512C432.928 58.896 432.424 59.432 432.056 60.12C431.688 60.808 431.504 61.584 431.504 62.448C431.504 63.312 431.688 64.088 432.056 64.776C432.424 65.448 432.928 65.976 433.568 66.36C434.224 66.744 434.96 66.936 435.776 66.936ZM461.691 69.24C459.979 69.24 458.411 68.816 456.987 67.968C455.579 67.12 454.467 65.96 453.651 64.488C452.835 63.016 452.427 61.392 452.427 59.616C452.427 57.856 452.835 56.248 453.651 54.792C454.467 53.32 455.579 52.16 456.987 51.312C458.411 50.448 459.979 50.016 461.691 50.016C462.907 50.016 463.955 50.176 464.835 50.496C465.731 50.816 466.635 51.344 467.547 52.08C467.739 52.224 467.867 52.376 467.931 52.536C467.995 52.68 468.027 52.856 468.027 53.064C468.027 53.384 467.907 53.648 467.667 53.856C467.443 54.064 467.179 54.168 466.875 54.168C466.571 54.168 466.291 54.064 466.035 53.856C465.379 53.296 464.739 52.896 464.115 52.656C463.491 52.4 462.683 52.272 461.691 52.272C460.443 52.272 459.291 52.6 458.235 53.256C457.195 53.912 456.363 54.808 455.739 55.944C455.131 57.064 454.827 58.288 454.827 59.616C454.827 60.96 455.131 62.192 455.739 63.312C456.363 64.432 457.195 65.32 458.235 65.976C459.291 66.632 460.443 66.96 461.691 66.96C463.227 66.96 464.699 66.432 466.107 65.376C466.379 65.184 466.643 65.088 466.899 65.088C467.203 65.088 467.451 65.2 467.643 65.424C467.851 65.632 467.955 65.912 467.955 66.264C467.955 66.6 467.827 66.896 467.571 67.152C465.843 68.544 463.883 69.24 461.691 69.24ZM482.53 62.232C482.53 62.536 482.426 62.792 482.218 63C482.01 63.192 481.746 63.288 481.426 63.288H472.306C472.482 64.408 472.986 65.312 473.818 66C474.666 66.688 475.698 67.032 476.914 67.032C477.394 67.032 477.89 66.944 478.402 66.768C478.93 66.592 479.362 66.376 479.698 66.12C479.922 65.944 480.186 65.856 480.49 65.856C480.794 65.856 481.034 65.936 481.21 66.096C481.498 66.336 481.642 66.608 481.642 66.912C481.642 67.2 481.514 67.44 481.258 67.632C480.714 68.064 480.034 68.416 479.218 68.688C478.418 68.96 477.65 69.096 476.914 69.096C475.602 69.096 474.426 68.816 473.386 68.256C472.346 67.68 471.53 66.888 470.938 65.88C470.362 64.872 470.074 63.728 470.074 62.448C470.074 61.168 470.346 60.024 470.89 59.016C471.45 57.992 472.218 57.2 473.194 56.64C474.186 56.064 475.306 55.776 476.554 55.776C477.786 55.776 478.85 56.048 479.746 56.592C480.642 57.136 481.33 57.896 481.81 58.872C482.29 59.848 482.53 60.968 482.53 62.232ZM476.554 57.84C475.386 57.84 474.434 58.16 473.698 58.8C472.978 59.44 472.522 60.296 472.33 61.368H480.322C480.178 60.296 479.778 59.44 479.122 58.8C478.466 58.16 477.61 57.84 476.554 57.84ZM492.18 55.752C493.284 55.752 494.276 55.992 495.156 56.472C496.036 56.952 496.724 57.656 497.22 58.584C497.716 59.496 497.964 60.6 497.964 61.896V67.8C497.964 68.152 497.844 68.448 497.604 68.688C497.38 68.912 497.092 69.024 496.74 69.024C496.388 69.024 496.092 68.912 495.852 68.688C495.628 68.448 495.516 68.152 495.516 67.8V61.896C495.516 60.6 495.164 59.624 494.46 58.968C493.772 58.296 492.852 57.96 491.7 57.96C491.028 57.96 490.412 58.096 489.852 58.368C489.308 58.64 488.876 59.008 488.556 59.472C488.252 59.936 488.1 60.456 488.1 61.032V67.8C488.1 68.152 487.988 68.448 487.764 68.688C487.54 68.912 487.244 69.024 486.876 69.024C486.524 69.024 486.228 68.912 485.988 68.688C485.764 68.448 485.652 68.152 485.652 67.8V57.096C485.652 56.728 485.764 56.432 485.988 56.208C486.228 55.984 486.524 55.872 486.876 55.872C487.244 55.872 487.54 55.984 487.764 56.208C487.988 56.432 488.1 56.728 488.1 57.096V57.36C488.612 56.848 489.22 56.456 489.924 56.184C490.628 55.896 491.38 55.752 492.18 55.752ZM507.604 66.6C507.892 66.6 508.132 66.712 508.324 66.936C508.532 67.16 508.636 67.448 508.636 67.8C508.636 68.152 508.5 68.44 508.228 68.664C507.972 68.888 507.636 69 507.22 69H506.788C506.004 69 505.284 68.8 504.628 68.4C503.988 67.984 503.484 67.424 503.116 66.72C502.748 66.016 502.564 65.224 502.564 64.344V58.416H501.46C501.124 58.416 500.852 58.32 500.644 58.128C500.436 57.936 500.332 57.696 500.332 57.408C500.332 57.088 500.436 56.832 500.644 56.64C500.852 56.448 501.124 56.352 501.46 56.352H502.564V52.896C502.564 52.544 502.676 52.256 502.9 52.032C503.124 51.808 503.412 51.696 503.764 51.696C504.116 51.696 504.404 51.808 504.628 52.032C504.852 52.256 504.964 52.544 504.964 52.896V56.352H507.004C507.34 56.352 507.612 56.448 507.82 56.64C508.028 56.832 508.132 57.088 508.132 57.408C508.132 57.696 508.028 57.936 507.82 58.128C507.612 58.32 507.34 58.416 507.004 58.416H504.964V64.344C504.964 64.984 505.14 65.52 505.492 65.952C505.844 66.384 506.276 66.6 506.788 66.6H507.604ZM523.428 62.232C523.428 62.536 523.324 62.792 523.116 63C522.908 63.192 522.644 63.288 522.324 63.288H513.204C513.38 64.408 513.884 65.312 514.716 66C515.564 66.688 516.596 67.032 517.812 67.032C518.292 67.032 518.788 66.944 519.3 66.768C519.828 66.592 520.26 66.376 520.596 66.12C520.82 65.944 521.084 65.856 521.388 65.856C521.692 65.856 521.932 65.936 522.108 66.096C522.396 66.336 522.54 66.608 522.54 66.912C522.54 67.2 522.412 67.44 522.156 67.632C521.612 68.064 520.932 68.416 520.116 68.688C519.316 68.96 518.548 69.096 517.812 69.096C516.5 69.096 515.324 68.816 514.284 68.256C513.244 67.68 512.428 66.888 511.836 65.88C511.26 64.872 510.972 63.728 510.972 62.448C510.972 61.168 511.244 60.024 511.788 59.016C512.348 57.992 513.116 57.2 514.092 56.64C515.084 56.064 516.204 55.776 517.452 55.776C518.684 55.776 519.748 56.048 520.644 56.592C521.54 57.136 522.228 57.896 522.708 58.872C523.188 59.848 523.428 60.968 523.428 62.232ZM517.452 57.84C516.284 57.84 515.332 58.16 514.596 58.8C513.876 59.44 513.42 60.296 513.228 61.368H521.22C521.076 60.296 520.676 59.44 520.02 58.8C519.364 58.16 518.508 57.84 517.452 57.84ZM532.983 55.728C533.831 55.728 534.495 55.856 534.975 56.112C535.455 56.368 535.695 56.688 535.695 57.072C535.695 57.184 535.687 57.264 535.671 57.312C535.527 57.824 535.207 58.08 534.711 58.08C534.631 58.08 534.511 58.064 534.351 58.032C533.711 57.92 533.191 57.864 532.791 57.864C531.639 57.864 530.711 58.128 530.007 58.656C529.303 59.184 528.951 59.896 528.951 60.792V67.8C528.951 68.184 528.847 68.48 528.639 68.688C528.447 68.896 528.151 69 527.751 69C527.367 69 527.071 68.904 526.863 68.712C526.655 68.504 526.551 68.2 526.551 67.8V57.072C526.551 56.688 526.655 56.392 526.863 56.184C527.071 55.976 527.367 55.872 527.751 55.872C528.551 55.872 528.951 56.272 528.951 57.072V57.528C529.431 56.968 530.023 56.528 530.727 56.208C531.431 55.888 532.183 55.728 532.983 55.728Z" fill="white"/>
<rect x="330" y="88" width="163" height="40" rx="8" fill="#3F4DED"/>
<path d="M410.764 106.52C410.998 106.52 411.19 106.6 411.34 106.76C411.5 106.909 411.58 107.107 411.58 107.352V111.176C411.58 111.432 411.494 111.629 411.324 111.768C410.204 112.696 408.897 113.16 407.404 113.16C406.262 113.16 405.217 112.877 404.268 112.312C403.329 111.747 402.588 110.973 402.044 109.992C401.5 109.011 401.228 107.928 401.228 106.744C401.228 105.571 401.5 104.499 402.044 103.528C402.588 102.547 403.329 101.773 404.268 101.208C405.217 100.632 406.262 100.344 407.404 100.344C408.214 100.344 408.913 100.451 409.5 100.664C410.097 100.877 410.7 101.229 411.308 101.72C411.436 101.816 411.521 101.917 411.564 102.024C411.606 102.12 411.628 102.237 411.628 102.376C411.628 102.589 411.548 102.765 411.388 102.904C411.238 103.043 411.057 103.112 410.844 103.112C410.652 103.112 410.47 103.043 410.3 102.904C409.862 102.531 409.436 102.264 409.02 102.104C408.604 101.933 408.065 101.848 407.404 101.848C406.572 101.848 405.804 102.067 405.1 102.504C404.406 102.941 403.852 103.539 403.436 104.296C403.03 105.043 402.828 105.859 402.828 106.744C402.828 107.64 403.03 108.461 403.436 109.208C403.852 109.955 404.406 110.547 405.1 110.984C405.804 111.421 406.572 111.64 407.404 111.64C408.3 111.64 409.158 111.373 409.98 110.84V107.992H407.772C407.526 107.992 407.324 107.923 407.164 107.784C407.014 107.645 406.94 107.469 406.94 107.256C406.94 107.043 407.014 106.867 407.164 106.728C407.324 106.589 407.526 106.52 407.772 106.52H410.764ZM417.409 113.064C416.555 113.064 415.792 112.877 415.12 112.504C414.448 112.12 413.926 111.592 413.552 110.92C413.179 110.248 412.992 109.485 412.992 108.632C412.992 107.768 413.179 107 413.552 106.328C413.926 105.656 414.448 105.133 415.12 104.76C415.792 104.376 416.555 104.184 417.409 104.184C418.251 104.184 419.003 104.376 419.665 104.76C420.337 105.133 420.859 105.656 421.233 106.328C421.617 107 421.809 107.768 421.809 108.632C421.809 109.485 421.622 110.248 421.248 110.92C420.875 111.592 420.353 112.12 419.681 112.504C419.019 112.877 418.262 113.064 417.409 113.064ZM417.409 111.624C417.953 111.624 418.438 111.496 418.865 111.24C419.302 110.984 419.638 110.632 419.872 110.184C420.118 109.725 420.241 109.208 420.241 108.632C420.241 108.056 420.118 107.539 419.872 107.08C419.638 106.621 419.302 106.264 418.865 106.008C418.438 105.752 417.953 105.624 417.409 105.624C416.864 105.624 416.374 105.752 415.936 106.008C415.51 106.264 415.174 106.621 414.928 107.08C414.683 107.539 414.56 108.056 414.56 108.632C414.56 109.208 414.683 109.725 414.928 110.184C415.174 110.632 415.51 110.984 415.936 111.24C416.374 111.496 416.864 111.624 417.409 111.624Z" fill="white"/>
</svg>
