<svg width="719" height="175" viewBox="0 0 719 175" fill="none" xmlns="http://www.w3.org/2000/svg">
<path d="M7 0H720V0C720 96.6498 641.65 175 545 175H7V0Z" fill="#3F4DED"/>
<path d="M7 0H721V175H7V0Z" fill="#0F20E8"/>
<path d="M0 0H720V0C720 96.6498 641.65 175 545 175H0V0Z" fill="#3F4DED"/>
<path d="M90.84 40.28C91.192 40.28 91.48 40.4 91.704 40.64C91.944 40.864 92.064 41.16 92.064 41.528V47.264C92.064 47.648 91.936 47.944 91.68 48.152C90 49.544 88.04 50.24 85.8 50.24C84.088 50.24 82.52 49.816 81.096 48.968C79.688 48.12 78.576 46.96 77.76 45.488C76.944 44.016 76.536 42.392 76.536 40.616C76.536 38.856 76.944 37.248 77.76 35.792C78.576 34.32 79.688 33.16 81.096 32.312C82.52 31.448 84.088 31.016 85.8 31.016C87.016 31.016 88.064 31.176 88.944 31.496C89.84 31.816 90.744 32.344 91.656 33.08C91.848 33.224 91.976 33.376 92.04 33.536C92.104 33.68 92.136 33.856 92.136 34.064C92.136 34.384 92.016 34.648 91.776 34.856C91.552 35.064 91.28 35.168 90.96 35.168C90.672 35.168 90.4 35.064 90.144 34.856C89.488 34.296 88.848 33.896 88.224 33.656C87.6 33.4 86.792 33.272 85.8 33.272C84.552 33.272 83.4 33.6 82.344 34.256C81.304 34.912 80.472 35.808 79.848 36.944C79.24 38.064 78.936 39.288 78.936 40.616C78.936 41.96 79.24 43.192 79.848 44.312C80.472 45.432 81.304 46.32 82.344 46.976C83.4 47.632 84.552 47.96 85.8 47.96C87.144 47.96 88.432 47.56 89.664 46.76V42.488H86.352C85.984 42.488 85.68 42.384 85.44 42.176C85.216 41.968 85.104 41.704 85.104 41.384C85.104 41.064 85.216 40.8 85.44 40.592C85.68 40.384 85.984 40.28 86.352 40.28H90.84ZM106.639 43.232C106.639 43.536 106.535 43.792 106.327 44C106.119 44.192 105.855 44.288 105.535 44.288H96.4153C96.5913 45.408 97.0953 46.312 97.9273 47C98.7753 47.688 99.8073 48.032 101.023 48.032C101.503 48.032 101.999 47.944 102.511 47.768C103.039 47.592 103.471 47.376 103.807 47.12C104.031 46.944 104.295 46.856 104.599 46.856C104.903 46.856 105.143 46.936 105.319 47.096C105.607 47.336 105.751 47.608 105.751 47.912C105.751 48.2 105.623 48.44 105.367 48.632C104.823 49.064 104.143 49.416 103.327 49.688C102.527 49.96 101.759 50.096 101.023 50.096C99.7113 50.096 98.5353 49.816 97.4953 49.256C96.4553 48.68 95.6393 47.888 95.0473 46.88C94.4713 45.872 94.1833 44.728 94.1833 43.448C94.1833 42.168 94.4553 41.024 94.9993 40.016C95.5593 38.992 96.3273 38.2 97.3033 37.64C98.2953 37.064 99.4153 36.776 100.663 36.776C101.895 36.776 102.959 37.048 103.855 37.592C104.751 38.136 105.439 38.896 105.919 39.872C106.399 40.848 106.639 41.968 106.639 43.232ZM100.663 38.84C99.4953 38.84 98.5433 39.16 97.8073 39.8C97.0873 40.44 96.6313 41.296 96.4393 42.368H104.431C104.287 41.296 103.887 40.44 103.231 39.8C102.575 39.16 101.719 38.84 100.663 38.84ZM115.354 47.6C115.642 47.6 115.882 47.712 116.074 47.936C116.282 48.16 116.386 48.448 116.386 48.8C116.386 49.152 116.25 49.44 115.978 49.664C115.722 49.888 115.386 50 114.97 50H114.538C113.754 50 113.034 49.8 112.378 49.4C111.738 48.984 111.234 48.424 110.866 47.72C110.498 47.016 110.314 46.224 110.314 45.344V39.416H109.21C108.874 39.416 108.602 39.32 108.394 39.128C108.186 38.936 108.082 38.696 108.082 38.408C108.082 38.088 108.186 37.832 108.394 37.64C108.602 37.448 108.874 37.352 109.21 37.352H110.314V33.896C110.314 33.544 110.426 33.256 110.65 33.032C110.874 32.808 111.162 32.696 111.514 32.696C111.866 32.696 112.154 32.808 112.378 33.032C112.602 33.256 112.714 33.544 112.714 33.896V37.352H114.754C115.09 37.352 115.362 37.448 115.57 37.64C115.778 37.832 115.882 38.088 115.882 38.408C115.882 38.696 115.778 38.936 115.57 39.128C115.362 39.32 115.09 39.416 114.754 39.416H112.714V45.344C112.714 45.984 112.89 46.52 113.242 46.952C113.594 47.384 114.026 47.6 114.538 47.6H115.354ZM132.618 50.24C131.066 50.24 129.65 49.888 128.37 49.184C127.106 48.48 126.234 47.56 125.754 46.424C125.674 46.232 125.634 46.072 125.634 45.944C125.634 45.704 125.722 45.496 125.898 45.32C126.074 45.128 126.314 45 126.618 44.936C126.666 44.92 126.746 44.912 126.858 44.912C127.114 44.912 127.354 44.992 127.578 45.152C127.818 45.296 127.994 45.496 128.106 45.752C128.394 46.376 128.962 46.904 129.81 47.336C130.658 47.768 131.594 47.984 132.618 47.984C133.818 47.984 134.834 47.712 135.666 47.168C136.498 46.608 136.914 45.848 136.914 44.888C136.914 43.976 136.562 43.2 135.858 42.56C135.154 41.904 134.082 41.504 132.642 41.36C130.658 41.168 129.098 40.592 127.962 39.632C126.826 38.656 126.258 37.44 126.258 35.984C126.258 34.96 126.546 34.08 127.122 33.344C127.714 32.592 128.514 32.024 129.522 31.64C130.546 31.24 131.69 31.04 132.954 31.04C134.33 31.04 135.49 31.32 136.434 31.88C137.378 32.44 138.178 33.24 138.834 34.28C139.026 34.584 139.122 34.872 139.122 35.144C139.122 35.496 138.962 35.784 138.642 36.008C138.466 36.12 138.258 36.176 138.018 36.176C137.778 36.176 137.554 36.12 137.346 36.008C137.138 35.88 136.978 35.712 136.866 35.504C136.434 34.784 135.89 34.24 135.234 33.872C134.594 33.488 133.778 33.296 132.786 33.296C131.57 33.296 130.586 33.536 129.834 34.016C129.082 34.48 128.706 35.16 128.706 36.056C128.706 36.888 129.042 37.584 129.714 38.144C130.386 38.704 131.586 39.072 133.314 39.248C135.234 39.44 136.722 40.024 137.778 41C138.834 41.96 139.362 43.232 139.362 44.816C139.362 45.968 139.05 46.96 138.426 47.792C137.802 48.608 136.97 49.224 135.93 49.64C134.906 50.04 133.802 50.24 132.618 50.24ZM148.901 50.096C147.621 50.096 146.477 49.816 145.469 49.256C144.461 48.68 143.677 47.888 143.117 46.88C142.557 45.872 142.277 44.728 142.277 43.448C142.277 42.152 142.557 41 143.117 39.992C143.677 38.984 144.461 38.2 145.469 37.64C146.477 37.064 147.621 36.776 148.901 36.776C150.165 36.776 151.293 37.064 152.285 37.64C153.293 38.2 154.077 38.984 154.637 39.992C155.213 41 155.501 42.152 155.501 43.448C155.501 44.728 155.221 45.872 154.661 46.88C154.101 47.888 153.317 48.68 152.309 49.256C151.317 49.816 150.181 50.096 148.901 50.096ZM148.901 47.936C149.717 47.936 150.445 47.744 151.085 47.36C151.741 46.976 152.245 46.448 152.597 45.776C152.965 45.088 153.149 44.312 153.149 43.448C153.149 42.584 152.965 41.808 152.597 41.12C152.245 40.432 151.741 39.896 151.085 39.512C150.445 39.128 149.717 38.936 148.901 38.936C148.085 38.936 147.349 39.128 146.693 39.512C146.053 39.896 145.549 40.432 145.181 41.12C144.813 41.808 144.629 42.584 144.629 43.448C144.629 44.312 144.813 45.088 145.181 45.776C145.549 46.448 146.053 46.976 146.693 47.36C147.349 47.744 148.085 47.936 148.901 47.936ZM165.096 50.096C163.832 50.096 162.696 49.808 161.688 49.232C160.68 48.656 159.888 47.864 159.312 46.856C158.752 45.832 158.472 44.696 158.472 43.448C158.472 42.168 158.744 41.024 159.288 40.016C159.848 38.992 160.624 38.2 161.616 37.64C162.608 37.064 163.728 36.776 164.976 36.776C166.864 36.776 168.432 37.496 169.68 38.936C169.84 39.112 169.92 39.32 169.92 39.56C169.92 39.912 169.744 40.208 169.392 40.448C169.232 40.56 169.048 40.616 168.84 40.616C168.472 40.616 168.16 40.472 167.904 40.184C167.504 39.752 167.064 39.44 166.584 39.248C166.12 39.04 165.584 38.936 164.976 38.936C163.744 38.936 162.744 39.352 161.976 40.184C161.208 41 160.824 42.088 160.824 43.448C160.824 44.312 161 45.088 161.352 45.776C161.72 46.448 162.224 46.976 162.864 47.36C163.52 47.744 164.264 47.936 165.096 47.936C166.184 47.936 167.064 47.656 167.736 47.096C168.04 46.872 168.336 46.76 168.624 46.76C168.848 46.76 169.056 46.832 169.248 46.976C169.552 47.232 169.704 47.52 169.704 47.84C169.704 48.08 169.608 48.296 169.416 48.488C168.264 49.56 166.824 50.096 165.096 50.096ZM175.022 50C174.67 50 174.374 49.888 174.134 49.664C173.91 49.424 173.798 49.128 173.798 48.776V38.096C173.798 37.728 173.91 37.432 174.134 37.208C174.374 36.984 174.67 36.872 175.022 36.872C175.39 36.872 175.686 36.984 175.91 37.208C176.134 37.432 176.246 37.728 176.246 38.096V48.776C176.246 49.128 176.134 49.424 175.91 49.664C175.686 49.888 175.39 50 175.022 50ZM175.022 34.736C174.59 34.736 174.214 34.584 173.894 34.28C173.59 33.96 173.438 33.584 173.438 33.152C173.438 32.72 173.59 32.352 173.894 32.048C174.214 31.728 174.59 31.568 175.022 31.568C175.454 31.568 175.822 31.728 176.126 32.048C176.446 32.352 176.606 32.72 176.606 33.152C176.606 33.584 176.446 33.96 176.126 34.28C175.822 34.584 175.454 34.736 175.022 34.736ZM186.753 36.776C187.985 36.776 189.097 37.072 190.089 37.664C191.097 38.24 191.889 39.04 192.465 40.064C193.057 41.072 193.353 42.2 193.353 43.448V48.8C193.353 49.152 193.233 49.448 192.993 49.688C192.769 49.912 192.481 50.024 192.129 50.024C191.777 50.024 191.481 49.912 191.241 49.688C191.017 49.448 190.905 49.152 190.905 48.8V47.912C190.345 48.6 189.665 49.136 188.865 49.52C188.065 49.904 187.201 50.096 186.273 50.096C185.121 50.096 184.073 49.808 183.129 49.232C182.201 48.656 181.465 47.864 180.921 46.856C180.393 45.832 180.129 44.696 180.129 43.448C180.129 42.2 180.417 41.072 180.993 40.064C181.569 39.04 182.361 38.24 183.369 37.664C184.393 37.072 185.521 36.776 186.753 36.776ZM186.753 47.936C187.553 47.936 188.273 47.744 188.913 47.36C189.569 46.96 190.081 46.424 190.449 45.752C190.817 45.064 191.001 44.296 191.001 43.448C191.001 42.6 190.817 41.832 190.449 41.144C190.081 40.456 189.569 39.92 188.913 39.536C188.273 39.136 187.553 38.936 186.753 38.936C185.953 38.936 185.225 39.136 184.569 39.536C183.929 39.92 183.417 40.456 183.033 41.144C182.665 41.832 182.481 42.6 182.481 43.448C182.481 44.296 182.665 45.064 183.033 45.752C183.417 46.424 183.929 46.96 184.569 47.36C185.225 47.744 185.953 47.936 186.753 47.936ZM200.116 50C199.428 50 198.804 49.816 198.244 49.448C197.7 49.064 197.276 48.536 196.972 47.864C196.668 47.176 196.516 46.408 196.516 45.56V32.456C196.516 32.104 196.628 31.816 196.852 31.592C197.076 31.368 197.364 31.256 197.716 31.256C198.068 31.256 198.356 31.368 198.58 31.592C198.804 31.816 198.916 32.104 198.916 32.456V45.56C198.916 46.152 199.028 46.64 199.252 47.024C199.476 47.408 199.764 47.6 200.116 47.6H200.716C201.036 47.6 201.292 47.712 201.484 47.936C201.692 48.16 201.796 48.448 201.796 48.8C201.796 49.152 201.644 49.44 201.34 49.664C201.036 49.888 200.644 50 200.164 50H200.116ZM223.415 31.256C223.751 31.256 224.023 31.368 224.231 31.592C224.455 31.8 224.567 32.072 224.567 32.408C224.567 32.744 224.455 33.024 224.231 33.248C224.023 33.456 223.751 33.56 223.415 33.56H218.255V48.752C218.255 49.104 218.135 49.4 217.895 49.64C217.655 49.88 217.359 50 217.007 50C216.655 50 216.359 49.88 216.118 49.64C215.879 49.4 215.759 49.104 215.759 48.752V33.56H210.575C210.239 33.56 209.959 33.456 209.735 33.248C209.527 33.024 209.423 32.744 209.423 32.408C209.423 32.072 209.527 31.8 209.735 31.592C209.959 31.368 210.239 31.256 210.575 31.256H223.415ZM230.17 36.728C231.018 36.728 231.682 36.856 232.162 37.112C232.642 37.368 232.882 37.688 232.882 38.072C232.882 38.184 232.874 38.264 232.858 38.312C232.714 38.824 232.394 39.08 231.898 39.08C231.818 39.08 231.698 39.064 231.538 39.032C230.898 38.92 230.378 38.864 229.978 38.864C228.826 38.864 227.898 39.128 227.194 39.656C226.49 40.184 226.138 40.896 226.138 41.792V48.8C226.138 49.184 226.034 49.48 225.826 49.688C225.634 49.896 225.338 50 224.938 50C224.554 50 224.258 49.904 224.05 49.712C223.842 49.504 223.738 49.2 223.738 48.8V38.072C223.738 37.688 223.842 37.392 224.05 37.184C224.258 36.976 224.554 36.872 224.938 36.872C225.738 36.872 226.138 37.272 226.138 38.072V38.528C226.618 37.968 227.21 37.528 227.914 37.208C228.618 36.888 229.37 36.728 230.17 36.728ZM240.401 36.776C241.633 36.776 242.745 37.072 243.737 37.664C244.745 38.24 245.537 39.04 246.113 40.064C246.705 41.072 247.001 42.2 247.001 43.448V48.8C247.001 49.152 246.881 49.448 246.641 49.688C246.417 49.912 246.129 50.024 245.777 50.024C245.425 50.024 245.129 49.912 244.889 49.688C244.665 49.448 244.553 49.152 244.553 48.8V47.912C243.993 48.6 243.313 49.136 242.513 49.52C241.713 49.904 240.849 50.096 239.921 50.096C238.769 50.096 237.721 49.808 236.777 49.232C235.849 48.656 235.113 47.864 234.569 46.856C234.041 45.832 233.777 44.696 233.777 43.448C233.777 42.2 234.065 41.072 234.641 40.064C235.217 39.04 236.009 38.24 237.017 37.664C238.041 37.072 239.169 36.776 240.401 36.776ZM240.401 47.936C241.201 47.936 241.921 47.744 242.561 47.36C243.217 46.96 243.729 46.424 244.097 45.752C244.465 45.064 244.649 44.296 244.649 43.448C244.649 42.6 244.465 41.832 244.097 41.144C243.729 40.456 243.217 39.92 242.561 39.536C241.921 39.136 241.201 38.936 240.401 38.936C239.601 38.936 238.873 39.136 238.217 39.536C237.577 39.92 237.065 40.456 236.681 41.144C236.313 41.832 236.129 42.6 236.129 43.448C236.129 44.296 236.313 45.064 236.681 45.752C237.065 46.424 237.577 46.96 238.217 47.36C238.873 47.744 239.601 47.936 240.401 47.936ZM261.972 31.256C262.34 31.256 262.636 31.368 262.86 31.592C263.084 31.816 263.196 32.112 263.196 32.48V43.424C263.196 44.672 262.9 45.808 262.308 46.832C261.732 47.84 260.94 48.64 259.932 49.232C258.94 49.808 257.828 50.096 256.596 50.096C255.364 50.096 254.236 49.808 253.212 49.232C252.204 48.64 251.412 47.84 250.836 46.832C250.26 45.808 249.972 44.672 249.972 43.424C249.972 42.176 250.236 41.048 250.764 40.04C251.308 39.016 252.044 38.216 252.972 37.64C253.916 37.064 254.964 36.776 256.116 36.776C257.044 36.776 257.908 36.968 258.708 37.352C259.508 37.736 260.188 38.272 260.748 38.96V32.48C260.748 32.112 260.86 31.816 261.084 31.592C261.324 31.368 261.62 31.256 261.972 31.256ZM256.596 47.936C257.396 47.936 258.116 47.744 258.756 47.36C259.412 46.96 259.924 46.416 260.292 45.728C260.66 45.04 260.844 44.272 260.844 43.424C260.844 42.576 260.66 41.816 260.292 41.144C259.924 40.456 259.412 39.92 258.756 39.536C258.116 39.136 257.396 38.936 256.596 38.936C255.796 38.936 255.068 39.136 254.412 39.536C253.772 39.92 253.26 40.456 252.876 41.144C252.508 41.816 252.324 42.576 252.324 43.424C252.324 44.272 252.508 45.04 252.876 45.728C253.26 46.416 253.772 46.96 254.412 47.36C255.068 47.744 255.796 47.936 256.596 47.936ZM268.983 50C268.631 50 268.335 49.888 268.095 49.664C267.871 49.424 267.759 49.128 267.759 48.776V38.096C267.759 37.728 267.871 37.432 268.095 37.208C268.335 36.984 268.631 36.872 268.983 36.872C269.351 36.872 269.647 36.984 269.871 37.208C270.095 37.432 270.207 37.728 270.207 38.096V48.776C270.207 49.128 270.095 49.424 269.871 49.664C269.647 49.888 269.351 50 268.983 50ZM268.983 34.736C268.551 34.736 268.175 34.584 267.855 34.28C267.551 33.96 267.399 33.584 267.399 33.152C267.399 32.72 267.551 32.352 267.855 32.048C268.175 31.728 268.551 31.568 268.983 31.568C269.415 31.568 269.783 31.728 270.087 32.048C270.407 32.352 270.567 32.72 270.567 33.152C270.567 33.584 270.407 33.96 270.087 34.28C269.783 34.584 269.415 34.736 268.983 34.736ZM281.29 36.752C282.394 36.752 283.386 36.992 284.266 37.472C285.146 37.952 285.834 38.656 286.33 39.584C286.826 40.496 287.074 41.6 287.074 42.896V48.8C287.074 49.152 286.954 49.448 286.714 49.688C286.49 49.912 286.202 50.024 285.85 50.024C285.498 50.024 285.202 49.912 284.962 49.688C284.738 49.448 284.626 49.152 284.626 48.8V42.896C284.626 41.6 284.274 40.624 283.57 39.968C282.882 39.296 281.962 38.96 280.81 38.96C280.138 38.96 279.522 39.096 278.962 39.368C278.418 39.64 277.986 40.008 277.666 40.472C277.362 40.936 277.21 41.456 277.21 42.032V48.8C277.21 49.152 277.098 49.448 276.874 49.688C276.65 49.912 276.354 50.024 275.986 50.024C275.634 50.024 275.338 49.912 275.098 49.688C274.874 49.448 274.762 49.152 274.762 48.8V38.096C274.762 37.728 274.874 37.432 275.098 37.208C275.338 36.984 275.634 36.872 275.986 36.872C276.354 36.872 276.65 36.984 276.874 37.208C277.098 37.432 277.21 37.728 277.21 38.096V38.36C277.722 37.848 278.33 37.456 279.034 37.184C279.738 36.896 280.49 36.752 281.29 36.752ZM297.073 36.776C298.337 36.776 299.465 37.064 300.457 37.64C301.465 38.2 302.249 38.984 302.809 39.992C303.385 41 303.673 42.152 303.673 43.448V48.632C303.673 49.896 303.393 51.048 302.833 52.088C302.273 53.128 301.481 53.944 300.457 54.536C299.449 55.144 298.305 55.448 297.025 55.448C295.873 55.448 294.801 55.216 293.809 54.752C292.817 54.304 291.985 53.656 291.313 52.808C291.137 52.584 291.049 52.36 291.049 52.136C291.049 51.8 291.217 51.512 291.553 51.272C291.777 51.128 292.001 51.056 292.225 51.056C292.625 51.056 292.953 51.224 293.209 51.56C293.641 52.12 294.185 52.544 294.841 52.832C295.497 53.136 296.241 53.288 297.073 53.288C297.857 53.288 298.569 53.096 299.209 52.712C299.849 52.344 300.361 51.792 300.745 51.056C301.129 50.336 301.321 49.472 301.321 48.464V47.288C300.825 48.168 300.169 48.856 299.353 49.352C298.537 49.848 297.617 50.096 296.593 50.096C295.409 50.096 294.345 49.816 293.401 49.256C292.473 48.68 291.745 47.888 291.217 46.88C290.705 45.872 290.449 44.728 290.449 43.448C290.449 42.152 290.729 41 291.289 39.992C291.849 38.984 292.633 38.2 293.641 37.64C294.649 37.064 295.793 36.776 297.073 36.776ZM297.073 47.936C297.889 47.936 298.617 47.744 299.257 47.36C299.913 46.976 300.417 46.448 300.769 45.776C301.137 45.088 301.321 44.312 301.321 43.448C301.321 42.584 301.137 41.808 300.769 41.12C300.417 40.432 299.913 39.896 299.257 39.512C298.617 39.128 297.889 38.936 297.073 38.936C296.257 38.936 295.521 39.128 294.865 39.512C294.225 39.896 293.721 40.432 293.353 41.12C292.985 41.808 292.801 42.584 292.801 43.448C292.801 44.312 292.985 45.088 293.353 45.776C293.721 46.448 294.225 46.976 294.865 47.36C295.521 47.744 296.257 47.936 297.073 47.936ZM322.436 50.384C320.916 50.384 319.556 50.104 318.355 49.544C317.172 48.968 316.244 48.176 315.572 47.168C314.916 46.16 314.588 45.008 314.588 43.712V32.504C314.588 32.136 314.708 31.84 314.948 31.616C315.188 31.376 315.484 31.256 315.836 31.256C316.204 31.256 316.5 31.376 316.724 31.616C316.964 31.84 317.084 32.136 317.084 32.504V43.712C317.084 44.56 317.308 45.32 317.756 45.992C318.22 46.664 318.852 47.192 319.652 47.576C320.468 47.944 321.396 48.128 322.436 48.128C323.428 48.128 324.316 47.944 325.1 47.576C325.884 47.192 326.492 46.664 326.924 45.992C327.372 45.32 327.596 44.56 327.596 43.712V32.504C327.596 32.136 327.716 31.84 327.956 31.616C328.196 31.376 328.492 31.256 328.844 31.256C329.196 31.256 329.484 31.376 329.708 31.616C329.948 31.84 330.068 32.136 330.068 32.504V43.712C330.068 44.992 329.74 46.144 329.084 47.168C328.444 48.176 327.54 48.968 326.372 49.544C325.22 50.104 323.908 50.384 322.436 50.384ZM341.221 36.776C342.453 36.776 343.573 37.072 344.581 37.664C345.605 38.24 346.405 39.04 346.981 40.064C347.557 41.072 347.845 42.2 347.845 43.448C347.845 44.696 347.573 45.832 347.029 46.856C346.501 47.864 345.765 48.656 344.821 49.232C343.893 49.808 342.853 50.096 341.701 50.096C340.773 50.096 339.909 49.904 339.109 49.52C338.309 49.136 337.629 48.6 337.069 47.912V54.392C337.069 54.76 336.957 55.056 336.733 55.28C336.509 55.504 336.213 55.616 335.845 55.616C335.493 55.616 335.197 55.504 334.957 55.28C334.733 55.056 334.621 54.76 334.621 54.392V43.448C334.621 42.2 334.909 41.072 335.485 40.064C336.077 39.04 336.869 38.24 337.861 37.664C338.869 37.072 339.989 36.776 341.221 36.776ZM341.221 47.936C342.021 47.936 342.741 47.744 343.381 47.36C344.037 46.96 344.549 46.424 344.917 45.752C345.301 45.064 345.493 44.296 345.493 43.448C345.493 42.6 345.301 41.832 344.917 41.144C344.549 40.456 344.037 39.92 343.381 39.536C342.741 39.136 342.021 38.936 341.221 38.936C340.421 38.936 339.693 39.136 339.037 39.536C338.397 39.92 337.893 40.456 337.525 41.144C337.157 41.832 336.973 42.6 336.973 43.448C336.973 44.296 337.157 45.064 337.525 45.752C337.893 46.424 338.397 46.96 339.037 47.36C339.693 47.744 340.421 47.936 341.221 47.936ZM362.824 31.256C363.192 31.256 363.488 31.368 363.712 31.592C363.936 31.816 364.048 32.112 364.048 32.48V43.424C364.048 44.672 363.752 45.808 363.16 46.832C362.584 47.84 361.792 48.64 360.784 49.232C359.792 49.808 358.68 50.096 357.448 50.096C356.216 50.096 355.088 49.808 354.064 49.232C353.056 48.64 352.264 47.84 351.688 46.832C351.112 45.808 350.824 44.672 350.824 43.424C350.824 42.176 351.088 41.048 351.616 40.04C352.16 39.016 352.896 38.216 353.824 37.64C354.768 37.064 355.816 36.776 356.968 36.776C357.896 36.776 358.76 36.968 359.56 37.352C360.36 37.736 361.04 38.272 361.6 38.96V32.48C361.6 32.112 361.712 31.816 361.936 31.592C362.176 31.368 362.472 31.256 362.824 31.256ZM357.448 47.936C358.248 47.936 358.968 47.744 359.608 47.36C360.264 46.96 360.776 46.416 361.144 45.728C361.512 45.04 361.696 44.272 361.696 43.424C361.696 42.576 361.512 41.816 361.144 41.144C360.776 40.456 360.264 39.92 359.608 39.536C358.968 39.136 358.248 38.936 357.448 38.936C356.648 38.936 355.92 39.136 355.264 39.536C354.624 39.92 354.112 40.456 353.728 41.144C353.36 41.816 353.176 42.576 353.176 43.424C353.176 44.272 353.36 45.04 353.728 45.728C354.112 46.416 354.624 46.96 355.264 47.36C355.92 47.744 356.648 47.936 357.448 47.936ZM374.323 36.776C375.555 36.776 376.667 37.072 377.659 37.664C378.667 38.24 379.459 39.04 380.035 40.064C380.627 41.072 380.923 42.2 380.923 43.448V48.8C380.923 49.152 380.803 49.448 380.563 49.688C380.339 49.912 380.051 50.024 379.699 50.024C379.347 50.024 379.051 49.912 378.811 49.688C378.587 49.448 378.475 49.152 378.475 48.8V47.912C377.915 48.6 377.235 49.136 376.435 49.52C375.635 49.904 374.771 50.096 373.843 50.096C372.691 50.096 371.643 49.808 370.699 49.232C369.771 48.656 369.035 47.864 368.491 46.856C367.963 45.832 367.699 44.696 367.699 43.448C367.699 42.2 367.987 41.072 368.563 40.064C369.139 39.04 369.931 38.24 370.939 37.664C371.963 37.072 373.091 36.776 374.323 36.776ZM374.323 47.936C375.123 47.936 375.843 47.744 376.483 47.36C377.139 46.96 377.651 46.424 378.019 45.752C378.387 45.064 378.571 44.296 378.571 43.448C378.571 42.6 378.387 41.832 378.019 41.144C377.651 40.456 377.139 39.92 376.483 39.536C375.843 39.136 375.123 38.936 374.323 38.936C373.523 38.936 372.795 39.136 372.139 39.536C371.499 39.92 370.987 40.456 370.603 41.144C370.235 41.832 370.051 42.6 370.051 43.448C370.051 44.296 370.235 45.064 370.603 45.752C370.987 46.424 371.499 46.96 372.139 47.36C372.795 47.744 373.523 47.936 374.323 47.936ZM390.158 47.6C390.446 47.6 390.686 47.712 390.878 47.936C391.086 48.16 391.19 48.448 391.19 48.8C391.19 49.152 391.054 49.44 390.782 49.664C390.526 49.888 390.19 50 389.774 50H389.342C388.558 50 387.838 49.8 387.182 49.4C386.542 48.984 386.038 48.424 385.67 47.72C385.302 47.016 385.118 46.224 385.118 45.344V39.416H384.014C383.678 39.416 383.406 39.32 383.198 39.128C382.99 38.936 382.886 38.696 382.886 38.408C382.886 38.088 382.99 37.832 383.198 37.64C383.406 37.448 383.678 37.352 384.014 37.352H385.118V33.896C385.118 33.544 385.23 33.256 385.454 33.032C385.678 32.808 385.966 32.696 386.318 32.696C386.67 32.696 386.958 32.808 387.182 33.032C387.406 33.256 387.518 33.544 387.518 33.896V37.352H389.558C389.894 37.352 390.166 37.448 390.374 37.64C390.582 37.832 390.686 38.088 390.686 38.408C390.686 38.696 390.582 38.936 390.374 39.128C390.166 39.32 389.894 39.416 389.558 39.416H387.518V45.344C387.518 45.984 387.694 46.52 388.046 46.952C388.398 47.384 388.83 47.6 389.342 47.6H390.158ZM405.983 43.232C405.983 43.536 405.879 43.792 405.671 44C405.463 44.192 405.199 44.288 404.879 44.288H395.759C395.935 45.408 396.439 46.312 397.271 47C398.119 47.688 399.151 48.032 400.367 48.032C400.847 48.032 401.343 47.944 401.855 47.768C402.383 47.592 402.815 47.376 403.151 47.12C403.375 46.944 403.639 46.856 403.943 46.856C404.247 46.856 404.487 46.936 404.663 47.096C404.951 47.336 405.095 47.608 405.095 47.912C405.095 48.2 404.967 48.44 404.711 48.632C404.167 49.064 403.487 49.416 402.671 49.688C401.871 49.96 401.103 50.096 400.367 50.096C399.055 50.096 397.879 49.816 396.839 49.256C395.799 48.68 394.983 47.888 394.391 46.88C393.815 45.872 393.527 44.728 393.527 43.448C393.527 42.168 393.799 41.024 394.343 40.016C394.903 38.992 395.671 38.2 396.647 37.64C397.639 37.064 398.759 36.776 400.007 36.776C401.239 36.776 402.303 37.048 403.199 37.592C404.095 38.136 404.783 38.896 405.263 39.872C405.743 40.848 405.983 41.968 405.983 43.232ZM400.007 38.84C398.839 38.84 397.887 39.16 397.151 39.8C396.431 40.44 395.975 41.296 395.783 42.368H403.775C403.631 41.296 403.231 40.44 402.575 39.8C401.919 39.16 401.063 38.84 400.007 38.84ZM413.881 50.096C412.793 50.096 411.769 49.928 410.809 49.592C409.849 49.256 409.097 48.816 408.553 48.272C408.345 48.064 408.241 47.816 408.241 47.528C408.241 47.144 408.401 46.832 408.721 46.592C409.025 46.368 409.305 46.256 409.561 46.256C409.881 46.256 410.185 46.4 410.473 46.688C410.777 47.024 411.233 47.32 411.841 47.576C412.449 47.816 413.097 47.936 413.785 47.936C414.697 47.936 415.401 47.784 415.897 47.48C416.409 47.176 416.665 46.768 416.665 46.256C416.665 45.76 416.417 45.352 415.921 45.032C415.425 44.696 414.585 44.416 413.401 44.192C410.329 43.6 408.793 42.336 408.793 40.4C408.793 39.616 409.025 38.952 409.489 38.408C409.953 37.864 410.561 37.456 411.313 37.184C412.065 36.912 412.865 36.776 413.713 36.776C414.753 36.776 415.681 36.944 416.497 37.28C417.329 37.616 417.985 38.08 418.465 38.672C418.673 38.928 418.777 39.184 418.777 39.44C418.777 39.712 418.641 39.96 418.369 40.184C418.193 40.312 417.969 40.376 417.697 40.376C417.281 40.376 416.905 40.224 416.569 39.92C416.169 39.552 415.745 39.296 415.297 39.152C414.849 38.992 414.305 38.912 413.665 38.912C412.929 38.912 412.321 39.04 411.841 39.296C411.377 39.536 411.145 39.88 411.145 40.328C411.145 40.648 411.225 40.92 411.385 41.144C411.545 41.352 411.849 41.552 412.297 41.744C412.745 41.92 413.393 42.096 414.241 42.272C415.985 42.624 417.217 43.112 417.937 43.736C418.673 44.36 419.041 45.168 419.041 46.16C419.041 46.896 418.841 47.568 418.441 48.176C418.041 48.768 417.449 49.24 416.665 49.592C415.897 49.928 414.969 50.096 413.881 50.096ZM78.648 78C78.312 78 78.016 77.88 77.76 77.64C77.52 77.4 77.4 77.104 77.4 76.752V60.504C77.4 60.152 77.52 59.856 77.76 59.616C78.016 59.376 78.312 59.256 78.648 59.256C79 59.256 79.296 59.376 79.536 59.616C79.776 59.856 79.896 60.152 79.896 60.504V67.704L87.84 59.76C88.032 59.568 88.2 59.44 88.344 59.376C88.504 59.296 88.68 59.256 88.872 59.256C89.208 59.256 89.464 59.36 89.64 59.568C89.832 59.76 89.928 60 89.928 60.288C89.928 60.704 89.776 61.064 89.472 61.368L83.352 67.512L89.592 76.008C89.752 76.232 89.832 76.488 89.832 76.776C89.832 77.096 89.728 77.384 89.52 77.64C89.312 77.88 89.048 78 88.728 78C88.28 78 87.936 77.824 87.696 77.472L81.624 69.24L79.896 70.968V76.752C79.896 77.104 79.776 77.4 79.536 77.64C79.296 77.88 79 78 78.648 78ZM103.522 71.232C103.522 71.536 103.418 71.792 103.21 72C103.002 72.192 102.738 72.288 102.418 72.288H93.2981C93.4741 73.408 93.9781 74.312 94.8101 75C95.6581 75.688 96.6901 76.032 97.9061 76.032C98.3861 76.032 98.8821 75.944 99.3941 75.768C99.9221 75.592 100.354 75.376 100.69 75.12C100.914 74.944 101.178 74.856 101.482 74.856C101.786 74.856 102.026 74.936 102.202 75.096C102.49 75.336 102.634 75.608 102.634 75.912C102.634 76.2 102.506 76.44 102.25 76.632C101.706 77.064 101.026 77.416 100.21 77.688C99.4101 77.96 98.6421 78.096 97.9061 78.096C96.5941 78.096 95.4181 77.816 94.3781 77.256C93.3381 76.68 92.5221 75.888 91.9301 74.88C91.3541 73.872 91.0661 72.728 91.0661 71.448C91.0661 70.168 91.3381 69.024 91.8821 68.016C92.4421 66.992 93.2101 66.2 94.1861 65.64C95.1781 65.064 96.2981 64.776 97.5461 64.776C98.7781 64.776 99.8421 65.048 100.738 65.592C101.634 66.136 102.322 66.896 102.802 67.872C103.282 68.848 103.522 69.968 103.522 71.232ZM97.5461 66.84C96.3781 66.84 95.4261 67.16 94.6901 67.8C93.9701 68.44 93.5141 69.296 93.3221 70.368H101.314C101.17 69.296 100.77 68.44 100.114 67.8C99.4581 67.16 98.6021 66.84 97.5461 66.84ZM117.96 71.232C117.96 71.536 117.856 71.792 117.648 72C117.44 72.192 117.176 72.288 116.856 72.288H107.736C107.912 73.408 108.416 74.312 109.248 75C110.096 75.688 111.128 76.032 112.344 76.032C112.824 76.032 113.32 75.944 113.832 75.768C114.36 75.592 114.792 75.376 115.128 75.12C115.352 74.944 115.616 74.856 115.92 74.856C116.224 74.856 116.464 74.936 116.64 75.096C116.928 75.336 117.072 75.608 117.072 75.912C117.072 76.2 116.944 76.44 116.688 76.632C116.144 77.064 115.464 77.416 114.648 77.688C113.848 77.96 113.08 78.096 112.344 78.096C111.032 78.096 109.856 77.816 108.816 77.256C107.776 76.68 106.96 75.888 106.368 74.88C105.792 73.872 105.504 72.728 105.504 71.448C105.504 70.168 105.776 69.024 106.32 68.016C106.88 66.992 107.648 66.2 108.624 65.64C109.616 65.064 110.736 64.776 111.984 64.776C113.216 64.776 114.28 65.048 115.176 65.592C116.072 66.136 116.76 66.896 117.24 67.872C117.72 68.848 117.96 69.968 117.96 71.232ZM111.984 66.84C110.816 66.84 109.864 67.16 109.128 67.8C108.408 68.44 107.952 69.296 107.76 70.368H115.752C115.608 69.296 115.208 68.44 114.552 67.8C113.896 67.16 113.04 66.84 111.984 66.84ZM127.682 64.776C128.914 64.776 130.034 65.072 131.042 65.664C132.066 66.24 132.866 67.04 133.442 68.064C134.018 69.072 134.306 70.2 134.306 71.448C134.306 72.696 134.034 73.832 133.49 74.856C132.962 75.864 132.226 76.656 131.282 77.232C130.354 77.808 129.314 78.096 128.162 78.096C127.234 78.096 126.37 77.904 125.57 77.52C124.77 77.136 124.09 76.6 123.53 75.912V82.392C123.53 82.76 123.418 83.056 123.194 83.28C122.97 83.504 122.674 83.616 122.306 83.616C121.954 83.616 121.658 83.504 121.418 83.28C121.194 83.056 121.082 82.76 121.082 82.392V71.448C121.082 70.2 121.37 69.072 121.946 68.064C122.538 67.04 123.33 66.24 124.322 65.664C125.33 65.072 126.45 64.776 127.682 64.776ZM127.682 75.936C128.482 75.936 129.202 75.744 129.842 75.36C130.498 74.96 131.01 74.424 131.378 73.752C131.762 73.064 131.954 72.296 131.954 71.448C131.954 70.6 131.762 69.832 131.378 69.144C131.01 68.456 130.498 67.92 129.842 67.536C129.202 67.136 128.482 66.936 127.682 66.936C126.882 66.936 126.154 67.136 125.498 67.536C124.858 67.92 124.354 68.456 123.986 69.144C123.618 69.832 123.434 70.6 123.434 71.448C123.434 72.296 123.618 73.064 123.986 73.752C124.354 74.424 124.858 74.96 125.498 75.36C126.154 75.744 126.882 75.936 127.682 75.936ZM155.02 64.992C155.516 65.184 155.764 65.496 155.764 65.928C155.764 66.088 155.716 66.28 155.62 66.504L148.276 83.016C148.084 83.512 147.772 83.76 147.34 83.76C147.18 83.76 146.988 83.712 146.764 83.616C146.284 83.408 146.044 83.096 146.044 82.68C146.044 82.488 146.092 82.296 146.188 82.104L148.588 76.704L143.188 66.456C143.108 66.312 143.068 66.144 143.068 65.952C143.068 65.744 143.132 65.552 143.26 65.376C143.388 65.2 143.556 65.064 143.764 64.968C143.908 64.904 144.068 64.872 144.244 64.872C144.692 64.872 145.028 65.096 145.252 65.544L149.644 74.28L153.508 65.568C153.716 65.104 154.028 64.872 154.444 64.872C154.652 64.872 154.844 64.912 155.02 64.992ZM163.409 78.096C162.129 78.096 160.985 77.816 159.977 77.256C158.969 76.68 158.185 75.888 157.625 74.88C157.065 73.872 156.785 72.728 156.785 71.448C156.785 70.152 157.065 69 157.625 67.992C158.185 66.984 158.969 66.2 159.977 65.64C160.985 65.064 162.129 64.776 163.409 64.776C164.673 64.776 165.801 65.064 166.793 65.64C167.801 66.2 168.585 66.984 169.145 67.992C169.721 69 170.009 70.152 170.009 71.448C170.009 72.728 169.729 73.872 169.169 74.88C168.609 75.888 167.825 76.68 166.817 77.256C165.825 77.816 164.689 78.096 163.409 78.096ZM163.409 75.936C164.225 75.936 164.953 75.744 165.593 75.36C166.249 74.976 166.753 74.448 167.105 73.776C167.473 73.088 167.657 72.312 167.657 71.448C167.657 70.584 167.473 69.808 167.105 69.12C166.753 68.432 166.249 67.896 165.593 67.512C164.953 67.128 164.225 66.936 163.409 66.936C162.593 66.936 161.857 67.128 161.201 67.512C160.561 67.896 160.057 68.432 159.689 69.12C159.321 69.808 159.137 70.584 159.137 71.448C159.137 72.312 159.321 73.088 159.689 73.776C160.057 74.448 160.561 74.976 161.201 75.36C161.857 75.744 162.593 75.936 163.409 75.936ZM184.476 64.848C184.844 64.848 185.14 64.96 185.364 65.184C185.588 65.408 185.7 65.704 185.7 66.072V76.776C185.7 77.128 185.588 77.424 185.364 77.664C185.14 77.888 184.844 78 184.476 78C184.124 78 183.828 77.888 183.588 77.664C183.364 77.424 183.252 77.128 183.252 76.776V76.512C182.74 77.024 182.132 77.424 181.428 77.712C180.724 77.984 179.972 78.12 179.172 78.12C178.068 78.12 177.076 77.88 176.196 77.4C175.316 76.92 174.628 76.224 174.132 75.312C173.636 74.384 173.388 73.272 173.388 71.976V66.072C173.388 65.72 173.5 65.432 173.724 65.208C173.964 64.968 174.26 64.848 174.612 64.848C174.964 64.848 175.252 64.968 175.476 65.208C175.716 65.432 175.836 65.72 175.836 66.072V71.976C175.836 73.272 176.18 74.256 176.868 74.928C177.572 75.584 178.5 75.912 179.652 75.912C180.324 75.912 180.932 75.776 181.476 75.504C182.036 75.232 182.468 74.864 182.772 74.4C183.092 73.936 183.252 73.416 183.252 72.84V66.072C183.252 65.704 183.364 65.408 183.588 65.184C183.828 64.96 184.124 64.848 184.476 64.848ZM196.444 64.728C197.292 64.728 197.956 64.856 198.436 65.112C198.916 65.368 199.156 65.688 199.156 66.072C199.156 66.184 199.148 66.264 199.132 66.312C198.988 66.824 198.668 67.08 198.172 67.08C198.092 67.08 197.972 67.064 197.812 67.032C197.172 66.92 196.652 66.864 196.252 66.864C195.1 66.864 194.172 67.128 193.468 67.656C192.764 68.184 192.412 68.896 192.412 69.792V76.8C192.412 77.184 192.308 77.48 192.1 77.688C191.908 77.896 191.612 78 191.212 78C190.828 78 190.532 77.904 190.324 77.712C190.116 77.504 190.012 77.2 190.012 76.8V66.072C190.012 65.688 190.116 65.392 190.324 65.184C190.532 64.976 190.828 64.872 191.212 64.872C192.012 64.872 192.412 65.272 192.412 66.072V66.528C192.892 65.968 193.484 65.528 194.188 65.208C194.892 64.888 195.644 64.728 196.444 64.728ZM218.627 76.272C218.803 76.464 218.891 76.704 218.891 76.992C218.891 77.344 218.747 77.64 218.459 77.88C218.219 78.072 217.963 78.168 217.691 78.168C217.339 78.168 217.051 78.024 216.827 77.736L212.267 72.096L211.067 73.152V76.824C211.067 77.176 210.955 77.464 210.731 77.688C210.523 77.896 210.243 78 209.891 78C209.539 78 209.251 77.896 209.027 77.688C208.819 77.464 208.715 77.176 208.715 76.824V60.432C208.715 60.08 208.819 59.8 209.027 59.592C209.251 59.368 209.539 59.256 209.891 59.256C210.243 59.256 210.523 59.368 210.731 59.592C210.955 59.8 211.067 60.08 211.067 60.432V70.2L216.899 64.992C217.107 64.784 217.355 64.68 217.643 64.68C217.979 64.68 218.251 64.808 218.459 65.064C218.667 65.272 218.771 65.52 218.771 65.808C218.771 66.144 218.643 66.416 218.387 66.624L213.971 70.56L218.627 76.272ZM228.907 64.752C230.011 64.752 231.003 64.992 231.883 65.472C232.763 65.952 233.451 66.656 233.947 67.584C234.443 68.496 234.691 69.6 234.691 70.896V76.8C234.691 77.152 234.571 77.448 234.331 77.688C234.107 77.912 233.819 78.024 233.467 78.024C233.115 78.024 232.819 77.912 232.579 77.688C232.355 77.448 232.243 77.152 232.243 76.8V70.896C232.243 69.6 231.891 68.624 231.187 67.968C230.499 67.296 229.579 66.96 228.427 66.96C227.755 66.96 227.139 67.096 226.579 67.368C226.035 67.64 225.603 68.008 225.283 68.472C224.979 68.936 224.827 69.456 224.827 70.032V76.8C224.827 77.152 224.715 77.448 224.491 77.688C224.267 77.912 223.971 78.024 223.603 78.024C223.251 78.024 222.955 77.912 222.715 77.688C222.491 77.448 222.379 77.152 222.379 76.8V66.096C222.379 65.728 222.491 65.432 222.715 65.208C222.955 64.984 223.251 64.872 223.603 64.872C223.971 64.872 224.267 64.984 224.491 65.208C224.715 65.432 224.827 65.728 224.827 66.096V66.36C225.339 65.848 225.947 65.456 226.651 65.184C227.355 64.896 228.107 64.752 228.907 64.752ZM244.69 78.096C243.41 78.096 242.266 77.816 241.258 77.256C240.25 76.68 239.466 75.888 238.906 74.88C238.346 73.872 238.066 72.728 238.066 71.448C238.066 70.152 238.346 69 238.906 67.992C239.466 66.984 240.25 66.2 241.258 65.64C242.266 65.064 243.41 64.776 244.69 64.776C245.954 64.776 247.082 65.064 248.074 65.64C249.082 66.2 249.866 66.984 250.426 67.992C251.002 69 251.29 70.152 251.29 71.448C251.29 72.728 251.01 73.872 250.45 74.88C249.89 75.888 249.106 76.68 248.098 77.256C247.106 77.816 245.97 78.096 244.69 78.096ZM244.69 75.936C245.506 75.936 246.234 75.744 246.874 75.36C247.53 74.976 248.034 74.448 248.386 73.776C248.754 73.088 248.938 72.312 248.938 71.448C248.938 70.584 248.754 69.808 248.386 69.12C248.034 68.432 247.53 67.896 246.874 67.512C246.234 67.128 245.506 66.936 244.69 66.936C243.874 66.936 243.138 67.128 242.482 67.512C241.842 67.896 241.338 68.432 240.97 69.12C240.602 69.808 240.418 70.584 240.418 71.448C240.418 72.312 240.602 73.088 240.97 73.776C241.338 74.448 241.842 74.976 242.482 75.36C243.138 75.744 243.874 75.936 244.69 75.936ZM268.151 64.872C268.487 64.872 268.735 64.96 268.895 65.136C269.071 65.312 269.159 65.552 269.159 65.856C269.159 66.112 269.119 66.344 269.039 66.552L265.487 77.208C265.407 77.432 265.263 77.624 265.055 77.784C264.847 77.928 264.615 78 264.359 78C264.087 78 263.839 77.928 263.615 77.784C263.407 77.624 263.271 77.432 263.207 77.208L260.855 68.496L258.383 77.208C258.303 77.432 258.151 77.624 257.927 77.784C257.719 77.928 257.487 78 257.231 78C256.975 78 256.735 77.928 256.511 77.784C256.303 77.624 256.159 77.432 256.079 77.208L252.527 66.552C252.463 66.344 252.431 66.12 252.431 65.88C252.431 65.208 252.767 64.872 253.439 64.872C253.743 64.872 253.991 64.96 254.183 65.136C254.391 65.312 254.559 65.592 254.687 65.976L257.279 74.064L259.727 65.784C259.807 65.512 259.943 65.296 260.135 65.136C260.343 64.96 260.607 64.872 260.927 64.872C261.231 64.872 261.479 64.96 261.671 65.136C261.879 65.296 262.023 65.512 262.103 65.784L264.263 74.232L266.903 65.976C267.127 65.24 267.543 64.872 268.151 64.872ZM274.788 78C274.1 78 273.476 77.816 272.916 77.448C272.372 77.064 271.948 76.536 271.644 75.864C271.34 75.176 271.188 74.408 271.188 73.56V60.456C271.188 60.104 271.3 59.816 271.524 59.592C271.748 59.368 272.036 59.256 272.388 59.256C272.74 59.256 273.028 59.368 273.252 59.592C273.476 59.816 273.588 60.104 273.588 60.456V73.56C273.588 74.152 273.7 74.64 273.924 75.024C274.148 75.408 274.436 75.6 274.788 75.6H275.388C275.708 75.6 275.964 75.712 276.156 75.936C276.364 76.16 276.468 76.448 276.468 76.8C276.468 77.152 276.316 77.44 276.012 77.664C275.708 77.888 275.316 78 274.836 78H274.788ZM289.921 71.232C289.921 71.536 289.817 71.792 289.609 72C289.401 72.192 289.137 72.288 288.817 72.288H279.697C279.873 73.408 280.377 74.312 281.209 75C282.057 75.688 283.089 76.032 284.305 76.032C284.785 76.032 285.281 75.944 285.793 75.768C286.321 75.592 286.753 75.376 287.089 75.12C287.313 74.944 287.577 74.856 287.881 74.856C288.185 74.856 288.425 74.936 288.601 75.096C288.889 75.336 289.033 75.608 289.033 75.912C289.033 76.2 288.905 76.44 288.649 76.632C288.105 77.064 287.425 77.416 286.609 77.688C285.809 77.96 285.041 78.096 284.305 78.096C282.993 78.096 281.817 77.816 280.777 77.256C279.737 76.68 278.921 75.888 278.329 74.88C277.753 73.872 277.465 72.728 277.465 71.448C277.465 70.168 277.737 69.024 278.281 68.016C278.841 66.992 279.609 66.2 280.585 65.64C281.577 65.064 282.697 64.776 283.945 64.776C285.177 64.776 286.241 65.048 287.137 65.592C288.033 66.136 288.721 66.896 289.201 67.872C289.681 68.848 289.921 69.968 289.921 71.232ZM283.945 66.84C282.777 66.84 281.825 67.16 281.089 67.8C280.369 68.44 279.913 69.296 279.721 70.368H287.713C287.569 69.296 287.169 68.44 286.513 67.8C285.857 67.16 285.001 66.84 283.945 66.84ZM303.902 59.256C304.27 59.256 304.566 59.368 304.79 59.592C305.014 59.816 305.126 60.112 305.126 60.48V71.424C305.126 72.672 304.83 73.808 304.238 74.832C303.662 75.84 302.87 76.64 301.862 77.232C300.87 77.808 299.758 78.096 298.526 78.096C297.294 78.096 296.166 77.808 295.142 77.232C294.134 76.64 293.342 75.84 292.766 74.832C292.19 73.808 291.902 72.672 291.902 71.424C291.902 70.176 292.166 69.048 292.694 68.04C293.238 67.016 293.974 66.216 294.902 65.64C295.846 65.064 296.894 64.776 298.046 64.776C298.974 64.776 299.838 64.968 300.638 65.352C301.438 65.736 302.118 66.272 302.678 66.96V60.48C302.678 60.112 302.79 59.816 303.014 59.592C303.254 59.368 303.55 59.256 303.902 59.256ZM298.526 75.936C299.326 75.936 300.046 75.744 300.686 75.36C301.342 74.96 301.854 74.416 302.222 73.728C302.59 73.04 302.774 72.272 302.774 71.424C302.774 70.576 302.59 69.816 302.222 69.144C301.854 68.456 301.342 67.92 300.686 67.536C300.046 67.136 299.326 66.936 298.526 66.936C297.726 66.936 296.998 67.136 296.342 67.536C295.702 67.92 295.19 68.456 294.806 69.144C294.438 69.816 294.254 70.576 294.254 71.424C294.254 72.272 294.438 73.04 294.806 73.728C295.19 74.416 295.702 74.96 296.342 75.36C296.998 75.744 297.726 75.936 298.526 75.936ZM315.401 64.776C316.665 64.776 317.793 65.064 318.785 65.64C319.793 66.2 320.577 66.984 321.137 67.992C321.713 69 322.001 70.152 322.001 71.448V76.632C322.001 77.896 321.721 79.048 321.161 80.088C320.601 81.128 319.809 81.944 318.785 82.536C317.777 83.144 316.633 83.448 315.353 83.448C314.201 83.448 313.129 83.216 312.137 82.752C311.145 82.304 310.313 81.656 309.641 80.808C309.465 80.584 309.377 80.36 309.377 80.136C309.377 79.8 309.545 79.512 309.881 79.272C310.105 79.128 310.329 79.056 310.553 79.056C310.953 79.056 311.281 79.224 311.537 79.56C311.969 80.12 312.513 80.544 313.169 80.832C313.825 81.136 314.569 81.288 315.401 81.288C316.185 81.288 316.897 81.096 317.537 80.712C318.177 80.344 318.689 79.792 319.073 79.056C319.457 78.336 319.649 77.472 319.649 76.464V75.288C319.153 76.168 318.497 76.856 317.681 77.352C316.865 77.848 315.945 78.096 314.921 78.096C313.737 78.096 312.673 77.816 311.729 77.256C310.801 76.68 310.073 75.888 309.545 74.88C309.033 73.872 308.777 72.728 308.777 71.448C308.777 70.152 309.057 69 309.617 67.992C310.177 66.984 310.961 66.2 311.969 65.64C312.977 65.064 314.121 64.776 315.401 64.776ZM315.401 75.936C316.217 75.936 316.945 75.744 317.585 75.36C318.241 74.976 318.745 74.448 319.097 73.776C319.465 73.088 319.649 72.312 319.649 71.448C319.649 70.584 319.465 69.808 319.097 69.12C318.745 68.432 318.241 67.896 317.585 67.512C316.945 67.128 316.217 66.936 315.401 66.936C314.585 66.936 313.849 67.128 313.193 67.512C312.553 67.896 312.049 68.432 311.681 69.12C311.313 69.808 311.129 70.584 311.129 71.448C311.129 72.312 311.313 73.088 311.681 73.776C312.049 74.448 312.553 74.976 313.193 75.36C313.849 75.744 314.585 75.936 315.401 75.936ZM337.428 71.232C337.428 71.536 337.324 71.792 337.116 72C336.908 72.192 336.644 72.288 336.324 72.288H327.204C327.38 73.408 327.884 74.312 328.716 75C329.564 75.688 330.596 76.032 331.812 76.032C332.292 76.032 332.788 75.944 333.3 75.768C333.828 75.592 334.26 75.376 334.596 75.12C334.82 74.944 335.084 74.856 335.388 74.856C335.692 74.856 335.932 74.936 336.108 75.096C336.396 75.336 336.54 75.608 336.54 75.912C336.54 76.2 336.412 76.44 336.156 76.632C335.612 77.064 334.932 77.416 334.116 77.688C333.316 77.96 332.548 78.096 331.812 78.096C330.5 78.096 329.324 77.816 328.284 77.256C327.244 76.68 326.428 75.888 325.836 74.88C325.26 73.872 324.972 72.728 324.972 71.448C324.972 70.168 325.244 69.024 325.788 68.016C326.348 66.992 327.116 66.2 328.092 65.64C329.084 65.064 330.204 64.776 331.452 64.776C332.684 64.776 333.748 65.048 334.644 65.592C335.54 66.136 336.228 66.896 336.708 67.872C337.188 68.848 337.428 69.968 337.428 71.232ZM331.452 66.84C330.284 66.84 329.332 67.16 328.596 67.8C327.876 68.44 327.42 69.296 327.228 70.368H335.22C335.076 69.296 334.676 68.44 334.02 67.8C333.364 67.16 332.508 66.84 331.452 66.84ZM358.406 64.848C358.774 64.848 359.07 64.96 359.294 65.184C359.518 65.408 359.63 65.704 359.63 66.072V76.776C359.63 77.128 359.518 77.424 359.294 77.664C359.07 77.888 358.774 78 358.406 78C358.054 78 357.758 77.888 357.518 77.664C357.294 77.424 357.182 77.128 357.182 76.776V76.512C356.67 77.024 356.062 77.424 355.358 77.712C354.654 77.984 353.902 78.12 353.102 78.12C351.998 78.12 351.006 77.88 350.126 77.4C349.246 76.92 348.558 76.224 348.062 75.312C347.566 74.384 347.318 73.272 347.318 71.976V66.072C347.318 65.72 347.43 65.432 347.654 65.208C347.894 64.968 348.19 64.848 348.542 64.848C348.894 64.848 349.182 64.968 349.406 65.208C349.646 65.432 349.766 65.72 349.766 66.072V71.976C349.766 73.272 350.11 74.256 350.798 74.928C351.502 75.584 352.43 75.912 353.582 75.912C354.254 75.912 354.862 75.776 355.406 75.504C355.966 75.232 356.398 74.864 356.702 74.4C357.022 73.936 357.182 73.416 357.182 72.84V66.072C357.182 65.704 357.294 65.408 357.518 65.184C357.758 64.96 358.054 64.848 358.406 64.848ZM370.541 64.776C371.773 64.776 372.893 65.072 373.901 65.664C374.925 66.24 375.725 67.04 376.301 68.064C376.877 69.072 377.165 70.2 377.165 71.448C377.165 72.696 376.893 73.832 376.349 74.856C375.821 75.864 375.085 76.656 374.141 77.232C373.213 77.808 372.173 78.096 371.021 78.096C370.093 78.096 369.229 77.904 368.429 77.52C367.629 77.136 366.949 76.6 366.389 75.912V82.392C366.389 82.76 366.277 83.056 366.053 83.28C365.829 83.504 365.533 83.616 365.165 83.616C364.813 83.616 364.517 83.504 364.277 83.28C364.053 83.056 363.941 82.76 363.941 82.392V71.448C363.941 70.2 364.229 69.072 364.805 68.064C365.397 67.04 366.189 66.24 367.181 65.664C368.189 65.072 369.309 64.776 370.541 64.776ZM370.541 75.936C371.341 75.936 372.061 75.744 372.701 75.36C373.357 74.96 373.869 74.424 374.237 73.752C374.621 73.064 374.813 72.296 374.813 71.448C374.813 70.6 374.621 69.832 374.237 69.144C373.869 68.456 373.357 67.92 372.701 67.536C372.061 67.136 371.341 66.936 370.541 66.936C369.741 66.936 369.013 67.136 368.357 67.536C367.717 67.92 367.213 68.456 366.845 69.144C366.477 69.832 366.293 70.6 366.293 71.448C366.293 72.296 366.477 73.064 366.845 73.752C367.213 74.424 367.717 74.96 368.357 75.36C369.013 75.744 369.741 75.936 370.541 75.936ZM380.744 72.648C380.392 72.648 380.096 72.536 379.856 72.312C379.632 72.088 379.52 71.8 379.52 71.448C379.52 71.096 379.632 70.808 379.856 70.584C380.096 70.344 380.392 70.224 380.744 70.224H386.096C386.448 70.224 386.736 70.344 386.96 70.584C387.184 70.808 387.296 71.096 387.296 71.448C387.296 71.8 387.184 72.088 386.96 72.312C386.736 72.536 386.448 72.648 386.096 72.648H380.744ZM395.783 75.6C396.071 75.6 396.311 75.712 396.503 75.936C396.711 76.16 396.815 76.448 396.815 76.8C396.815 77.152 396.679 77.44 396.407 77.664C396.151 77.888 395.815 78 395.399 78H394.967C394.183 78 393.463 77.8 392.807 77.4C392.167 76.984 391.663 76.424 391.295 75.72C390.927 75.016 390.743 74.224 390.743 73.344V67.416H389.639C389.303 67.416 389.031 67.32 388.823 67.128C388.615 66.936 388.511 66.696 388.511 66.408C388.511 66.088 388.615 65.832 388.823 65.64C389.031 65.448 389.303 65.352 389.639 65.352H390.743V61.896C390.743 61.544 390.855 61.256 391.079 61.032C391.303 60.808 391.591 60.696 391.943 60.696C392.295 60.696 392.583 60.808 392.807 61.032C393.031 61.256 393.143 61.544 393.143 61.896V65.352H395.183C395.519 65.352 395.791 65.448 395.999 65.64C396.207 65.832 396.311 66.088 396.311 66.408C396.311 66.696 396.207 66.936 395.999 67.128C395.791 67.32 395.519 67.416 395.183 67.416H393.143V73.344C393.143 73.984 393.319 74.52 393.671 74.952C394.023 75.384 394.455 75.6 394.967 75.6H395.783ZM405.776 78.096C404.496 78.096 403.352 77.816 402.344 77.256C401.336 76.68 400.552 75.888 399.992 74.88C399.432 73.872 399.152 72.728 399.152 71.448C399.152 70.152 399.432 69 399.992 67.992C400.552 66.984 401.336 66.2 402.344 65.64C403.352 65.064 404.496 64.776 405.776 64.776C407.04 64.776 408.168 65.064 409.16 65.64C410.168 66.2 410.952 66.984 411.512 67.992C412.088 69 412.376 70.152 412.376 71.448C412.376 72.728 412.096 73.872 411.536 74.88C410.976 75.888 410.192 76.68 409.184 77.256C408.192 77.816 407.056 78.096 405.776 78.096ZM405.776 75.936C406.592 75.936 407.32 75.744 407.96 75.36C408.616 74.976 409.12 74.448 409.472 73.776C409.84 73.088 410.024 72.312 410.024 71.448C410.024 70.584 409.84 69.808 409.472 69.12C409.12 68.432 408.616 67.896 407.96 67.512C407.32 67.128 406.592 66.936 405.776 66.936C404.96 66.936 404.224 67.128 403.568 67.512C402.928 67.896 402.424 68.432 402.056 69.12C401.688 69.808 401.504 70.584 401.504 71.448C401.504 72.312 401.688 73.088 402.056 73.776C402.424 74.448 402.928 74.976 403.568 75.36C404.224 75.744 404.96 75.936 405.776 75.936ZM415.947 72.648C415.595 72.648 415.299 72.536 415.059 72.312C414.835 72.088 414.723 71.8 414.723 71.448C414.723 71.096 414.835 70.808 415.059 70.584C415.299 70.344 415.595 70.224 415.947 70.224H421.299C421.651 70.224 421.939 70.344 422.163 70.584C422.387 70.808 422.499 71.096 422.499 71.448C422.499 71.8 422.387 72.088 422.163 72.312C421.939 72.536 421.651 72.648 421.299 72.648H415.947ZM436.488 59.256C436.856 59.256 437.152 59.368 437.376 59.592C437.6 59.816 437.712 60.112 437.712 60.48V71.424C437.712 72.672 437.416 73.808 436.824 74.832C436.248 75.84 435.456 76.64 434.448 77.232C433.456 77.808 432.344 78.096 431.112 78.096C429.88 78.096 428.752 77.808 427.728 77.232C426.72 76.64 425.928 75.84 425.352 74.832C424.776 73.808 424.488 72.672 424.488 71.424C424.488 70.176 424.752 69.048 425.28 68.04C425.824 67.016 426.56 66.216 427.488 65.64C428.432 65.064 429.48 64.776 430.632 64.776C431.56 64.776 432.424 64.968 433.224 65.352C434.024 65.736 434.704 66.272 435.264 66.96V60.48C435.264 60.112 435.376 59.816 435.6 59.592C435.84 59.368 436.136 59.256 436.488 59.256ZM431.112 75.936C431.912 75.936 432.632 75.744 433.272 75.36C433.928 74.96 434.44 74.416 434.808 73.728C435.176 73.04 435.36 72.272 435.36 71.424C435.36 70.576 435.176 69.816 434.808 69.144C434.44 68.456 433.928 67.92 433.272 67.536C432.632 67.136 431.912 66.936 431.112 66.936C430.312 66.936 429.584 67.136 428.928 67.536C428.288 67.92 427.776 68.456 427.392 69.144C427.024 69.816 426.84 70.576 426.84 71.424C426.84 72.272 427.024 73.04 427.392 73.728C427.776 74.416 428.288 74.96 428.928 75.36C429.584 75.744 430.312 75.936 431.112 75.936ZM447.987 64.776C449.219 64.776 450.331 65.072 451.323 65.664C452.331 66.24 453.123 67.04 453.699 68.064C454.291 69.072 454.587 70.2 454.587 71.448V76.8C454.587 77.152 454.467 77.448 454.227 77.688C454.003 77.912 453.715 78.024 453.363 78.024C453.011 78.024 452.715 77.912 452.475 77.688C452.251 77.448 452.139 77.152 452.139 76.8V75.912C451.579 76.6 450.899 77.136 450.099 77.52C449.299 77.904 448.435 78.096 447.507 78.096C446.355 78.096 445.307 77.808 444.363 77.232C443.435 76.656 442.699 75.864 442.155 74.856C441.627 73.832 441.363 72.696 441.363 71.448C441.363 70.2 441.651 69.072 442.227 68.064C442.803 67.04 443.595 66.24 444.603 65.664C445.627 65.072 446.755 64.776 447.987 64.776ZM447.987 75.936C448.787 75.936 449.507 75.744 450.147 75.36C450.803 74.96 451.315 74.424 451.683 73.752C452.051 73.064 452.235 72.296 452.235 71.448C452.235 70.6 452.051 69.832 451.683 69.144C451.315 68.456 450.803 67.92 450.147 67.536C449.507 67.136 448.787 66.936 447.987 66.936C447.187 66.936 446.459 67.136 445.803 67.536C445.163 67.92 444.651 68.456 444.267 69.144C443.899 69.832 443.715 70.6 443.715 71.448C443.715 72.296 443.899 73.064 444.267 73.752C444.651 74.424 445.163 74.96 445.803 75.36C446.459 75.744 447.187 75.936 447.987 75.936ZM463.822 75.6C464.11 75.6 464.35 75.712 464.542 75.936C464.75 76.16 464.854 76.448 464.854 76.8C464.854 77.152 464.718 77.44 464.446 77.664C464.19 77.888 463.854 78 463.438 78H463.006C462.222 78 461.502 77.8 460.846 77.4C460.206 76.984 459.702 76.424 459.334 75.72C458.966 75.016 458.782 74.224 458.782 73.344V67.416H457.678C457.342 67.416 457.07 67.32 456.862 67.128C456.654 66.936 456.55 66.696 456.55 66.408C456.55 66.088 456.654 65.832 456.862 65.64C457.07 65.448 457.342 65.352 457.678 65.352H458.782V61.896C458.782 61.544 458.894 61.256 459.118 61.032C459.342 60.808 459.63 60.696 459.982 60.696C460.334 60.696 460.622 60.808 460.846 61.032C461.07 61.256 461.182 61.544 461.182 61.896V65.352H463.222C463.558 65.352 463.83 65.448 464.038 65.64C464.246 65.832 464.35 66.088 464.35 66.408C464.35 66.696 464.246 66.936 464.038 67.128C463.83 67.32 463.558 67.416 463.222 67.416H461.182V73.344C461.182 73.984 461.358 74.52 461.71 74.952C462.062 75.384 462.494 75.6 463.006 75.6H463.822ZM479.647 71.232C479.647 71.536 479.543 71.792 479.335 72C479.127 72.192 478.863 72.288 478.543 72.288H469.423C469.599 73.408 470.103 74.312 470.935 75C471.783 75.688 472.815 76.032 474.031 76.032C474.511 76.032 475.007 75.944 475.519 75.768C476.047 75.592 476.479 75.376 476.815 75.12C477.039 74.944 477.303 74.856 477.607 74.856C477.911 74.856 478.151 74.936 478.327 75.096C478.615 75.336 478.759 75.608 478.759 75.912C478.759 76.2 478.631 76.44 478.375 76.632C477.831 77.064 477.151 77.416 476.335 77.688C475.535 77.96 474.767 78.096 474.031 78.096C472.719 78.096 471.543 77.816 470.503 77.256C469.463 76.68 468.647 75.888 468.055 74.88C467.479 73.872 467.191 72.728 467.191 71.448C467.191 70.168 467.463 69.024 468.007 68.016C468.567 66.992 469.335 66.2 470.311 65.64C471.303 65.064 472.423 64.776 473.671 64.776C474.903 64.776 475.967 65.048 476.863 65.592C477.759 66.136 478.447 66.896 478.927 67.872C479.407 68.848 479.647 69.968 479.647 71.232ZM473.671 66.84C472.503 66.84 471.551 67.16 470.815 67.8C470.095 68.44 469.639 69.296 469.447 70.368H477.439C477.295 69.296 476.895 68.44 476.239 67.8C475.583 67.16 474.727 66.84 473.671 66.84Z" fill="white"/>
<rect x="497" y="102" width="95" height="44" rx="8" fill="#0F20E8"/>
<path d="M528.513 129.16C527.478 129.16 526.534 128.925 525.681 128.456C524.838 127.987 524.257 127.373 523.937 126.616C523.883 126.488 523.857 126.381 523.857 126.296C523.857 126.136 523.915 125.997 524.033 125.88C524.15 125.752 524.31 125.667 524.513 125.624C524.545 125.613 524.598 125.608 524.673 125.608C524.843 125.608 525.003 125.661 525.153 125.768C525.313 125.864 525.43 125.997 525.505 126.168C525.697 126.584 526.075 126.936 526.641 127.224C527.206 127.512 527.83 127.656 528.513 127.656C529.313 127.656 529.99 127.475 530.545 127.112C531.099 126.739 531.377 126.232 531.377 125.592C531.377 124.984 531.142 124.467 530.673 124.04C530.203 123.603 529.489 123.336 528.529 123.24C527.206 123.112 526.166 122.728 525.409 122.088C524.651 121.437 524.273 120.627 524.273 119.656C524.273 118.973 524.465 118.387 524.849 117.896C525.243 117.395 525.777 117.016 526.449 116.76C527.131 116.493 527.894 116.36 528.737 116.36C529.654 116.36 530.427 116.547 531.057 116.92C531.686 117.293 532.219 117.827 532.657 118.52C532.785 118.723 532.849 118.915 532.849 119.096C532.849 119.331 532.742 119.523 532.529 119.672C532.411 119.747 532.273 119.784 532.113 119.784C531.953 119.784 531.803 119.747 531.665 119.672C531.526 119.587 531.419 119.475 531.345 119.336C531.057 118.856 530.694 118.493 530.257 118.248C529.83 117.992 529.286 117.864 528.625 117.864C527.814 117.864 527.158 118.024 526.657 118.344C526.155 118.653 525.905 119.107 525.905 119.704C525.905 120.259 526.129 120.723 526.577 121.096C527.025 121.469 527.825 121.715 528.977 121.832C530.257 121.96 531.249 122.349 531.953 123C532.657 123.64 533.009 124.488 533.009 125.544C533.009 126.312 532.801 126.973 532.385 127.528C531.969 128.072 531.414 128.483 530.721 128.76C530.038 129.027 529.302 129.16 528.513 129.16ZM543.256 124.488C543.256 124.691 543.187 124.861 543.048 125C542.91 125.128 542.734 125.192 542.52 125.192H536.44C536.558 125.939 536.894 126.541 537.448 127C538.014 127.459 538.702 127.688 539.512 127.688C539.832 127.688 540.163 127.629 540.504 127.512C540.856 127.395 541.144 127.251 541.368 127.08C541.518 126.963 541.694 126.904 541.896 126.904C542.099 126.904 542.259 126.957 542.376 127.064C542.568 127.224 542.664 127.405 542.664 127.608C542.664 127.8 542.579 127.96 542.408 128.088C542.046 128.376 541.592 128.611 541.048 128.792C540.515 128.973 540.003 129.064 539.512 129.064C538.638 129.064 537.854 128.877 537.16 128.504C536.467 128.12 535.923 127.592 535.528 126.92C535.144 126.248 534.952 125.485 534.952 124.632C534.952 123.779 535.134 123.016 535.496 122.344C535.87 121.661 536.382 121.133 537.032 120.76C537.694 120.376 538.44 120.184 539.272 120.184C540.094 120.184 540.803 120.365 541.4 120.728C541.998 121.091 542.456 121.597 542.776 122.248C543.096 122.899 543.256 123.645 543.256 124.488ZM539.272 121.56C538.494 121.56 537.859 121.773 537.368 122.2C536.888 122.627 536.584 123.197 536.456 123.912H541.784C541.688 123.197 541.422 122.627 540.984 122.2C540.547 121.773 539.976 121.56 539.272 121.56ZM549.69 120.168C550.426 120.168 551.087 120.328 551.674 120.648C552.261 120.968 552.719 121.437 553.05 122.056C553.381 122.664 553.546 123.4 553.546 124.264V128.2C553.546 128.435 553.466 128.632 553.306 128.792C553.157 128.941 552.965 129.016 552.73 129.016C552.495 129.016 552.298 128.941 552.138 128.792C551.989 128.632 551.914 128.435 551.914 128.2V124.264C551.914 123.4 551.679 122.749 551.21 122.312C550.751 121.864 550.138 121.64 549.37 121.64C548.922 121.64 548.511 121.731 548.138 121.912C547.775 122.093 547.487 122.339 547.274 122.648C547.071 122.957 546.97 123.304 546.97 123.688V128.2C546.97 128.435 546.895 128.632 546.746 128.792C546.597 128.941 546.399 129.016 546.154 129.016C545.919 129.016 545.722 128.941 545.562 128.792C545.413 128.632 545.338 128.435 545.338 128.2V121.064C545.338 120.819 545.413 120.621 545.562 120.472C545.722 120.323 545.919 120.248 546.154 120.248C546.399 120.248 546.597 120.323 546.746 120.472C546.895 120.621 546.97 120.819 546.97 121.064V121.24C547.311 120.899 547.717 120.637 548.186 120.456C548.655 120.264 549.157 120.168 549.69 120.168ZM563.796 116.504C564.041 116.504 564.239 116.579 564.388 116.728C564.537 116.877 564.612 117.075 564.612 117.32V124.616C564.612 125.448 564.415 126.205 564.02 126.888C563.636 127.56 563.108 128.093 562.436 128.488C561.775 128.872 561.033 129.064 560.212 129.064C559.391 129.064 558.639 128.872 557.956 128.488C557.284 128.093 556.756 127.56 556.372 126.888C555.988 126.205 555.796 125.448 555.796 124.616C555.796 123.784 555.972 123.032 556.324 122.36C556.687 121.677 557.177 121.144 557.796 120.76C558.425 120.376 559.124 120.184 559.892 120.184C560.511 120.184 561.087 120.312 561.62 120.568C562.153 120.824 562.607 121.181 562.98 121.64V117.32C562.98 117.075 563.055 116.877 563.204 116.728C563.364 116.579 563.561 116.504 563.796 116.504ZM560.212 127.624C560.745 127.624 561.225 127.496 561.652 127.24C562.089 126.973 562.431 126.611 562.676 126.152C562.921 125.693 563.044 125.181 563.044 124.616C563.044 124.051 562.921 123.544 562.676 123.096C562.431 122.637 562.089 122.28 561.652 122.024C561.225 121.757 560.745 121.624 560.212 121.624C559.679 121.624 559.193 121.757 558.756 122.024C558.329 122.28 557.988 122.637 557.732 123.096C557.487 123.544 557.364 124.051 557.364 124.616C557.364 125.181 557.487 125.693 557.732 126.152C557.988 126.611 558.329 126.973 558.756 127.24C559.193 127.496 559.679 127.624 560.212 127.624Z" fill="white"/>
<g clip-path="url(#clip0_15176_56505)">
<path d="M697.242 174H721.001V150.207C708.192 150.828 697.862 161.138 697.242 174" fill="#3F4DED"/>
<path d="M673.482 174H697.241V150.207C684.432 150.828 674.102 161.138 673.482 174Z" fill="#3F4DED"/>
<path d="M649.725 174H673.483V150.207C660.674 150.828 650.344 161.138 649.725 174Z" fill="#3F4DED"/>
<path d="M626 174H649.759V150.207C636.915 150.828 626.585 161.138 626 174Z" fill="#3F4DED"/>
<path d="M697.242 150.207H721.001V126.414C708.192 127.035 697.862 137.345 697.242 150.207" fill="#3F4DED"/>
<path d="M697.242 126.414H721.001V102.621C708.192 103.242 697.862 113.587 697.242 126.414" fill="#3F4DED"/>
<path d="M697.242 102.793H721.001V79C708.192 79.6207 697.862 89.9655 697.242 102.793" fill="#3F4DED"/>
<path d="M673.482 150.207H697.241V126.414C684.432 127.035 674.102 137.345 673.482 150.207Z" fill="#3F4DED"/>
<path d="M673.482 126.414H697.241V102.621C684.432 103.242 674.102 113.587 673.482 126.414Z" fill="#3F4DED"/>
<path d="M649.725 150.207H673.483V126.414C660.674 127.035 650.344 137.345 649.725 150.207Z" fill="#3F4DED"/>
</g>
<rect x="75" y="102" width="402" height="44" rx="8" fill="#9FA6F6"/>
<path d="M99.4894 117.976C98.8921 117.976 98.4121 118.173 98.0494 118.568C97.6868 118.963 97.5054 119.485 97.5054 120.136V120.568H99.1374C99.3614 120.568 99.5428 120.632 99.6814 120.76C99.8201 120.888 99.8894 121.059 99.8894 121.272C99.8894 121.464 99.8201 121.624 99.6814 121.752C99.5428 121.88 99.3614 121.944 99.1374 121.944H97.5054V128.184C97.5054 128.429 97.4308 128.627 97.2814 128.776C97.1321 128.925 96.9241 129 96.6574 129C96.4441 129 96.2574 128.925 96.0974 128.776C95.9481 128.627 95.8734 128.429 95.8734 128.184V121.944H95.1854C94.9614 121.944 94.7801 121.88 94.6414 121.752C94.5028 121.624 94.4334 121.464 94.4334 121.272C94.4334 121.059 94.5028 120.888 94.6414 120.76C94.7801 120.632 94.9614 120.568 95.1854 120.568H95.8734V120.296C95.8734 119.539 96.0228 118.877 96.3214 118.312C96.6308 117.736 97.0574 117.293 97.6014 116.984C98.1561 116.664 98.7854 116.504 99.4894 116.504C99.7241 116.504 99.9161 116.573 100.065 116.712C100.225 116.851 100.305 117.027 100.305 117.24C100.305 117.453 100.225 117.629 100.065 117.768C99.9161 117.907 99.7241 117.976 99.4894 117.976ZM105.244 120.184C106.065 120.184 106.807 120.381 107.468 120.776C108.14 121.16 108.668 121.693 109.052 122.376C109.447 123.048 109.644 123.8 109.644 124.632V128.2C109.644 128.435 109.564 128.632 109.404 128.792C109.255 128.941 109.063 129.016 108.828 129.016C108.593 129.016 108.396 128.941 108.236 128.792C108.087 128.632 108.012 128.435 108.012 128.2V127.608C107.639 128.067 107.185 128.424 106.652 128.68C106.119 128.936 105.543 129.064 104.924 129.064C104.156 129.064 103.457 128.872 102.828 128.488C102.209 128.104 101.719 127.576 101.356 126.904C101.004 126.221 100.828 125.464 100.828 124.632C100.828 123.8 101.02 123.048 101.404 122.376C101.788 121.693 102.316 121.16 102.988 120.776C103.671 120.381 104.423 120.184 105.244 120.184ZM105.244 127.624C105.777 127.624 106.257 127.496 106.684 127.24C107.121 126.973 107.463 126.616 107.708 126.168C107.953 125.709 108.076 125.197 108.076 124.632C108.076 124.067 107.953 123.555 107.708 123.096C107.463 122.637 107.121 122.28 106.684 122.024C106.257 121.757 105.777 121.624 105.244 121.624C104.711 121.624 104.225 121.757 103.788 122.024C103.361 122.28 103.02 122.637 102.764 123.096C102.519 123.555 102.396 124.067 102.396 124.632C102.396 125.197 102.519 125.709 102.764 126.168C103.02 126.616 103.361 126.973 103.788 127.24C104.225 127.496 104.711 127.624 105.244 127.624ZM114.153 129C113.694 129 113.278 128.877 112.905 128.632C112.542 128.376 112.259 128.024 112.057 127.576C111.854 127.117 111.753 126.605 111.753 126.04V117.304C111.753 117.069 111.827 116.877 111.977 116.728C112.126 116.579 112.318 116.504 112.553 116.504C112.787 116.504 112.979 116.579 113.129 116.728C113.278 116.877 113.353 117.069 113.353 117.304V126.04C113.353 126.435 113.427 126.76 113.577 127.016C113.726 127.272 113.918 127.4 114.153 127.4H114.553C114.766 127.4 114.937 127.475 115.065 127.624C115.203 127.773 115.273 127.965 115.273 128.2C115.273 128.435 115.171 128.627 114.969 128.776C114.766 128.925 114.505 129 114.185 129H114.153ZM120.353 120.184C121.175 120.184 121.916 120.381 122.577 120.776C123.249 121.16 123.777 121.693 124.161 122.376C124.556 123.048 124.753 123.8 124.753 124.632V128.2C124.753 128.435 124.673 128.632 124.513 128.792C124.364 128.941 124.172 129.016 123.937 129.016C123.703 129.016 123.505 128.941 123.345 128.792C123.196 128.632 123.121 128.435 123.121 128.2V127.608C122.748 128.067 122.295 128.424 121.761 128.68C121.228 128.936 120.652 129.064 120.033 129.064C119.265 129.064 118.567 128.872 117.937 128.488C117.319 128.104 116.828 127.576 116.465 126.904C116.113 126.221 115.937 125.464 115.937 124.632C115.937 123.8 116.129 123.048 116.513 122.376C116.897 121.693 117.425 121.16 118.097 120.776C118.78 120.381 119.532 120.184 120.353 120.184ZM120.353 127.624C120.887 127.624 121.367 127.496 121.793 127.24C122.231 126.973 122.572 126.616 122.817 126.168C123.063 125.709 123.185 125.197 123.185 124.632C123.185 124.067 123.063 123.555 122.817 123.096C122.572 122.637 122.231 122.28 121.793 122.024C121.367 121.757 120.887 121.624 120.353 121.624C119.82 121.624 119.335 121.757 118.897 122.024C118.471 122.28 118.129 122.637 117.873 123.096C117.628 123.555 117.505 124.067 117.505 124.632C117.505 125.197 117.628 125.709 117.873 126.168C118.129 126.616 118.471 126.973 118.897 127.24C119.335 127.496 119.82 127.624 120.353 127.624ZM131.534 120.168C132.27 120.168 132.932 120.328 133.518 120.648C134.105 120.968 134.564 121.437 134.894 122.056C135.225 122.664 135.39 123.4 135.39 124.264V128.2C135.39 128.435 135.31 128.632 135.15 128.792C135.001 128.941 134.809 129.016 134.574 129.016C134.34 129.016 134.142 128.941 133.982 128.792C133.833 128.632 133.758 128.435 133.758 128.2V124.264C133.758 123.4 133.524 122.749 133.054 122.312C132.596 121.864 131.982 121.64 131.214 121.64C130.766 121.64 130.356 121.731 129.982 121.912C129.62 122.093 129.332 122.339 129.118 122.648C128.916 122.957 128.814 123.304 128.814 123.688V128.2C128.814 128.435 128.74 128.632 128.59 128.792C128.441 128.941 128.244 129.016 127.998 129.016C127.764 129.016 127.566 128.941 127.406 128.792C127.257 128.632 127.182 128.435 127.182 128.2V121.064C127.182 120.819 127.257 120.621 127.406 120.472C127.566 120.323 127.764 120.248 127.998 120.248C128.244 120.248 128.441 120.323 128.59 120.472C128.74 120.621 128.814 120.819 128.814 121.064V121.24C129.156 120.899 129.561 120.637 130.03 120.456C130.5 120.264 131.001 120.168 131.534 120.168ZM141.528 120.568C141.752 120.568 141.934 120.632 142.072 120.76C142.211 120.888 142.28 121.059 142.28 121.272C142.28 121.464 142.211 121.624 142.072 121.752C141.934 121.88 141.752 121.944 141.528 121.944H139.88V128.184C139.88 128.408 139.8 128.6 139.64 128.76C139.491 128.92 139.299 129 139.064 129C138.83 129 138.632 128.92 138.472 128.76C138.323 128.6 138.248 128.408 138.248 128.184V121.944H137.56C137.336 121.944 137.155 121.88 137.016 121.752C136.878 121.624 136.808 121.464 136.808 121.272C136.808 121.059 136.878 120.888 137.016 120.76C137.155 120.632 137.336 120.568 137.56 120.568H138.248V120.296C138.248 119.059 138.622 118.099 139.368 117.416C140.115 116.733 141.272 116.392 142.84 116.392C143.608 116.392 144.222 116.52 144.68 116.776C145.15 117.032 145.384 117.363 145.384 117.768C145.384 118.237 145.096 118.472 144.52 118.472C144.328 118.472 144.147 118.435 143.976 118.36C143.816 118.275 143.635 118.157 143.432 118.008C143.176 117.837 142.958 117.715 142.776 117.64C142.606 117.555 142.408 117.512 142.184 117.512C140.648 117.512 139.88 118.44 139.88 120.296V120.568H141.528ZM144.392 120.248C144.638 120.248 144.835 120.323 144.984 120.472C145.134 120.621 145.208 120.819 145.208 121.064V128.184C145.208 128.419 145.134 128.616 144.984 128.776C144.835 128.925 144.638 129 144.392 129C144.158 129 143.96 128.925 143.8 128.776C143.651 128.616 143.576 128.419 143.576 128.184V121.064C143.576 120.819 143.651 120.621 143.8 120.472C143.96 120.323 144.158 120.248 144.392 120.248ZM150.262 129C149.804 129 149.388 128.877 149.014 128.632C148.652 128.376 148.369 128.024 148.166 127.576C147.964 127.117 147.862 126.605 147.862 126.04V117.304C147.862 117.069 147.937 116.877 148.086 116.728C148.236 116.579 148.428 116.504 148.662 116.504C148.897 116.504 149.089 116.579 149.238 116.728C149.388 116.877 149.462 117.069 149.462 117.304V126.04C149.462 126.435 149.537 126.76 149.686 127.016C149.836 127.272 150.028 127.4 150.262 127.4H150.662C150.876 127.4 151.046 127.475 151.174 127.624C151.313 127.773 151.382 127.965 151.382 128.2C151.382 128.435 151.281 128.627 151.078 128.776C150.876 128.925 150.614 129 150.294 129H150.262ZM156.463 120.184C157.284 120.184 158.025 120.381 158.687 120.776C159.359 121.16 159.887 121.693 160.271 122.376C160.665 123.048 160.863 123.8 160.863 124.632V128.2C160.863 128.435 160.783 128.632 160.623 128.792C160.473 128.941 160.281 129.016 160.047 129.016C159.812 129.016 159.615 128.941 159.455 128.792C159.305 128.632 159.231 128.435 159.231 128.2V127.608C158.857 128.067 158.404 128.424 157.871 128.68C157.337 128.936 156.761 129.064 156.143 129.064C155.375 129.064 154.676 128.872 154.047 128.488C153.428 128.104 152.937 127.576 152.575 126.904C152.223 126.221 152.047 125.464 152.047 124.632C152.047 123.8 152.239 123.048 152.623 122.376C153.007 121.693 153.535 121.16 154.207 120.776C154.889 120.381 155.641 120.184 156.463 120.184ZM156.463 127.624C156.996 127.624 157.476 127.496 157.903 127.24C158.34 126.973 158.681 126.616 158.927 126.168C159.172 125.709 159.295 125.197 159.295 124.632C159.295 124.067 159.172 123.555 158.927 123.096C158.681 122.637 158.34 122.28 157.903 122.024C157.476 121.757 156.996 121.624 156.463 121.624C155.929 121.624 155.444 121.757 155.007 122.024C154.58 122.28 154.239 122.637 153.983 123.096C153.737 123.555 153.615 124.067 153.615 124.632C153.615 125.197 153.737 125.709 153.983 126.168C154.239 126.616 154.58 126.973 155.007 127.24C155.444 127.496 155.929 127.624 156.463 127.624ZM167.644 120.168C168.38 120.168 169.041 120.328 169.628 120.648C170.214 120.968 170.673 121.437 171.004 122.056C171.334 122.664 171.5 123.4 171.5 124.264V128.2C171.5 128.435 171.42 128.632 171.26 128.792C171.11 128.941 170.918 129.016 170.684 129.016C170.449 129.016 170.252 128.941 170.092 128.792C169.942 128.632 169.868 128.435 169.868 128.2V124.264C169.868 123.4 169.633 122.749 169.164 122.312C168.705 121.864 168.092 121.64 167.324 121.64C166.876 121.64 166.465 121.731 166.092 121.912C165.729 122.093 165.441 122.339 165.228 122.648C165.025 122.957 164.924 123.304 164.924 123.688V128.2C164.924 128.435 164.849 128.632 164.7 128.792C164.55 128.941 164.353 129.016 164.108 129.016C163.873 129.016 163.676 128.941 163.516 128.792C163.366 128.632 163.292 128.435 163.292 128.2V121.064C163.292 120.819 163.366 120.621 163.516 120.472C163.676 120.323 163.873 120.248 164.108 120.248C164.353 120.248 164.55 120.323 164.7 120.472C164.849 120.621 164.924 120.819 164.924 121.064V121.24C165.265 120.899 165.67 120.637 166.14 120.456C166.609 120.264 167.11 120.168 167.644 120.168ZM181.51 132.744C179.942 132.744 178.539 132.397 177.302 131.704C176.075 131.021 175.115 130.067 174.422 128.84C173.739 127.603 173.398 126.2 173.398 124.632C173.398 123.064 173.739 121.667 174.422 120.44C175.115 119.203 176.075 118.243 177.302 117.56C178.539 116.867 179.942 116.52 181.51 116.52C183.078 116.52 184.475 116.867 185.702 117.56C186.939 118.243 187.899 119.203 188.582 120.44C189.275 121.667 189.622 123.064 189.622 124.632C189.622 125.613 189.483 126.493 189.206 127.272C188.928 128.04 188.544 128.637 188.054 129.064C187.563 129.501 187.003 129.72 186.374 129.72C185.776 129.72 185.291 129.56 184.918 129.24C184.544 128.92 184.358 128.488 184.358 127.944V127.224C184.048 127.779 183.611 128.232 183.046 128.584C182.491 128.936 181.926 129.112 181.35 129.112C180.518 129.112 179.776 128.925 179.126 128.552C178.475 128.168 177.963 127.635 177.59 126.952C177.227 126.269 177.046 125.496 177.046 124.632C177.046 123.768 177.232 123 177.606 122.328C177.99 121.645 178.518 121.112 179.19 120.728C179.872 120.344 180.646 120.152 181.51 120.152C182.374 120.152 183.147 120.344 183.83 120.728C184.512 121.101 185.04 121.629 185.414 122.312C185.798 122.995 185.99 123.768 185.99 124.632V127.192C185.99 127.757 186.171 128.04 186.534 128.04C186.79 128.04 187.024 127.896 187.238 127.608C187.462 127.309 187.638 126.904 187.766 126.392C187.894 125.869 187.958 125.283 187.958 124.632C187.958 123.384 187.68 122.275 187.126 121.304C186.582 120.323 185.819 119.56 184.838 119.016C183.867 118.461 182.758 118.184 181.51 118.184C180.262 118.184 179.147 118.461 178.166 119.016C177.195 119.56 176.432 120.323 175.878 121.304C175.334 122.275 175.062 123.384 175.062 124.632C175.062 125.88 175.334 126.995 175.878 127.976C176.432 128.947 177.195 129.704 178.166 130.248C179.147 130.803 180.262 131.08 181.51 131.08C181.936 131.08 182.395 131.027 182.886 130.92C183.387 130.824 183.814 130.696 184.166 130.536C184.379 130.44 184.56 130.392 184.71 130.392C184.923 130.392 185.088 130.467 185.206 130.616C185.334 130.776 185.398 130.995 185.398 131.272C185.398 131.56 185.232 131.816 184.902 132.04C184.571 132.264 184.107 132.435 183.51 132.552C182.923 132.68 182.256 132.744 181.51 132.744ZM181.51 127.432C182.054 127.432 182.539 127.315 182.966 127.08C183.392 126.845 183.723 126.515 183.958 126.088C184.192 125.661 184.31 125.176 184.31 124.632C184.31 124.088 184.192 123.603 183.958 123.176C183.723 122.749 183.392 122.419 182.966 122.184C182.539 121.949 182.054 121.832 181.51 121.832C180.966 121.832 180.48 121.949 180.054 122.184C179.627 122.419 179.296 122.749 179.062 123.176C178.827 123.603 178.71 124.088 178.71 124.632C178.71 125.176 178.827 125.661 179.062 126.088C179.296 126.515 179.627 126.845 180.054 127.08C180.48 127.315 180.966 127.432 181.51 127.432ZM195.666 120.184C196.508 120.184 197.26 120.376 197.922 120.76C198.594 121.133 199.116 121.656 199.49 122.328C199.874 123 200.066 123.768 200.066 124.632V128.088C200.066 128.931 199.879 129.699 199.506 130.392C199.132 131.085 198.604 131.629 197.922 132.024C197.25 132.429 196.487 132.632 195.634 132.632C194.866 132.632 194.151 132.477 193.49 132.168C192.828 131.869 192.274 131.437 191.826 130.872C191.708 130.723 191.65 130.573 191.65 130.424C191.65 130.2 191.762 130.008 191.986 129.848C192.135 129.752 192.284 129.704 192.434 129.704C192.7 129.704 192.919 129.816 193.09 130.04C193.378 130.413 193.74 130.696 194.178 130.888C194.615 131.091 195.111 131.192 195.666 131.192C196.188 131.192 196.663 131.064 197.09 130.808C197.516 130.563 197.858 130.195 198.114 129.704C198.37 129.224 198.498 128.648 198.498 127.976V127.192C198.167 127.779 197.73 128.237 197.186 128.568C196.642 128.899 196.028 129.064 195.346 129.064C194.556 129.064 193.847 128.877 193.218 128.504C192.599 128.12 192.114 127.592 191.762 126.92C191.42 126.248 191.25 125.485 191.25 124.632C191.25 123.768 191.436 123 191.81 122.328C192.183 121.656 192.706 121.133 193.378 120.76C194.05 120.376 194.812 120.184 195.666 120.184ZM195.666 127.624C196.21 127.624 196.695 127.496 197.122 127.24C197.559 126.984 197.895 126.632 198.13 126.184C198.375 125.725 198.498 125.208 198.498 124.632C198.498 124.056 198.375 123.539 198.13 123.08C197.895 122.621 197.559 122.264 197.122 122.008C196.695 121.752 196.21 121.624 195.666 121.624C195.122 121.624 194.631 121.752 194.194 122.008C193.767 122.264 193.431 122.621 193.186 123.08C192.94 123.539 192.818 124.056 192.818 124.632C192.818 125.208 192.94 125.725 193.186 126.184C193.431 126.632 193.767 126.984 194.194 127.24C194.631 127.496 195.122 127.624 195.666 127.624ZM211.695 120.168C212.623 120.168 213.369 120.472 213.935 121.08C214.511 121.688 214.799 122.536 214.799 123.624V128.2C214.799 128.435 214.724 128.632 214.575 128.792C214.425 128.941 214.228 129.016 213.983 129.016C213.748 129.016 213.551 128.941 213.391 128.792C213.241 128.632 213.167 128.435 213.167 128.2V123.624C213.167 122.973 213.001 122.483 212.671 122.152C212.351 121.811 211.919 121.64 211.375 121.64C210.82 121.64 210.361 121.832 209.999 122.216C209.647 122.6 209.471 123.091 209.471 123.688V128.2C209.471 128.435 209.396 128.632 209.247 128.792C209.097 128.941 208.9 129.016 208.655 129.016C208.42 129.016 208.223 128.941 208.063 128.792C207.913 128.632 207.839 128.435 207.839 128.2V123.624C207.839 122.973 207.673 122.483 207.343 122.152C207.023 121.811 206.591 121.64 206.047 121.64C205.481 121.64 205.017 121.832 204.655 122.216C204.303 122.6 204.127 123.091 204.127 123.688V128.2C204.127 128.435 204.052 128.632 203.903 128.792C203.753 128.941 203.556 129.016 203.311 129.016C203.076 129.016 202.879 128.941 202.719 128.792C202.569 128.632 202.495 128.435 202.495 128.2V121.08C202.495 120.835 202.569 120.637 202.719 120.488C202.879 120.339 203.076 120.264 203.311 120.264C203.545 120.264 203.737 120.339 203.887 120.488C204.036 120.627 204.116 120.813 204.127 121.048C204.404 120.771 204.735 120.557 205.119 120.408C205.503 120.248 205.919 120.168 206.367 120.168C206.911 120.168 207.396 120.28 207.823 120.504C208.26 120.717 208.617 121.027 208.895 121.432C209.215 121.037 209.615 120.728 210.095 120.504C210.575 120.28 211.108 120.168 211.695 120.168ZM221.478 120.184C222.3 120.184 223.041 120.381 223.702 120.776C224.374 121.16 224.902 121.693 225.286 122.376C225.681 123.048 225.878 123.8 225.878 124.632V128.2C225.878 128.435 225.798 128.632 225.638 128.792C225.489 128.941 225.297 129.016 225.062 129.016C224.828 129.016 224.63 128.941 224.47 128.792C224.321 128.632 224.246 128.435 224.246 128.2V127.608C223.873 128.067 223.42 128.424 222.886 128.68C222.353 128.936 221.777 129.064 221.158 129.064C220.39 129.064 219.692 128.872 219.062 128.488C218.444 128.104 217.953 127.576 217.59 126.904C217.238 126.221 217.062 125.464 217.062 124.632C217.062 123.8 217.254 123.048 217.638 122.376C218.022 121.693 218.55 121.16 219.222 120.776C219.905 120.381 220.657 120.184 221.478 120.184ZM221.478 127.624C222.012 127.624 222.492 127.496 222.918 127.24C223.356 126.973 223.697 126.616 223.942 126.168C224.188 125.709 224.31 125.197 224.31 124.632C224.31 124.067 224.188 123.555 223.942 123.096C223.697 122.637 223.356 122.28 222.918 122.024C222.492 121.757 222.012 121.624 221.478 121.624C220.945 121.624 220.46 121.757 220.022 122.024C219.596 122.28 219.254 122.637 218.998 123.096C218.753 123.555 218.63 124.067 218.63 124.632C218.63 125.197 218.753 125.709 218.998 126.168C219.254 126.616 219.596 126.973 220.022 127.24C220.46 127.496 220.945 127.624 221.478 127.624ZM229.283 129C229.049 129 228.851 128.925 228.691 128.776C228.542 128.616 228.467 128.419 228.467 128.184V121.064C228.467 120.819 228.542 120.621 228.691 120.472C228.851 120.323 229.049 120.248 229.283 120.248C229.529 120.248 229.726 120.323 229.875 120.472C230.025 120.621 230.099 120.819 230.099 121.064V128.184C230.099 128.419 230.025 128.616 229.875 128.776C229.726 128.925 229.529 129 229.283 129ZM229.283 118.824C228.995 118.824 228.745 118.723 228.531 118.52C228.329 118.307 228.227 118.056 228.227 117.768C228.227 117.48 228.329 117.235 228.531 117.032C228.745 116.819 228.995 116.712 229.283 116.712C229.571 116.712 229.817 116.819 230.019 117.032C230.233 117.235 230.339 117.48 230.339 117.768C230.339 118.056 230.233 118.307 230.019 118.52C229.817 118.723 229.571 118.824 229.283 118.824ZM235.215 129C234.757 129 234.341 128.877 233.967 128.632C233.605 128.376 233.322 128.024 233.119 127.576C232.917 127.117 232.815 126.605 232.815 126.04V117.304C232.815 117.069 232.89 116.877 233.039 116.728C233.189 116.579 233.381 116.504 233.615 116.504C233.85 116.504 234.042 116.579 234.191 116.728C234.341 116.877 234.415 117.069 234.415 117.304V126.04C234.415 126.435 234.49 126.76 234.639 127.016C234.789 127.272 234.981 127.4 235.215 127.4H235.615C235.829 127.4 235.999 127.475 236.127 127.624C236.266 127.773 236.335 127.965 236.335 128.2C236.335 128.435 236.234 128.627 236.031 128.776C235.829 128.925 235.567 129 235.247 129H235.215ZM238.396 129.256C238.098 129.256 237.836 129.149 237.612 128.936C237.399 128.712 237.292 128.451 237.292 128.152C237.292 127.843 237.399 127.581 237.612 127.368C237.836 127.144 238.098 127.032 238.396 127.032C238.695 127.032 238.951 127.144 239.164 127.368C239.388 127.581 239.5 127.843 239.5 128.152C239.5 128.451 239.394 128.712 239.18 128.936C238.967 129.149 238.706 129.256 238.396 129.256ZM245.713 129.064C244.87 129.064 244.113 128.872 243.441 128.488C242.769 128.104 242.241 127.576 241.857 126.904C241.483 126.221 241.297 125.464 241.297 124.632C241.297 123.779 241.478 123.016 241.841 122.344C242.214 121.661 242.731 121.133 243.393 120.76C244.054 120.376 244.801 120.184 245.633 120.184C246.891 120.184 247.937 120.664 248.769 121.624C248.875 121.741 248.929 121.88 248.929 122.04C248.929 122.275 248.811 122.472 248.577 122.632C248.47 122.707 248.347 122.744 248.209 122.744C247.963 122.744 247.755 122.648 247.585 122.456C247.318 122.168 247.025 121.96 246.705 121.832C246.395 121.693 246.038 121.624 245.633 121.624C244.811 121.624 244.145 121.901 243.633 122.456C243.121 123 242.865 123.725 242.865 124.632C242.865 125.208 242.982 125.725 243.217 126.184C243.462 126.632 243.798 126.984 244.225 127.24C244.662 127.496 245.158 127.624 245.713 127.624C246.438 127.624 247.025 127.437 247.473 127.064C247.675 126.915 247.873 126.84 248.065 126.84C248.214 126.84 248.353 126.888 248.481 126.984C248.683 127.155 248.785 127.347 248.785 127.56C248.785 127.72 248.721 127.864 248.593 127.992C247.825 128.707 246.865 129.064 245.713 129.064ZM255.322 129.064C254.469 129.064 253.706 128.877 253.034 128.504C252.362 128.12 251.839 127.592 251.466 126.92C251.093 126.248 250.906 125.485 250.906 124.632C250.906 123.768 251.093 123 251.466 122.328C251.839 121.656 252.362 121.133 253.034 120.76C253.706 120.376 254.469 120.184 255.322 120.184C256.165 120.184 256.917 120.376 257.578 120.76C258.25 121.133 258.773 121.656 259.146 122.328C259.53 123 259.722 123.768 259.722 124.632C259.722 125.485 259.535 126.248 259.162 126.92C258.789 127.592 258.266 128.12 257.594 128.504C256.933 128.877 256.175 129.064 255.322 129.064ZM255.322 127.624C255.866 127.624 256.351 127.496 256.778 127.24C257.215 126.984 257.551 126.632 257.786 126.184C258.031 125.725 258.154 125.208 258.154 124.632C258.154 124.056 258.031 123.539 257.786 123.08C257.551 122.621 257.215 122.264 256.778 122.008C256.351 121.752 255.866 121.624 255.322 121.624C254.778 121.624 254.287 121.752 253.85 122.008C253.423 122.264 253.087 122.621 252.842 123.08C252.597 123.539 252.474 124.056 252.474 124.632C252.474 125.208 252.597 125.725 252.842 126.184C253.087 126.632 253.423 126.984 253.85 127.24C254.287 127.496 254.778 127.624 255.322 127.624ZM271.351 120.168C272.279 120.168 273.026 120.472 273.591 121.08C274.167 121.688 274.455 122.536 274.455 123.624V128.2C274.455 128.435 274.38 128.632 274.231 128.792C274.082 128.941 273.884 129.016 273.639 129.016C273.404 129.016 273.207 128.941 273.047 128.792C272.898 128.632 272.823 128.435 272.823 128.2V123.624C272.823 122.973 272.658 122.483 272.327 122.152C272.007 121.811 271.575 121.64 271.031 121.64C270.476 121.64 270.018 121.832 269.655 122.216C269.303 122.6 269.127 123.091 269.127 123.688V128.2C269.127 128.435 269.052 128.632 268.903 128.792C268.754 128.941 268.556 129.016 268.311 129.016C268.076 129.016 267.879 128.941 267.719 128.792C267.57 128.632 267.495 128.435 267.495 128.2V123.624C267.495 122.973 267.33 122.483 266.999 122.152C266.679 121.811 266.247 121.64 265.703 121.64C265.138 121.64 264.674 121.832 264.311 122.216C263.959 122.6 263.783 123.091 263.783 123.688V128.2C263.783 128.435 263.708 128.632 263.559 128.792C263.41 128.941 263.212 129.016 262.967 129.016C262.732 129.016 262.535 128.941 262.375 128.792C262.226 128.632 262.151 128.435 262.151 128.2V121.08C262.151 120.835 262.226 120.637 262.375 120.488C262.535 120.339 262.732 120.264 262.967 120.264C263.202 120.264 263.394 120.339 263.543 120.488C263.692 120.627 263.772 120.813 263.783 121.048C264.06 120.771 264.391 120.557 264.775 120.408C265.159 120.248 265.575 120.168 266.023 120.168C266.567 120.168 267.052 120.28 267.479 120.504C267.916 120.717 268.274 121.027 268.551 121.432C268.871 121.037 269.271 120.728 269.751 120.504C270.231 120.28 270.764 120.168 271.351 120.168Z" fill="#6F79F1"/>
<defs>
<clipPath id="clip0_15176_56505">
<rect width="95" height="95" fill="white" transform="translate(626 79)"/>
</clipPath>
</defs>
</svg>
