<svg width="167" height="52" viewBox="0 0 167 52" fill="none" xmlns="http://www.w3.org/2000/svg">
<path d="M159.876 1.48633H6.88931C3.52832 1.48633 0.765625 4.24899 0.765625 7.60998V44.3874C0.765625 47.7659 3.51072 50.511 6.88931 50.511H159.876C163.237 50.511 166 47.7483 166 44.3874V7.60998C166 4.2314 163.255 1.48633 159.876 1.48633Z" stroke="#0F20E8" stroke-miterlimit="10"/>
<path d="M58.8009 14.0347C58.8009 15.0553 58.5017 15.8824 57.8858 16.4983C57.1996 17.2197 56.3021 17.5892 55.1935 17.5892C54.0849 17.5892 53.2403 17.2197 52.4836 16.4806C51.7445 15.7416 51.375 14.8267 51.375 13.7356C51.375 12.6446 51.7445 11.7295 52.4836 10.9904C53.2227 10.2514 54.1201 9.88184 55.1935 9.88184C55.7214 9.88184 56.2141 9.98751 56.7068 10.1987C57.1819 10.4098 57.5691 10.6737 57.8506 11.0257L57.1995 11.6767C56.7068 11.096 56.0382 10.7969 55.1935 10.7969C54.4192 10.7969 53.7506 11.0608 53.1875 11.6063C52.6244 12.1518 52.3428 12.8558 52.3428 13.7356C52.3428 14.6155 52.6244 15.3193 53.1875 15.8648C53.7506 16.4103 54.4192 16.6742 55.1935 16.6742C56.0206 16.6742 56.6893 16.3927 57.2524 15.8472C57.6043 15.4952 57.8154 15.0026 57.8682 14.3515H55.1935V13.4717H58.7481C58.7833 13.6652 58.8009 13.8411 58.8009 14.0347Z" fill="#0F20E8"/>
<path d="M58.7971 14.0327H58.6739C58.6739 15.0357 58.3748 15.8099 57.7941 16.4082C57.1254 17.1121 56.2632 17.4642 55.1898 17.4642C54.1515 17.4642 53.2893 17.1121 52.5678 16.3906C51.8464 15.6691 51.4944 14.8071 51.4944 13.7337C51.4944 12.6779 51.8464 11.798 52.5678 11.0766C53.2893 10.3551 54.1515 10.003 55.1898 10.003C55.7001 10.003 56.1928 10.1086 56.6503 10.3022C57.1078 10.4958 57.4773 10.7598 57.7589 11.0942L57.8469 11.0237L57.7589 10.9356L57.1078 11.5867L57.1958 11.6748L57.2838 11.6043C56.7735 10.9884 56.0696 10.6893 55.1722 10.6893C54.3627 10.6893 53.6588 10.971 53.0781 11.5341C52.4974 12.0972 52.1983 12.8537 52.1983 13.7511C52.1983 14.6485 52.4974 15.3876 53.0781 15.9683C53.6588 16.5314 54.3627 16.8131 55.1722 16.8131C56.0168 16.8131 56.7383 16.5314 57.3014 15.9507C57.6885 15.5636 57.8997 15.0359 57.9525 14.3848V14.2439H55.2777V13.6104H58.7091V13.4873H58.5859C58.6211 13.6985 58.6387 13.8743 58.6387 14.0503H58.8851C58.8851 13.8568 58.8851 13.6809 58.8323 13.4697V13.364H55.0314V14.4902H57.8117V14.3672H57.6885C57.6357 14.9654 57.4422 15.4404 57.1078 15.7748C56.5799 16.3027 55.9288 16.5668 55.137 16.5668C54.3979 16.5668 53.7644 16.3027 53.2189 15.7924C52.6734 15.2645 52.4095 14.5957 52.4095 13.7511C52.4095 12.9064 52.6734 12.2379 53.2189 11.71C53.7644 11.1821 54.3979 10.9356 55.137 10.9356C55.964 10.9356 56.5975 11.2171 57.055 11.7626L57.143 11.8683L57.8821 11.1292L57.97 11.0413L57.8997 10.9533C57.6005 10.6013 57.1958 10.3022 56.7031 10.091C56.2104 9.87987 55.6825 9.77441 55.1546 9.77441C54.0636 9.77441 53.1309 10.1614 52.3743 10.918C51.6176 11.6747 51.2305 12.6249 51.2305 13.7511C51.2305 14.8597 51.6176 15.8277 52.3743 16.5844C53.1309 17.341 54.0812 17.728 55.1546 17.728C56.2808 17.728 57.231 17.3584 57.9349 16.6018L57.8469 16.5139L57.9349 16.6018C58.5684 15.9683 58.8851 15.1061 58.8851 14.0679H58.7619L58.7971 14.0327ZM64.4105 10.9885H61.0671V13.3288H64.0761V14.2086H61.0671V16.5491H64.4105V17.4466H60.1169V10.091H64.4105V10.9885Z" fill="#0F20E8"/>
<path d="M64.4481 10.9698V10.8467H60.9815V13.4158H63.9905V14.0493H60.9815V16.6183H64.3249V17.2694H60.2776V10.1604H64.3249V10.9346H64.4481H64.5712V9.91406H60.0312V17.5158H64.5712V16.3722H61.2278V14.278H64.2369V13.1518H61.2278V11.0579H64.5712V10.9346H64.4481V10.9698ZM68.4249 17.3927H67.4747V10.9346H65.4159V10.0371H70.4662V10.9346H68.4073V17.3927" fill="#0F20E8"/>
<path d="M68.4272 17.4122V17.2889H67.6001V10.831H65.5413V10.18H70.3452V10.831H68.2864V17.4122H68.4096H68.5327V11.0774H70.5916V9.93359H65.2949V11.0774H67.3537V17.5353H68.5503V17.4122H68.4272ZM74.1285 17.4122V10.0567H75.0787V17.4122H74.1285Z" fill="#0F20E8"/>
<path d="M74.1232 17.4122H74.2464V10.18H74.9502V17.2889H74.1232V17.4122V17.5353H75.1966V9.93359H74V17.5353H74.1232V17.4122ZM79.2439 17.4122H78.2936V10.9541H76.2348V10.0567H81.2851V10.9541H79.2263V17.4122" fill="#0F20E8"/>
<path d="M79.2475 17.4113V17.288H78.4204V10.8301H76.3616V10.1791H81.1655V10.8301H79.1067V17.4113H79.2299H79.3531V11.0765H81.4119V9.93269H76.1152V11.0765H78.1741V17.5344H79.3707V17.4113H79.2475ZM86.163 15.8452C86.7085 16.3907 87.3772 16.6722 88.1515 16.6722C88.9257 16.6722 89.612 16.3907 90.1399 15.8452C90.6854 15.2997 90.9494 14.5959 90.9494 13.7337C90.9494 12.8714 90.6854 12.1674 90.1399 11.6219C89.5944 11.0764 88.9257 10.7949 88.1515 10.7949C87.3772 10.7949 86.7085 11.0764 86.163 11.6219C85.6175 12.1674 85.3536 12.8714 85.3536 13.7337C85.3536 14.5959 85.6175 15.2997 86.163 15.8452ZM90.8438 16.461C90.1223 17.2001 89.2249 17.5696 88.1515 17.5696C87.0781 17.5696 86.1806 17.2001 85.4592 16.461C84.7377 15.722 84.3858 14.8071 84.3858 13.7337C84.3858 12.6603 84.7377 11.7451 85.4592 11.0061C86.1806 10.267 87.0781 9.89746 88.1515 9.89746C89.2249 9.89746 90.1223 10.267 90.8438 11.0237C91.5652 11.7627 91.9348 12.6777 91.9348 13.7511C91.9348 14.8245 91.5652 15.7396 90.8614 16.4786L90.8438 16.461Z" fill="#0F20E8"/>
<path d="M86.1622 15.8452L86.0742 15.9333C86.6373 16.514 87.3412 16.7955 88.1506 16.7955C88.9601 16.7955 89.6639 16.514 90.227 15.9333C90.7901 15.3526 91.0717 14.6135 91.0717 13.7337C91.0717 12.8539 90.7901 12.1148 90.227 11.5341C89.6639 10.9534 88.9601 10.6717 88.1506 10.6717C87.3412 10.6717 86.6373 10.9534 86.0742 11.5341C85.5111 12.1148 85.2296 12.8539 85.2296 13.7337C85.2296 14.6135 85.5111 15.3526 86.0742 15.9333L86.1622 15.8452L86.2502 15.7572C85.7223 15.2293 85.4759 14.5607 85.4759 13.7337C85.4759 12.9066 85.7399 12.2379 86.2502 11.71C86.7781 11.1821 87.394 10.918 88.1506 10.918C88.9073 10.918 89.5408 11.1821 90.0511 11.71C90.579 12.2379 90.8253 12.9066 90.8253 13.7337C90.8253 14.5607 90.5614 15.2293 90.0511 15.7572C89.5232 16.2851 88.9073 16.5491 88.1506 16.5491C87.394 16.5491 86.7605 16.2851 86.2502 15.7572L86.1622 15.8452ZM90.8429 16.4611L90.755 16.3732C90.0511 17.0947 89.1888 17.4466 88.1506 17.4466C87.1124 17.4466 86.2502 17.0947 85.5463 16.3732C84.8424 15.6517 84.5081 14.7719 84.5081 13.7337C84.5081 12.6779 84.86 11.8156 85.5463 11.0942C86.2502 10.3727 87.1124 10.0206 88.1506 10.0206C89.1888 10.0206 90.0511 10.3725 90.755 11.1116C91.4588 11.833 91.8108 12.7129 91.8108 13.7511C91.8108 14.8069 91.4588 15.6691 90.755 16.3906L90.8429 16.4787L90.9309 16.5668C91.67 15.8101 92.0395 14.8597 92.0395 13.7511C92.0395 12.6601 91.67 11.7099 90.9133 10.9356C90.1743 10.1614 89.2416 9.77441 88.133 9.77441C87.0244 9.77441 86.0918 10.1614 85.3527 10.9356C84.6137 11.6923 84.2441 12.6425 84.2441 13.7511C84.2441 14.8597 84.6137 15.7925 85.3527 16.5668C86.0918 17.341 87.0244 17.728 88.133 17.7104C89.2416 17.7104 90.1743 17.3234 90.9133 16.5668L90.8253 16.4787L90.8429 16.4611ZM93.2537 17.4114V10.0558H94.3975L97.9697 15.7748H98.0048L97.9697 14.3495V10.0382H98.9199V17.3938H97.9345L94.2039 11.3932H94.1687L94.2039 12.8186V17.3938H93.2537" fill="#0F20E8"/>
<path d="M93.2753 17.4103H93.3985V10.1781H94.3487L97.9209 15.897H98.1496L98.1144 14.3485V10.1604H98.8183V17.2694H98.0265L94.2959 11.2691H94.0672L94.1024 12.8176V17.2694H93.2753V17.3927V17.5158H94.3487V12.8176L94.3135 11.3921H94.1904V11.5154H94.2256V11.3921L94.12 11.4626L97.8857 17.5158H99.0647V9.91406H97.8681V14.3485L97.9033 15.7737H98.0265V15.6506H97.9913V15.7737L98.0968 15.7035L94.4895 9.93168H93.1521V17.5334H93.2753V17.4103ZM131.654 38.2449H133.942V22.9181H131.654V38.2449ZM152.225 28.4436L149.603 35.095H149.532L146.822 28.4436H144.359L148.441 37.7345L146.119 42.9081H148.494L154.776 28.4612H152.242L152.225 28.4436ZM139.273 36.5028C138.517 36.5028 137.479 36.1333 137.479 35.2007C137.479 34.0217 138.781 33.5641 139.907 33.5641C140.91 33.5641 141.385 33.7753 142.001 34.0744C141.825 35.4998 140.611 36.5028 139.291 36.5028H139.273ZM139.555 28.1091C137.901 28.1091 136.194 28.8307 135.472 30.4496L137.496 31.2942C137.936 30.4496 138.728 30.168 139.59 30.168C140.769 30.168 141.966 30.8719 141.983 32.1388V32.2971C141.561 32.0684 140.681 31.6989 139.608 31.6989C137.426 31.6989 135.191 32.8954 135.191 35.1478C135.191 37.2066 136.986 38.5265 138.992 38.5265C140.523 38.5265 141.367 37.8403 141.913 37.0308H141.983V38.2096H144.183V32.3324C144.183 29.6049 142.159 28.0915 139.537 28.0915L139.555 28.1091ZM125.442 30.3087H122.187V25.0473H125.442C127.149 25.0473 128.117 26.455 128.117 27.6692C128.117 28.8834 127.149 30.2911 125.442 30.2911V30.3087ZM125.389 22.9181H119.917V38.2449H122.204V32.4378H125.389C127.923 32.4378 130.405 30.6079 130.405 27.6868C130.405 24.7657 127.923 22.9357 125.389 22.9357V22.9181ZM95.5453 36.5028C93.9616 36.5028 92.6419 35.183 92.6419 33.3705C92.6419 31.5581 93.9616 30.1856 95.5453 30.1856C97.129 30.1856 98.3256 31.5229 98.3256 33.3705C98.3256 35.2182 97.1114 36.5028 95.5453 36.5028ZM98.1673 29.2882H98.0968C97.5865 28.6723 96.6011 28.1267 95.3517 28.1267C92.7474 28.1267 90.3718 30.4142 90.3718 33.3529C90.3718 36.2916 92.765 38.5441 95.3517 38.5441C96.6011 38.5441 97.5865 37.9985 98.0968 37.365H98.1673V38.1218C98.1673 40.1102 97.1114 41.1836 95.387 41.1836C93.9792 41.1836 93.117 40.1805 92.765 39.3183L90.7766 40.1453C91.3397 41.5354 92.8706 43.2247 95.387 43.2247C98.0617 43.2247 100.332 41.641 100.332 37.7873V28.4259H98.1673V29.2705V29.2882ZM101.915 38.2273H104.203V22.9005H101.915V38.2273ZM107.582 33.177C107.529 31.171 109.148 30.1328 110.309 30.1328C111.224 30.1328 111.981 30.5903 112.245 31.2414L107.599 33.177H107.582ZM114.673 31.4349C114.233 30.2735 112.913 28.1091 110.221 28.1091C107.529 28.1091 105.312 30.2206 105.312 33.3177C105.312 36.2388 107.511 38.5265 110.485 38.5265C112.878 38.5265 114.251 37.0658 114.831 36.2212L113.054 35.0424C112.456 35.9046 111.646 36.4852 110.485 36.4852C109.324 36.4852 108.497 35.9572 107.969 34.9014L114.937 32.0155L114.708 31.4173L114.673 31.4349ZM59.2255 29.7105V31.9277H64.5046C64.3462 33.1771 63.9414 34.0744 63.308 34.7079C62.5337 35.4822 61.3371 36.3269 59.2255 36.3269C55.9701 36.3269 53.4361 33.705 53.4361 30.4496C53.4361 27.1942 55.9877 24.5721 59.2255 24.5721C60.9852 24.5721 62.2697 25.2584 63.2024 26.1559L64.7685 24.5897C63.4487 23.3228 61.6891 22.3549 59.2255 22.3549C54.7735 22.3549 51.0254 25.9976 51.0254 30.4496C51.0254 34.9016 54.7735 38.5441 59.2255 38.5441C61.6363 38.5441 63.4487 37.7522 64.8565 36.274C66.317 34.8135 66.7745 32.7548 66.7745 31.1007C66.7745 30.5904 66.7393 30.1152 66.6514 29.7105H59.2255ZM72.7926 36.4852C71.2089 36.4852 69.854 35.1829 69.854 33.3177C69.854 31.4524 71.2089 30.1504 72.7926 30.1504C74.3763 30.1504 75.7313 31.4348 75.7313 33.3177C75.7313 35.2005 74.3763 36.4852 72.7926 36.4852ZM72.7926 28.1091C69.9068 28.1091 67.5664 30.3086 67.5664 33.3177C67.5664 36.3267 69.9068 38.5265 72.7926 38.5265C75.6785 38.5265 78.0189 36.3091 78.0189 33.3177C78.0189 30.3262 75.6785 28.1091 72.7926 28.1091ZM84.1954 36.4852C82.6117 36.4852 81.2567 35.1829 81.2567 33.3177C81.2567 31.4524 82.6117 30.1504 84.1954 30.1504C85.7791 30.1504 87.134 31.4348 87.134 33.3177C87.134 35.2005 85.7791 36.4852 84.1954 36.4852ZM84.1954 28.1091C81.3095 28.1091 78.9691 30.3086 78.9691 33.3177C78.9691 36.3267 81.3095 38.5265 84.1954 38.5265C87.0813 38.5265 89.4216 36.3091 89.4216 33.3177C89.4216 30.3262 87.0813 28.1091 84.1954 28.1091Z" fill="#0F20E8"/>
<path d="M13.5396 41.2744C13.1877 40.9049 12.9766 40.3066 12.9766 39.5499V39.374C12.9766 40.1307 13.1877 40.7113 13.5396 41.0985L13.6276 41.1865L13.5396 41.2744Z" fill="url(#paint0_linear_14607_55801)"/>
<path d="M14.0007 10.8138C13.596 11.1834 13.3496 11.7993 13.3496 12.6264V39.3734C13.3496 40.1301 13.5608 40.7107 13.9127 41.0979L14.0007 41.1859C14.2823 41.4499 14.6518 41.5906 15.0741 41.5906C15.4964 41.5906 15.954 41.4499 16.4467 41.1859L34.2194 31.0678L40.3255 27.601C41.0998 27.1611 41.5397 26.5982 41.6101 26.0175C41.5397 25.4368 41.0998 24.8736 40.3255 24.4161L34.2194 20.9496L16.4467 10.8314C15.954 10.5499 15.4964 10.4268 15.0741 10.4268C14.6518 10.4268 14.2823 10.5675 14.0007 10.8314V10.8138Z" fill="#00C1FF"/>
<path d="M14.0007 41.1846L13.9127 41.0965C13.5608 40.727 13.3496 40.1287 13.3496 39.3721V12.625C13.3496 11.798 13.596 11.182 14.0007 10.8125L29.1691 25.9986L14.0007 41.1846Z" fill="url(#paint1_linear_14607_55801)"/>
<path d="M34.2182 31.0664L29.168 25.9986L34.2182 20.9307L40.3243 24.3972C41.0986 24.8371 41.5385 25.4002 41.6089 25.9809C41.5385 26.5616 41.0986 27.1248 40.3243 27.5647L34.2182 31.0312" fill="url(#paint2_linear_14607_55801)"/>
<path d="M15.089 41.5898C14.6667 41.5898 14.2972 41.449 14.0156 41.1851L29.1841 25.999L34.2344 31.0669L16.4616 41.1851C15.9689 41.4666 15.5114 41.5898 15.089 41.5898Z" fill="url(#paint3_linear_14607_55801)"/>
<path d="M29.1645 25.9999L13.9961 10.8139C14.2776 10.5499 14.6472 10.4092 15.0695 10.4092C15.4918 10.4092 15.9493 10.5499 16.442 10.8139L34.2148 20.932L29.1645 25.9999Z" fill="url(#paint4_linear_14607_55801)"/>
<path d="M34.34 31.1733L34.2344 31.0679L40.3405 27.6011C41.1147 27.1612 41.5546 26.5983 41.625 26.0176C41.625 26.2287 41.5722 26.4399 41.4843 26.651C41.2907 27.0734 40.9212 27.4605 40.3405 27.7949L34.3575 31.2085" fill="url(#paint5_linear_14607_55801)"/>
<path d="M41.6094 25.9997C41.539 25.419 41.0991 24.8559 40.3248 24.416L34.2188 20.9494L34.3243 20.8438L40.3073 24.2576C41.1695 24.7504 41.5918 25.3839 41.5918 26.0349" fill="url(#paint6_linear_14607_55801)"/>
<defs>
<linearGradient id="paint0_linear_14607_55801" x1="4150.75" y1="6605.73" x2="4126.99" y2="6629.31" gradientUnits="userSpaceOnUse">
<stop stop-color="#008DE0"/>
<stop offset="0.26" stop-color="#00A7E0"/>
<stop offset="0.51" stop-color="#00B8E0"/>
<stop offset="0.76" stop-color="#00C4E0"/>
<stop offset="1" stop-color="#00C7E0"/>
</linearGradient>
<linearGradient id="paint1_linear_14607_55801" x1="79494" y1="124884" x2="78965.2" y2="125414" gradientUnits="userSpaceOnUse">
<stop stop-color="#00A1FF"/>
<stop offset="0.26" stop-color="#00BEFF"/>
<stop offset="0.51" stop-color="#00D2FF"/>
<stop offset="0.76" stop-color="#00DFFF"/>
<stop offset="1" stop-color="#00E3FF"/>
</linearGradient>
<linearGradient id="paint2_linear_14607_55801" x1="33904.6" y1="63284.6" x2="33290.9" y2="63284.6" gradientUnits="userSpaceOnUse">
<stop stop-color="#FFE000"/>
<stop offset="0.41" stop-color="#FFBD00"/>
<stop offset="0.78" stop-color="#FFA500"/>
<stop offset="1" stop-color="#FF9C00"/>
</linearGradient>
<linearGradient id="paint3_linear_14607_55801" x1="57559.2" y1="96516.5" x2="56833.1" y2="97238.2" gradientUnits="userSpaceOnUse">
<stop stop-color="#FF3A44"/>
<stop offset="1" stop-color="#C31162"/>
</linearGradient>
<linearGradient id="paint4_linear_14607_55801" x1="56852.2" y1="100873" x2="57175.8" y2="101195" gradientUnits="userSpaceOnUse">
<stop stop-color="#32A071"/>
<stop offset="0.07" stop-color="#2DA771"/>
<stop offset="0.48" stop-color="#15CF74"/>
<stop offset="0.8" stop-color="#06E775"/>
<stop offset="1" stop-color="#00F076"/>
</linearGradient>
<linearGradient id="paint5_linear_14607_55801" x1="17646.7" y1="34735.1" x2="17308.4" y2="34735.1" gradientUnits="userSpaceOnUse">
<stop stop-color="#E0C500"/>
<stop offset="0.41" stop-color="#E0A600"/>
<stop offset="0.78" stop-color="#E09100"/>
<stop offset="1" stop-color="#E08900"/>
</linearGradient>
<linearGradient id="paint6_linear_14607_55801" x1="17647.2" y1="35251.1" x2="17308.8" y2="35251.1" gradientUnits="userSpaceOnUse">
<stop stop-color="#FFE840"/>
<stop offset="0.41" stop-color="#FFCE40"/>
<stop offset="0.78" stop-color="#FFBC40"/>
<stop offset="1" stop-color="#FFB540"/>
</linearGradient>
</defs>
</svg>
