<svg width="668" height="687" viewBox="0 0 668 687" fill="none" xmlns="http://www.w3.org/2000/svg">
<g clip-path="url(#clip0_15590_71689)" filter="url(#filter0_f_15590_71689)">
<path d="M359.711 300.84L357.529 296.872L355.2 300.737C356.171 302.501 358.677 302.558 359.711 300.84Z" fill="#BEC0F3"/>
<path d="M359.711 300.84L357.529 296.872L355.2 300.737C356.171 302.501 358.677 302.558 359.711 300.84Z" stroke="#0B00DC" stroke-linecap="round" stroke-linejoin="round"/>
<path d="M355.2 300.737L352.945 300.688L355.273 296.824L357.525 296.875L355.2 300.737Z" fill="white"/>
<path d="M355.2 300.737L352.945 300.688L355.273 296.824L357.525 296.875L355.2 300.737Z" stroke="#0B00DC" stroke-linecap="round" stroke-linejoin="round"/>
<path d="M352.945 300.688L355.198 300.738C355.7 301.651 356.613 302.105 357.524 302.094C355.815 302.379 353.713 301.849 352.945 300.688Z" fill="white"/>
<path d="M352.945 300.688L355.198 300.738C355.7 301.651 356.613 302.105 357.524 302.094C355.815 302.379 353.713 301.849 352.945 300.688Z" stroke="#0B00DC" stroke-linecap="round" stroke-linejoin="round"/>
</g>
<g clip-path="url(#clip1_15590_71689)" filter="url(#filter1_f_15590_71689)">
<path d="M278.09 276.554L279.258 285.056L271.285 281.87C270.766 278.084 274.542 275.134 278.09 276.554Z" fill="white"/>
<path d="M278.09 276.554L279.258 285.056L271.285 281.87C270.766 278.084 274.542 275.134 278.09 276.554Z" stroke="#0B00DC" stroke-linecap="round" stroke-linejoin="round"/>
<path d="M271.287 281.87L267.887 284.526L275.859 287.712L279.259 285.056L271.287 281.87Z" fill="#BEC0F3"/>
<path d="M271.287 281.87L267.887 284.526L275.859 287.712L279.259 285.056L271.287 281.87Z" stroke="#0B00DC" stroke-linecap="round" stroke-linejoin="round"/>
<path d="M267.886 284.526L271.286 281.87C271.014 279.908 271.906 278.173 273.307 277.152C270.357 278.675 267.743 281.879 267.886 284.526Z" fill="white"/>
<path d="M267.886 284.526L271.286 281.87C271.014 279.908 271.906 278.173 273.307 277.152C270.357 278.675 267.743 281.879 267.886 284.526V284.526Z" stroke="#0B00DC" stroke-linecap="round" stroke-linejoin="round"/>
</g>
<g opacity="0.45" filter="url(#filter2_f_15590_71689)">
<ellipse cx="324.664" cy="343.737" rx="43.1191" ry="42.7901" transform="rotate(-87.7353 324.664 343.737)" fill="#0F20E8"/>
</g>
<g clip-path="url(#clip2_15590_71689)" filter="url(#filter3_f_15590_71689)">
<path d="M361.244 396.635L359.062 392.667L356.734 396.532C357.704 398.296 360.21 398.353 361.244 396.635Z" fill="#BEC0F3"/>
<path d="M361.244 396.635L359.062 392.667L356.734 396.532C357.704 398.296 360.21 398.353 361.244 396.635Z" stroke="#0B00DC" stroke-linecap="round" stroke-linejoin="round"/>
<path d="M356.734 396.532L354.478 396.483L356.806 392.619L359.059 392.669L356.734 396.532Z" fill="white"/>
<path d="M356.734 396.532L354.478 396.483L356.806 392.619L359.059 392.669L356.734 396.532Z" stroke="#0B00DC" stroke-linecap="round" stroke-linejoin="round"/>
<path d="M354.479 396.482L356.731 396.533C357.233 397.446 358.146 397.9 359.058 397.889C357.349 398.174 355.246 397.644 354.479 396.482Z" fill="white"/>
<path d="M354.479 396.482L356.731 396.533C357.233 397.446 358.146 397.9 359.058 397.889C357.349 398.174 355.246 397.644 354.479 396.482Z" stroke="#0B00DC" stroke-linecap="round" stroke-linejoin="round"/>
</g>
<g clip-path="url(#clip3_15590_71689)" filter="url(#filter4_f_15590_71689)">
<path d="M262.601 341.96L261.577 349.412L268.543 346.573C268.999 343.26 265.697 340.698 262.601 341.96Z" fill="#BEC0F3"/>
<path d="M262.601 341.96L261.577 349.412L268.543 346.573C268.999 343.26 265.697 340.698 262.601 341.96Z" stroke="#0B00DC" stroke-linecap="round" stroke-linejoin="round"/>
<path d="M268.543 346.574L271.518 348.878L264.551 351.716L261.582 349.413L268.543 346.574Z" fill="white"/>
<path d="M268.543 346.574L271.518 348.878L264.551 351.716L261.582 349.413L268.543 346.574Z" stroke="#0B00DC" stroke-linecap="round" stroke-linejoin="round"/>
<path d="M271.518 348.877L268.549 346.574C268.784 344.861 268.012 343.349 266.78 342.459C269.354 343.775 271.645 346.567 271.518 348.877Z" fill="white"/>
<path d="M271.518 348.877L268.549 346.574C268.784 344.861 268.012 343.349 266.78 342.459C269.354 343.775 271.645 346.567 271.518 348.877Z" stroke="#0B00DC" stroke-linecap="round" stroke-linejoin="round"/>
</g>
<g filter="url(#filter5_f_15590_71689)">
<ellipse cx="328.727" cy="338.874" rx="25.7661" ry="26.119" fill="#9FA6F6"/>
</g>
<g clip-path="url(#clip4_15590_71689)">
<path d="M271.893 313.987L302.148 331.515V296.437C288.711 288.663 271.893 298.397 271.893 313.987Z" fill="white"/>
<path d="M271.893 313.987L302.148 331.515V296.437C288.711 288.663 271.893 298.397 271.893 313.987Z" stroke="#0B00DC" stroke-linecap="round" stroke-linejoin="round"/>
<path d="M302.148 296.437L317.287 287.673L317.266 322.73L302.148 331.494V296.437Z" fill="#BEC0F3"/>
<path d="M302.148 296.437L317.287 287.673L317.266 322.73L302.148 331.494V296.437Z" stroke="#0B00DC" stroke-linecap="round" stroke-linejoin="round"/>
<path d="M317.287 287.673L302.169 296.438C295.198 292.414 287.346 293.088 281.383 296.817C291.524 288.031 307.544 283.059 317.287 287.673Z" fill="white"/>
<path d="M317.287 287.673L302.169 296.438C295.198 292.414 287.346 293.088 281.383 296.817C291.524 288.031 307.544 283.059 317.287 287.673Z" stroke="#0B00DC" stroke-linecap="round" stroke-linejoin="round"/>
<path d="M302.126 296.501V331.558C302.126 353.258 313.654 373.294 332.382 384.144V349.087C332.382 327.387 320.834 307.351 302.105 296.501H302.126Z" fill="white"/>
<path d="M302.126 296.501V331.558C302.126 353.258 313.654 373.294 332.382 384.144V349.087C332.382 327.387 320.834 307.351 302.105 296.501H302.126Z" stroke="#0B00DC" stroke-linecap="round" stroke-linejoin="round"/>
<path d="M317.287 287.673L302.148 296.5C320.877 307.35 332.404 327.386 332.425 349.086V384.143L347.564 375.315V340.258C347.564 318.558 336.016 298.523 317.287 287.673Z" fill="#BEC0F3"/>
<path d="M317.287 287.673L302.148 296.5C320.877 307.35 332.404 327.386 332.425 349.086V384.143L347.564 375.315V340.258C347.564 318.558 336.016 298.523 317.287 287.673V287.673Z" stroke="#0B00DC" stroke-linecap="round" stroke-linejoin="round"/>
<path d="M332.424 384.143V349.086L362.68 366.614C362.68 382.205 345.862 391.938 332.424 384.143Z" fill="white"/>
<path d="M332.424 384.143V349.086L362.68 366.614C362.68 382.205 345.862 391.938 332.424 384.143V384.143Z" stroke="#0B00DC" stroke-linecap="round" stroke-linejoin="round"/>
<path d="M362.68 366.615L377.797 357.851L347.541 340.322L332.424 349.087L362.68 366.615Z" fill="white"/>
<path d="M362.68 366.615L377.797 357.851L347.541 340.322L332.424 349.087L362.68 366.615Z" stroke="#0B00DC" stroke-linecap="round" stroke-linejoin="round"/>
<path d="M377.798 357.851L362.68 366.615C362.68 374.684 358.166 381.173 351.951 384.502C364.633 380.077 376.916 368.637 377.798 357.872" fill="#BEC0F3"/>
<path d="M377.798 357.851L362.68 366.615C362.68 374.684 358.166 381.173 351.951 384.502C364.633 380.077 376.916 368.637 377.798 357.872V357.851Z" stroke="#0B00DC" stroke-linecap="round" stroke-linejoin="round"/>
</g>
<defs>
<filter id="filter0_f_15590_71689" x="345.621" y="289.649" width="20.4922" height="20.5557" filterUnits="userSpaceOnUse" color-interpolation-filters="sRGB">
<feFlood flood-opacity="0" result="BackgroundImageFix"/>
<feBlend mode="normal" in="SourceGraphic" in2="BackgroundImageFix" result="shape"/>
<feGaussianBlur stdDeviation="3" result="effect1_foregroundBlur_15590_71689"/>
</filter>
<filter id="filter1_f_15590_71689" x="260.791" y="269" width="27.3242" height="26.8291" filterUnits="userSpaceOnUse" color-interpolation-filters="sRGB">
<feFlood flood-opacity="0" result="BackgroundImageFix"/>
<feBlend mode="normal" in="SourceGraphic" in2="BackgroundImageFix" result="shape"/>
<feGaussianBlur stdDeviation="2.5" result="effect1_foregroundBlur_15590_71689"/>
</filter>
<filter id="filter2_f_15590_71689" x="-18.127" y="0.618164" width="685.582" height="686.238" filterUnits="userSpaceOnUse" color-interpolation-filters="sRGB">
<feFlood flood-opacity="0" result="BackgroundImageFix"/>
<feBlend mode="normal" in="SourceGraphic" in2="BackgroundImageFix" result="shape"/>
<feGaussianBlur stdDeviation="150" result="effect1_foregroundBlur_15590_71689"/>
</filter>
<filter id="filter3_f_15590_71689" x="347.154" y="385.444" width="20.4922" height="20.5557" filterUnits="userSpaceOnUse" color-interpolation-filters="sRGB">
<feFlood flood-opacity="0" result="BackgroundImageFix"/>
<feBlend mode="normal" in="SourceGraphic" in2="BackgroundImageFix" result="shape"/>
<feGaussianBlur stdDeviation="3" result="effect1_foregroundBlur_15590_71689"/>
</filter>
<filter id="filter4_f_15590_71689" x="251" y="331.057" width="31.6875" height="31.8682" filterUnits="userSpaceOnUse" color-interpolation-filters="sRGB">
<feFlood flood-opacity="0" result="BackgroundImageFix"/>
<feBlend mode="normal" in="SourceGraphic" in2="BackgroundImageFix" result="shape"/>
<feGaussianBlur stdDeviation="5" result="effect1_foregroundBlur_15590_71689"/>
</filter>
<filter id="filter5_f_15590_71689" x="2.96094" y="12.7549" width="651.531" height="652.238" filterUnits="userSpaceOnUse" color-interpolation-filters="sRGB">
<feFlood flood-opacity="0" result="BackgroundImageFix"/>
<feBlend mode="normal" in="SourceGraphic" in2="BackgroundImageFix" result="shape"/>
<feGaussianBlur stdDeviation="150" result="effect1_foregroundBlur_15590_71689"/>
</filter>
<clipPath id="clip0_15590_71689">
<rect width="6.19695" height="6.35585" fill="white" transform="translate(351.621 298.636) rotate(-28.8105)"/>
</clipPath>
<clipPath id="clip1_15590_71689">
<rect width="10.729" height="13.6028" fill="white" transform="translate(276.51 274) rotate(52.0008)"/>
</clipPath>
<clipPath id="clip2_15590_71689">
<rect width="6.19695" height="6.35585" fill="white" transform="translate(353.154 394.431) rotate(-28.8105)"/>
</clipPath>
<clipPath id="clip3_15590_71689">
<rect width="10.3468" height="10.5579" fill="white" transform="translate(271.25 352.925) rotate(-172.174)"/>
</clipPath>
<clipPath id="clip4_15590_71689">
<rect width="108.006" height="103.064" fill="white" transform="translate(270.842 284.871)"/>
</clipPath>
</defs>
</svg>
